<?xml version="1.0" standalone="no"?>
<!DOCTYPE svg PUBLIC "-//W3C//DTD SVG 20010904//EN"
 "http://www.w3.org/TR/2001/REC-SVG-20010904/DTD/svg10.dtd">
<svg version="1.0" xmlns="http://www.w3.org/2000/svg"
 width="300.000000pt" height="251.000000pt" viewBox="0 0 300.000000 251.000000"
 preserveAspectRatio="xMidYMid meet">

<g transform="translate(0.000000,251.000000) scale(0.100000,-0.100000)"
fill="#000000" stroke="none">
<path d="M1326 2481 c-4 -5 -2 -12 3 -15 5 -4 12 -2 15 3 4 5 2 12 -3 15 -5 4
-12 2 -15 -3z"/>
<path d="M645 2470 c-3 -5 -1 -10 4 -10 6 0 11 5 11 10 0 6 -2 10 -4 10 -3 0
-8 -4 -11 -10z"/>
<path d="M2320 2478 c0 -3 11 -28 24 -55 14 -26 28 -63 31 -82 7 -32 6 -34
-16 -26 -43 14 -121 17 -132 6 -6 -6 -23 -11 -39 -11 -25 0 -27 2 -22 30 5 22
2 31 -10 36 -10 4 -23 1 -29 -6 -9 -9 -8 -11 8 -8 13 2 20 -3 20 -12 0 -24
-45 -13 -78 18 -41 40 -95 37 -141 -7 -20 -19 -42 -31 -52 -29 -26 5 -25 34 1
30 16 -3 17 -1 8 8 -20 21 -46 3 -40 -27 3 -15 -1 -37 -10 -49 -8 -13 -12 -28
-8 -33 5 -9 -10 -18 -80 -49 -5 -3 -2 4 8 16 11 11 16 25 13 31 -4 5 3 11 15
13 12 2 27 11 33 21 9 15 7 21 -8 33 -16 11 -17 17 -8 26 16 16 15 48 0 48
-15 -1 -67 -29 -55 -30 5 0 17 5 29 11 26 14 33 6 18 -21 -9 -18 -8 -25 5 -40
19 -21 11 -44 -11 -36 -8 3 -20 -3 -26 -14 -7 -11 -20 -20 -29 -20 -22 0 -44
26 -29 35 5 3 10 12 10 18 0 7 -4 6 -10 -3 -5 -8 -10 -12 -12 -10 -26 40 -28
50 -11 51 16 0 15 2 -2 9 -39 17 -47 11 -26 -16 23 -29 27 -54 9 -54 -6 0 -8
3 -5 6 4 4 -5 20 -18 36 -29 34 -30 41 -10 58 12 10 18 10 30 0 8 -6 22 -10
32 -7 15 4 15 5 -3 6 -11 0 -25 6 -30 11 -6 6 -18 8 -27 5 -26 -11 -29 -37 -7
-67 25 -34 25 -45 0 -53 -35 -11 -23 -28 15 -22 19 3 35 4 35 1 0 -10 -94 -45
-107 -40 -21 8 -15 43 8 49 17 5 20 12 17 49 -3 42 -4 43 -40 46 -34 3 -38 6
-38 32 0 16 -3 31 -7 33 -12 7 -126 -32 -142 -48 -9 -8 -14 -31 -13 -55 1 -23
-2 -49 -7 -58 -6 -12 -4 -24 5 -37 8 -10 14 -15 14 -11 0 5 6 3 13 -3 8 -6 18
-7 23 -3 4 4 2 -1 -5 -10 -22 -30 -88 -4 -76 30 2 6 -1 12 -7 12 -6 0 -3 9 7
20 22 24 9 27 -17 3 -17 -15 -18 -15 -18 3 0 11 5 25 11 31 6 6 9 17 6 25 -3
8 -10 0 -18 -19 -18 -44 -32 -42 -23 3 5 27 4 35 -5 30 -6 -4 -11 -22 -11 -39
0 -24 -3 -28 -10 -17 -5 8 -10 25 -10 38 0 12 -4 22 -10 22 -12 0 -12 2 -1
-37 12 -40 -1 -51 -19 -18 -7 14 -18 25 -23 25 -5 0 -2 -11 7 -25 19 -29 21
-44 4 -27 -20 20 -32 13 -14 -7 11 -12 14 -21 7 -26 -16 -9 -13 -47 4 -73 12
-16 14 -34 9 -70 -4 -32 -2 -52 5 -56 21 -13 12 -36 -14 -36 -14 0 -25 -4 -25
-10 0 -5 5 -10 12 -10 6 0 3 -9 -7 -20 -35 -39 -37 -4 -4 79 36 91 37 77 -15
164 -8 13 -7 20 4 28 11 8 1 9 -35 4 -46 -5 -48 -4 -31 10 11 8 26 15 34 15 7
0 12 8 10 17 -2 12 -17 20 -47 25 -59 10 -73 23 -60 56 12 31 -4 78 -32 92
-27 15 -77 12 -104 -6 l-24 -16 28 -39 c32 -43 48 -106 32 -122 -7 -7 -12 3
-17 32 -11 68 -78 133 -136 130 -19 -1 -18 -2 7 -8 48 -12 75 -30 95 -64 21
-33 27 -107 10 -107 -5 0 -10 11 -10 25 0 90 -114 149 -184 94 -34 -27 -59
-75 -53 -104 3 -17 0 -22 -11 -18 -10 5 -13 17 -9 46 7 50 32 85 83 114 45 26
38 30 -12 7 -39 -19 -84 -87 -84 -127 0 -15 -4 -27 -10 -27 -5 0 -10 9 -10 19
0 29 -56 71 -95 71 -19 0 -45 4 -59 10 -14 5 -28 5 -31 1 -3 -5 5 -37 17 -71
22 -61 22 -62 3 -76 -10 -8 -32 -14 -47 -14 -43 0 -91 -23 -121 -59 -33 -39
-37 -109 -11 -182 17 -45 17 -48 -5 -83 -13 -20 -27 -34 -31 -31 -5 3 -15 -13
-21 -35 -10 -32 -10 -49 -1 -74 16 -42 16 -42 -10 -66 -18 -16 -19 -20 -5 -20
40 0 121 -60 104 -76 -2 -2 -26 9 -55 24 -28 14 -54 23 -59 19 -4 -5 -8 -33
-8 -62 0 -47 4 -58 33 -87 17 -19 32 -37 32 -40 0 -10 -38 -16 -47 -7 -15 15
-13 -64 2 -86 11 -19 9 -26 -16 -59 -41 -56 -52 -96 -39 -145 6 -22 14 -43 19
-46 5 -3 7 -22 4 -44 -3 -21 0 -48 6 -59 12 -23 104 -71 137 -73 18 0 18 -1
-1 -9 -11 -5 -32 -9 -48 -9 -33 -1 -47 -30 -47 -96 0 -38 5 -47 37 -74 21 -17
43 -31 50 -31 7 0 13 -9 13 -20 0 -11 -3 -20 -8 -20 -4 0 -13 9 -20 20 -15 25
-38 26 -51 1 -8 -14 -4 -27 21 -60 l31 -42 -21 -22 c-11 -12 -24 -35 -28 -52
-4 -16 -16 -43 -26 -60 -24 -40 -23 -105 2 -138 11 -14 40 -33 65 -43 25 -11
45 -23 45 -28 0 -5 -17 -29 -37 -54 -20 -25 -32 -43 -26 -41 6 2 27 23 46 47
20 23 38 38 41 33 3 -5 -1 -14 -9 -21 -17 -14 -20 -40 -5 -40 6 0 9 3 9 8 -6
33 28 45 50 18 14 -17 -1 -56 -21 -56 -6 0 -9 -2 -6 -5 9 -10 37 7 43 25 5 17
9 17 40 4 19 -8 36 -14 37 -13 14 4 39 -19 47 -43 14 -40 24 -32 12 10 -8 27
-6 33 16 47 24 16 27 16 57 -6 l31 -22 -24 26 c-27 29 -22 57 9 57 12 0 20 -7
20 -17 0 -15 -2 -16 -10 -3 -5 8 -12 11 -15 8 -12 -12 7 -30 26 -25 13 4 19 0
19 -12 0 -21 30 -51 52 -51 19 0 48 32 48 53 0 9 4 19 10 22 6 4 10 -7 10 -25
0 -22 9 -41 29 -61 40 -39 96 -40 142 -2 36 31 70 34 96 10 32 -29 94 -49 129
-42 35 6 94 57 94 81 0 8 5 14 10 14 6 0 10 -7 10 -16 0 -8 13 -29 29 -45 67
-67 171 -14 171 87 0 13 5 24 10 24 6 0 10 -8 10 -18 0 -21 28 -47 76 -69 32
-16 37 -16 69 0 20 9 40 28 45 42 12 32 32 33 24 1 -14 -56 58 -127 126 -125
26 1 28 3 10 6 -60 9 -72 14 -66 28 3 9 0 12 -8 9 -16 -6 -56 42 -56 67 0 25
8 24 31 -5 28 -35 80 -56 143 -56 42 0 58 -4 66 -18 10 -15 10 -15 5 4 -4 17
1 24 25 34 35 14 63 51 75 95 l8 30 13 -30 c7 -16 13 -40 14 -52 0 -22 4 -23
85 -23 83 0 85 1 85 24 0 34 10 56 25 56 17 0 26 -25 18 -47 -4 -11 -3 -14 6
-9 7 5 9 20 5 42 -5 30 -4 34 14 34 12 0 29 -13 41 -33 11 -17 21 -26 21 -19
0 19 -55 72 -74 72 -9 0 -16 5 -16 10 0 28 66 -7 100 -54 74 -101 179 -109
283 -20 85 73 87 75 87 113 1 44 16 65 53 75 37 9 63 62 50 102 -5 16 -23 38
-40 49 -33 22 -58 86 -40 104 6 6 10 24 9 41 0 16 3 30 7 30 5 0 14 14 21 31
11 26 11 36 -3 65 -16 33 -16 35 8 70 28 41 32 81 12 109 -13 16 -13 15 -9
-16 4 -29 3 -32 -10 -18 -8 8 -20 24 -27 37 -16 30 -58 30 -72 -1 -6 -13 -20
-29 -32 -36 -21 -14 -21 -13 -4 13 10 14 13 26 7 26 -13 0 -40 -54 -40 -82 -1
-22 -1 -22 -15 -4 -8 11 -15 28 -15 39 0 25 54 75 94 86 23 7 25 9 10 10 -12
1 -44 -14 -72 -32 -38 -26 -48 -30 -45 -16 3 10 23 30 46 46 35 24 50 28 111
28 71 1 71 1 88 35 11 22 17 54 16 85 -1 46 -2 47 -5 10 -7 -82 -9 -85 -46
-73 -17 6 -33 12 -35 13 -1 1 7 23 19 49 12 28 19 63 18 86 -2 22 2 45 9 52
17 17 15 33 -3 18 -12 -10 -15 -9 -15 8 0 11 6 23 13 26 8 3 7 8 -6 16 -18 11
-18 13 6 39 70 74 75 151 14 218 -26 29 -16 53 25 54 27 1 29 2 8 6 -32 6 -74
49 -66 69 3 9 24 23 46 32 22 9 40 20 40 24 0 4 -24 -4 -53 -16 -55 -25 -62
-23 -86 23 -7 13 -10 38 -6 65 6 35 12 44 36 53 33 13 37 38 14 83 -20 39 -53
60 -93 60 -27 0 -33 3 -28 16 3 9 6 17 6 20 0 2 17 12 39 23 40 21 51 37 51
75 0 26 -29 56 -53 56 -20 0 -23 40 -5 58 16 16 29 15 27 0 -3 -28 2 -38 21
-38 44 0 37 70 -8 89 -32 13 -75 6 -93 -15 -15 -18 -9 -18 29 2 27 13 36 13
59 2 30 -14 39 -58 14 -66 -9 -3 -11 2 -6 17 8 27 -19 39 -43 18 -20 -18 -71
-12 -88 12 -10 13 -14 13 -28 2 -9 -7 -16 -18 -16 -24 0 -6 6 -2 14 8 13 18
13 18 24 0 6 -12 21 -19 39 -20 25 0 28 -3 28 -33 0 -29 2 -32 22 -27 45 11
72 -55 35 -88 -20 -19 -62 -23 -62 -7 0 6 10 15 23 20 21 8 20 9 -8 10 -29 1
-29 1 -11 15 18 14 18 15 2 15 -9 0 -28 13 -41 28 -22 26 -66 53 -109 67 -17
5 -15 8 15 23 41 20 53 60 20 69 -12 3 -21 9 -21 14 0 4 -9 13 -20 19 -15 8
-24 7 -38 -7 -10 -10 -27 -23 -38 -29 -28 -17 -26 -68 4 -72 17 -3 22 2 22 17
0 12 -4 21 -10 21 -5 0 -7 -7 -4 -15 4 -9 0 -15 -10 -15 -20 0 -21 33 -2 49
19 16 45 3 53 -27 9 -37 -9 -57 -51 -56 -19 1 -33 -3 -30 -8 3 -5 25 -8 50 -7
30 2 49 -3 63 -15 31 -28 15 -38 -26 -16 -27 14 -47 18 -78 13 l-42 -5 -6 38
c-11 65 -26 107 -52 149 -13 22 -25 37 -25 33z m-1333 -53 c29 -21 34 -51 13
-78 -18 -21 -20 -21 -36 -5 -15 15 -16 20 -5 30 12 11 13 10 7 -5 -4 -12 -2
-17 6 -15 39 13 2 58 -49 58 -30 0 -34 2 -23 15 16 19 59 19 87 0z m1561 -33
c3 -18 6 -21 17 -12 20 17 31 -8 12 -27 -14 -14 -19 -13 -46 17 -31 34 -32 54
-3 48 10 -2 18 -14 20 -26z m-1048 -17 c0 -11 -14 -15 -57 -17 -40 -1 -26 -4
42 -7 l100 -6 0 -35 0 -35 -107 -3 -108 -3 0 44 c0 58 19 73 98 76 22 1 32 -4
32 -14z m549 0 c56 -29 63 -106 14 -145 -37 -29 -79 -26 -114 9 -45 46 -34
111 23 136 42 18 43 18 77 0z m-1223 -39 c35 -35 41 -57 24 -100 -6 -17 -14
-24 -25 -20 -8 4 -17 -1 -21 -10 -9 -24 -54 -21 -54 4 0 23 -26 38 -41 23 -15
-15 -56 -4 -61 15 -8 30 12 80 38 101 43 34 99 28 140 -13z m-349 -6 c19 0 43
-10 63 -26 37 -31 33 -43 -5 -18 -27 18 -28 18 -47 -6 -14 -17 -18 -33 -14
-52 3 -15 2 -28 -2 -28 -9 0 -42 63 -62 114 -10 27 -9 28 12 22 13 -3 37 -6
55 -6z m1858 -34 c17 -17 23 -31 18 -42 -5 -14 -8 -15 -11 -3 -6 19 -33 49
-45 49 -5 0 -4 -6 2 -14 17 -20 -13 -43 -34 -26 -12 10 -13 15 -3 28 11 13 10
14 -9 3 -13 -6 -26 -23 -29 -36 -3 -14 -10 -22 -15 -19 -16 10 -10 34 16 59
32 33 78 33 110 1z m-1375 -10 c-1 -5 4 -12 10 -16 9 -6 7 -11 -9 -19 -19 -11
-21 -9 -21 19 0 18 5 30 11 28 6 -2 10 -7 9 -12z m934 -2 c8 -21 -1 -34 -24
-34 -22 0 -33 23 -17 39 16 16 34 14 41 -5z m274 -8 c4 -21 -14 -37 -35 -29
-14 5 -18 35 -6 47 12 12 38 1 41 -18z m424 -2 c22 -12 27 -18 18 -24 -11 -7
-70 24 -70 37 0 8 24 2 52 -13z m-1473 -8 c-7 -8 -98 -10 -105 -3 -4 4 19 7
51 7 32 0 56 -2 54 -4z m1143 -38 c-10 -10 -15 -10 -21 1 -5 8 -7 21 -4 28 5
12 8 12 21 -1 13 -13 14 -18 4 -28z m58 19 c0 -25 -44 -55 -55 -37 -7 12 12
23 27 14 7 -4 8 -3 4 5 -4 6 -2 18 4 26 17 20 20 19 20 -8z m-1638 -116 c73
-71 131 -131 128 -135 -3 -3 -69 55 -145 129 -77 74 -135 134 -128 134 6 1 72
-57 145 -128z m708 113 c0 -8 -4 -12 -10 -9 -5 3 -10 10 -10 16 0 5 5 9 10 9
6 0 10 -7 10 -16z m150 1 c0 -13 -12 -15 -67 -13 -42 2 -68 8 -71 16 -3 9 15
12 67 12 57 0 71 -3 71 -15z m-248 -12 c25 -23 23 -55 -7 -83 l-25 -23 0 27
c0 16 -4 25 -10 21 -5 -3 -10 -15 -10 -26 0 -18 -1 -18 -24 -4 -31 21 -39 54
-20 82 18 28 68 31 96 6z m1236 -3 c69 -42 77 -137 16 -197 -28 -29 -39 -33
-83 -33 -42 0 -56 5 -85 31 -60 52 -61 126 -1 186 27 27 40 33 77 33 25 0 56
-8 76 -20z m-1858 -126 c63 -64 97 -103 75 -86 -52 40 -236 227 -210 214 11
-6 72 -63 135 -128z m1978 118 c3 -9 -3 -13 -19 -10 -12 1 -24 9 -27 16 -3 9
3 13 19 10 12 -1 24 -9 27 -16z m-1908 0 c0 -4 -7 -18 -16 -30 -16 -23 -67
-31 -79 -12 -4 6 6 10 24 10 20 0 34 7 41 20 10 20 30 28 30 12z m1118 -4 c18
-18 14 -53 -7 -73 -19 -16 -21 -16 -50 5 -37 26 -37 27 -9 57 24 25 48 29 66
11z m746 -20 c17 -32 15 -45 -3 -33 -6 3 -9 11 -6 16 4 5 2 9 -2 9 -5 0 -14 9
-21 20 -10 17 -10 20 2 20 8 0 22 -14 30 -32z m-908 -1 c17 -15 27 -33 27 -52
0 -33 -42 -75 -74 -75 -28 0 -69 44 -69 75 0 31 41 75 69 75 11 0 32 -10 47
-23z m424 8 c10 -12 10 -18 0 -30 -14 -17 -40 -20 -40 -5 0 6 5 10 11 10 6 0
8 9 4 20 -7 24 7 26 25 5z m-202 -9 c-2 -8 6 -22 17 -30 20 -15 20 -15 -1 -16
-31 0 -50 25 -34 45 16 19 22 19 18 1z m278 3 c3 -6 0 -18 -9 -26 -18 -18 -37
-9 -37 18 0 21 34 27 46 8z m-1243 -23 l23 -24 23 24 c66 68 169 -23 131 -116
-7 -17 -37 -54 -67 -83 -30 -28 -62 -65 -70 -82 l-16 -30 -15 25 c-9 14 -39
48 -68 75 -81 78 -99 127 -69 185 28 55 90 67 128 26z m1042 -5 c-9 -16 -25
-3 -18 15 4 10 9 12 15 6 6 -6 7 -15 3 -21z m48 -4 c-3 -5 -10 -4 -15 1 -6 6
-7 16 -3 22 6 9 9 9 16 -1 4 -7 5 -17 2 -22z m620 19 c3 -8 -2 -16 -14 -19
-10 -3 -19 -4 -19 -2 0 2 -3 10 -6 19 -4 11 0 16 14 16 11 0 22 -6 25 -14z
m-1133 -1 c0 -27 -44 -92 -116 -173 -80 -90 -112 -113 -121 -87 -5 17 168 200
188 199 10 0 16 3 13 8 -3 4 -14 8 -25 8 -28 0 -25 37 4 43 35 7 57 7 57 2z
m-1103 -16 l28 -11 -23 -18 c-13 -11 -18 -21 -12 -25 5 -3 10 -1 10 4 0 6 5
11 11 11 5 0 7 -5 4 -10 -10 -16 5 -50 21 -50 10 0 13 6 9 19 -3 10 1 23 9 30
12 10 17 8 25 -7 10 -19 16 -60 12 -92 -1 -8 -11 -26 -22 -40 l-21 -25 7 30 6
30 -20 -32 c-12 -18 -26 -33 -31 -33 -7 0 -5 9 4 22 22 31 20 45 -2 18 -22
-27 -56 -29 -104 -6 -43 21 -54 56 -31 101 15 28 15 29 0 16 -10 -7 -21 -28
-25 -45 -10 -39 15 -85 61 -115 26 -17 28 -21 12 -21 -11 0 -31 7 -43 16 -12
8 -22 13 -22 10 0 -3 19 -19 42 -36 38 -28 39 -30 15 -30 -30 0 -82 41 -102
81 -8 15 -15 53 -15 83 0 44 5 60 26 85 38 45 112 63 171 40z m124 -26 c27 7
79 -38 79 -68 0 -50 -54 -116 -80 -100 -15 9 -12 25 4 25 18 0 56 47 56 69 0
10 -6 26 -14 37 -13 17 -18 17 -37 6 -19 -12 -24 -11 -49 20 -18 21 -24 35
-17 40 6 4 17 -2 25 -14 9 -12 21 -18 33 -15z m1 22 c0 -5 -5 -11 -11 -13 -6
-2 -11 4 -11 13 0 9 5 15 11 13 6 -2 11 -8 11 -13z m794 4 c7 -12 -40 -62 -49
-53 -6 7 25 64 35 64 4 0 10 -5 14 -11z m-570 -14 c19 -15 19 -15 -1 -31 -11
-8 -19 -20 -17 -25 3 -12 -9 -11 -28 1 -12 7 -10 11 10 20 24 10 24 10 2 6
-26 -5 -52 2 -52 14 0 8 39 28 56 29 5 1 19 -6 30 -14z m664 -5 c12 -23 3 -36
-108 -153 -49 -52 -56 -57 -70 -43 -14 13 -7 24 64 101 43 48 83 93 89 101 13
18 12 18 25 -6z m351 -6 c17 -15 13 -22 -63 -115 -85 -106 -94 -114 -102 -101
-2 4 23 41 56 82 l60 75 -65 -70 c-36 -38 -67 -68 -70 -65 -6 5 153 210 162
210 2 0 12 -7 22 -16z m879 -3 c0 -28 -17 -35 -29 -13 -11 21 -6 32 16 32 7 0
13 -9 13 -19z m-562 -21 c18 -11 39 -35 47 -52 12 -30 16 -32 59 -29 40 2 50
-2 76 -27 17 -17 30 -37 30 -45 0 -7 -18 -28 -39 -45 l-40 -32 -224 0 c-187 0
-227 3 -237 15 -7 8 -16 13 -20 10 -9 -5 -20 18 -20 40 0 8 14 30 31 49 38 44
90 57 131 33 24 -14 28 -14 28 -1 0 30 32 76 63 89 45 20 77 18 115 -5z m72
-5 c0 -14 -4 -25 -10 -25 -5 0 -10 11 -10 25 0 14 5 25 10 25 6 0 10 -11 10
-25z m-261 -23 c0 -24 -1 -25 -9 -7 -12 28 -12 47 0 40 6 -3 10 -18 9 -33z
m-679 19 c0 -33 -15 -71 -27 -71 -10 0 -13 6 -9 16 3 9 9 27 12 40 6 23 24 34
24 15z m45 -22 c8 -34 -1 -51 -15 -29 -12 19 -13 60 -1 60 5 0 12 -14 16 -31z
m1015 10 c0 -5 -7 -6 -16 -2 -10 4 -20 0 -26 -10 -5 -10 -13 -17 -18 -17 -10
0 -14 33 -5 42 8 8 65 -3 65 -13z m-1712 -1 c18 -18 15 -41 -8 -66 -24 -26
-40 -28 -40 -7 0 8 6 15 14 15 18 0 30 30 16 44 -5 5 -10 14 -10 18 0 12 14
10 28 -4z m992 -8 c0 -5 -7 -10 -15 -10 -8 0 -23 -10 -35 -22 -16 -18 -20 -19
-20 -5 0 17 36 47 57 47 7 0 13 -4 13 -10z m1086 -10 c-3 -11 -8 -29 -11 -39
-3 -11 -23 -34 -43 -52 -36 -32 -37 -32 -40 -10 -4 27 16 54 35 47 8 -3 13 0
12 7 -5 29 14 67 33 67 15 0 18 -5 14 -20z m-809 -16 c-9 -9 -28 6 -21 18 4 6
10 6 17 -1 6 -6 8 -13 4 -17z m428 16 c3 -5 1 -10 -4 -10 -6 0 -11 5 -11 10 0
6 2 10 4 10 3 0 8 -4 11 -10z m-1725 -21 c0 -5 -4 -9 -10 -9 -5 0 -10 7 -10
16 0 8 5 12 10 9 6 -3 10 -10 10 -16z m1068 -2 c6 -5 12 -16 12 -25 0 -12 -5
-11 -20 6 -12 12 -27 22 -34 22 -17 0 -41 -28 -32 -37 3 -3 6 -2 6 4 0 17 31
25 46 12 8 -6 11 -15 8 -21 -3 -5 -12 -4 -21 3 -12 11 -13 8 -7 -17 7 -28 6
-29 -13 -11 -25 22 -36 22 -56 -1 -10 -11 -14 -26 -10 -41 4 -17 3 -22 -5 -17
-18 11 -15 66 4 73 8 3 20 16 25 30 14 38 61 48 97 20z m-968 -22 c0 -14 -6
-25 -14 -25 -9 0 -12 8 -8 25 2 14 8 25 13 25 5 0 9 -11 9 -25z m2100 15 c19
-10 18 -12 -8 -55 -15 -25 -30 -45 -34 -45 -4 0 -19 16 -33 35 -36 46 -27 75
21 75 20 0 44 -5 54 -10z m-1277 -58 c-17 -30 -17 -32 5 -61 24 -32 15 -43
-12 -15 -25 24 -24 68 2 97 22 25 25 14 5 -21z m867 4 c0 -5 -7 -3 -15 4 -8 7
-12 17 -9 22 7 10 24 -9 24 -26z m460 -27 c0 -23 -15 -32 -40 -24 -24 8 -25
23 -3 54 15 23 17 23 30 6 7 -11 13 -27 13 -36z m-1367 -13 c-4 -29 0 -55 11
-77 18 -37 13 -52 -8 -23 -18 24 -27 78 -19 115 9 46 21 34 16 -15z m111 38
c9 -3 16 -11 16 -16 0 -6 -6 -8 -14 -5 -10 4 -16 -2 -19 -16 -3 -19 -4 -20
-11 -4 -8 16 -2 47 8 47 2 0 11 -3 20 -6z m1106 -4 c0 -5 -9 -14 -20 -20 -23
-12 -26 -6 -7 15 14 17 27 19 27 5z m-1939 -15 c26 -14 69 -67 69 -86 0 -4
-12 -15 -27 -25 -22 -14 -45 -17 -110 -15 -95 3 -103 -4 -103 -88 l0 -51 -104
0 c-58 0 -108 4 -111 10 -4 6 1 7 12 4 15 -5 15 -4 3 4 -8 6 -18 8 -22 6 -5
-3 -12 5 -17 18 -6 14 -10 17 -10 8 -1 -9 4 -21 11 -28 6 -6 9 -14 6 -18 -4
-3 -14 8 -22 25 -27 51 6 101 66 101 13 0 29 -5 36 -12 9 -9 12 -7 12 10 0 64
54 108 119 99 29 -3 41 -1 45 9 7 18 62 43 94 44 13 0 36 -7 53 -15z m121 -27
c-16 -16 -37 4 -28 28 6 16 8 16 23 1 13 -13 14 -19 5 -29z m1626 21 c-2 -6
-8 -10 -13 -10 -5 0 -11 4 -13 10 -2 6 4 11 13 11 9 0 15 -5 13 -11z m-1175
-90 c-13 -13 -39 -2 -67 30 -16 17 -17 23 -6 36 12 14 17 12 49 -19 26 -26 32
-39 24 -47z m131 -86 c21 8 36 -38 29 -91 l-6 -47 23 20 23 20 -7 -30 c-6 -28
-5 -28 16 9 16 26 35 42 61 51 20 7 37 11 37 9 0 -3 -13 -28 -30 -57 -40 -72
-38 -85 3 -17 33 56 80 91 99 72 7 -7 0 -12 -21 -17 -36 -8 -62 -39 -60 -75
l2 -25 4 25 c7 36 32 60 63 60 50 0 66 -42 29 -76 -15 -14 -24 -16 -37 -7 -26
16 -21 47 7 51 16 3 22 0 18 -10 -2 -7 -10 -12 -16 -10 -6 1 -11 -2 -11 -8 0
-17 30 -11 37 6 9 24 -24 46 -48 33 -21 -11 -26 -54 -8 -64 7 -5 2 -16 -12
-31 -12 -13 -18 -24 -13 -24 5 0 17 9 27 20 13 15 24 19 45 14 15 -4 29 -8 31
-10 2 -2 -13 -20 -35 -40 -36 -32 -36 -34 -5 -12 79 55 78 54 51 23 l-25 -29
34 24 c27 19 35 20 42 9 14 -22 12 -26 -41 -60 -27 -18 -48 -34 -46 -37 3 -2
22 8 43 22 44 30 58 32 67 10 11 -28 7 -33 -44 -55 -28 -12 -49 -24 -46 -26 2
-3 17 2 33 10 33 17 91 32 80 21 -4 -4 0 -15 9 -25 19 -21 14 -24 -59 -39 -32
-6 -57 -14 -54 -16 2 -2 34 2 70 10 59 12 117 12 117 -1 0 -2 -5 -13 -10 -23
-8 -15 -17 -18 -45 -13 -22 3 -41 1 -50 -7 -9 -7 -33 -17 -53 -21 l-37 -7 33
-1 c21 -1 32 -6 32 -15 0 -9 -13 -16 -32 -19 -32 -4 -32 -4 5 -5 20 -1 37 -6
37 -11 0 -14 36 -23 59 -16 38 12 30 75 -10 75 -11 0 -22 -7 -26 -16 -6 -17
13 -42 24 -30 4 4 1 11 -6 15 -10 7 -10 10 -1 16 16 10 33 -9 28 -31 -4 -24
-41 -30 -57 -10 -30 36 12 86 57 71 49 -15 45 -99 -5 -111 -13 -4 -23 -10 -23
-15 0 -10 58 9 66 22 3 5 9 9 15 9 17 0 9 -26 -15 -49 l-24 -22 -83 25 c-90
28 -122 29 -40 1 28 -9 51 -19 51 -21 0 -2 -5 -13 -12 -23 -11 -19 -13 -19
-60 5 -26 13 -48 22 -48 19 0 -2 23 -16 50 -30 49 -25 60 -44 42 -73 -7 -9
-22 -2 -63 29 l-54 41 53 -48 c47 -44 70 -76 40 -58 -8 5 -9 2 -4 -11 5 -14
-2 -11 -31 10 l-38 28 34 -36 c47 -50 31 -47 -27 5 l-47 43 43 -47 c23 -26 42
-50 42 -52 0 -3 -21 -3 -46 -2 -37 2 -50 8 -69 32 -32 38 -31 57 6 110 71 103
90 189 64 280 -42 144 -159 234 -305 234 -122 0 -225 -64 -279 -172 -27 -52
-31 -72 -31 -137 0 -84 19 -135 84 -232 36 -54 48 -109 23 -109 -8 0 -17 3
-21 7 -3 4 -16 8 -29 10 -35 6 -42 20 -21 45 11 13 5 10 -14 -6 -37 -34 -43
-25 -10 13 14 16 8 13 -13 -6 -37 -34 -69 -43 -69 -19 0 8 23 33 51 55 29 23
48 41 43 41 -4 0 -29 -18 -55 -40 l-46 -39 -23 24 -22 24 56 31 c31 18 59 36
62 41 3 5 -23 -6 -57 -25 l-63 -35 -13 26 c-7 14 -12 27 -11 28 2 1 31 12 66
25 34 12 61 25 58 27 -2 2 -19 -2 -37 -10 -58 -24 -92 -30 -86 -15 2 7 0 21
-5 31 -6 12 -5 17 5 17 8 0 22 9 32 20 10 11 32 21 49 22 l31 1 -32 4 c-24 3
-33 9 -33 23 0 10 -9 25 -21 34 -15 10 -19 20 -14 36 6 18 12 20 33 15 15 -3
36 -8 47 -11 l20 -4 -20 10 c-11 5 -32 14 -47 20 -21 7 -28 16 -28 35 0 30 -3
30 55 5 56 -24 52 -11 -5 15 -33 15 -40 23 -40 47 0 28 16 37 36 20 17 -16 84
-54 84 -48 0 3 -25 22 -56 41 -53 34 -55 37 -40 54 9 10 14 20 12 22 -2 2 2 9
9 16 10 10 16 9 27 -4 11 -15 11 -16 -7 -10 -11 4 0 -11 25 -32 25 -22 47 -38
49 -36 2 2 -11 16 -28 31 -18 14 -29 29 -26 32 3 3 -7 18 -22 34 -36 38 -21
49 20 12 31 -28 31 -28 8 -1 -40 44 -11 31 43 -20 l50 -48 -38 44 -38 44 32
13 c18 8 34 14 36 14 2 0 16 -18 30 -40 15 -22 29 -38 31 -36 3 2 -9 23 -26
46 l-30 42 23 36 c13 21 27 36 32 36 5 -1 20 -29 33 -63 13 -34 26 -59 28 -57
2 2 -2 19 -10 37 -21 53 -29 89 -17 89 5 0 10 -7 10 -15 0 -8 5 -15 10 -15 6
0 10 9 10 21 0 43 25 11 37 -47 l12 -59 -5 75 c-4 54 -3 71 5 60 8 -12 11 -8
11 18 0 60 20 33 22 -30 l2 -63 6 80 c3 44 7 70 8 58 3 -40 22 -24 24 20 l1
42 7 -45 7 -45 1 53 c1 28 6 52 12 52 5 0 11 -56 13 -132 l3 -133 4 155 c3
121 5 136 7 67 3 -69 7 -88 17 -84z m-299 127 c20 -21 24 -30 14 -30 -8 0 -25
14 -37 30 -13 17 -19 30 -14 30 4 0 21 -13 37 -30z m-219 9 c10 -17 -13 -36
-27 -22 -12 12 -4 33 11 33 5 0 12 -5 16 -11z m717 -14 c20 -14 37 -30 37 -36
0 -13 -4 -11 -52 21 -35 23 -48 40 -30 40 4 0 24 -11 45 -25z m911 10 c4 -12
-17 -45 -29 -45 -2 0 -10 7 -19 15 -20 20 -10 45 19 45 13 0 25 -7 29 -15z
m130 -1 c21 -21 20 -28 -8 -61 -24 -27 -24 -28 -45 -9 -12 11 -21 29 -21 41 0
42 44 60 74 29z m-944 -4 c0 -5 -4 -10 -10 -10 -5 0 -10 5 -10 10 0 6 5 10 10
10 6 0 10 -4 10 -10z m707 -12 c13 -12 23 -32 23 -46 0 -15 5 -22 13 -19 21 7
47 -13 47 -36 0 -43 -16 -47 -165 -47 -152 0 -165 4 -165 50 0 37 32 63 70 58
16 -3 30 0 30 6 0 5 10 20 22 33 29 31 92 32 125 1z m-1338 -19 c13 -17 20
-33 17 -37 -6 -6 -27 17 -47 51 -17 29 6 19 30 -14z m143 4 c29 -28 38 -63 15
-63 -22 0 -68 55 -61 73 8 23 13 22 46 -10z m369 0 c21 -16 39 -34 39 -41 0
-8 -5 -10 -12 -5 -7 5 -30 19 -50 32 -21 12 -35 27 -32 32 8 13 12 12 55 -18z
m1130 -50 c-10 -17 -10 -17 -11 2 0 11 4 31 8 45 l7 25 3 -27 c2 -15 -1 -35
-7 -45z m-1675 19 c-9 -8 -26 10 -26 26 1 15 2 15 15 -2 8 -11 13 -21 11 -24z
m429 28 c3 -5 1 -10 -4 -10 -6 0 -11 5 -11 10 0 6 2 10 4 10 3 0 8 -4 11 -10z
m1095 -20 c0 -5 -9 -6 -20 -3 -20 5 -25 15 -13 26 7 8 33 -11 33 -23z m-1004
-2 c41 -32 45 -40 27 -61 -53 -57 -120 -69 -108 -18 27 113 31 117 81 79z
m1123 -30 c-17 -31 -23 -9 -8 28 9 22 13 25 16 12 2 -9 -1 -27 -8 -40z m-1791
-95 l-3 -138 -70 -5 c-39 -3 -76 -9 -83 -14 -9 -5 -12 22 -12 123 0 124 1 131
22 142 34 18 69 27 111 28 l38 1 -3 -137z m305 66 c-7 -7 -23 -9 -37 -5 -26 6
-33 27 -20 61 6 14 11 12 38 -14 23 -23 27 -34 19 -42z m599 40 c29 -12 64
-57 52 -67 -4 -4 -9 -1 -11 6 -11 29 -47 52 -82 51 -20 -1 -27 -3 -16 -6 11
-2 30 -6 41 -8 31 -7 36 -30 13 -59 -26 -33 -72 -35 -93 -4 -19 27 -21 64 -3
71 7 3 5 6 -5 6 -28 1 -22 -48 13 -99 31 -46 34 -85 8 -117 -19 -22 -31 -15
-15 9 20 28 20 51 1 88 -22 42 -53 57 -71 33 -12 -16 -13 -17 -14 -1 0 10 9
22 20 28 13 7 20 21 20 38 0 42 18 54 70 47 25 -3 57 -11 72 -16z m-1559 -23
c-10 -13 -28 -23 -41 -23 -23 0 -23 0 8 28 36 33 59 29 33 -5z m687 -101 c0
-83 -4 -135 -10 -135 -6 0 -10 52 -10 135 0 83 4 135 10 135 6 0 10 -52 10
-135z m968 102 c2 -18 -1 -27 -11 -27 -21 0 -40 27 -33 46 10 25 41 12 44 -19z
m122 14 c0 -9 -52 -51 -63 -51 -3 0 -7 11 -9 25 -5 25 4 32 50 34 12 0 22 -3
22 -8z m-1319 -11 c16 -9 19 -22 19 -88 0 -42 -3 -94 -6 -114 l-6 -37 -72 6
c-39 3 -74 8 -77 12 -4 3 -4 57 -1 119 l5 112 59 0 c33 0 68 -5 79 -10z m354
-10 c-3 -5 -1 -11 5 -15 5 -3 10 -1 10 4 0 6 5 11 11 11 6 0 8 -8 4 -19 -5
-16 -2 -18 15 -14 11 3 20 0 20 -6 0 -6 -8 -11 -17 -11 -16 -1 -16 -2 1 -15
17 -13 17 -15 3 -21 -9 -3 -13 -12 -10 -21 4 -11 2 -14 -5 -9 -8 4 -15 -1 -20
-15 -6 -16 -11 -19 -16 -10 -6 9 -11 9 -24 -1 -12 -10 -16 -10 -19 0 -3 6 -13
12 -24 12 -10 0 -19 7 -19 15 0 8 -4 15 -9 15 -5 0 -8 11 -7 25 0 14 5 25 9
25 5 0 5 9 2 21 -5 16 -3 20 12 17 10 -2 17 2 16 10 -2 6 1 12 6 12 5 0 12 -6
15 -12 3 -9 8 -8 16 5 6 9 16 15 21 12 5 -4 7 -10 4 -15z m1027 5 c-23 -7 -54
-21 -68 -30 -14 -9 -28 -14 -31 -12 -12 12 74 57 107 56 l35 0 -43 -14z m484
-6 c10 -17 -13 -36 -27 -22 -12 12 -4 33 11 33 5 0 12 -5 16 -11z m-466 -8 c0
-5 -13 -12 -30 -16 -16 -4 -33 -11 -37 -17 -4 -8 0 -9 13 -3 36 15 62 17 68 6
5 -7 -2 -11 -16 -11 -13 0 -36 -7 -52 -15 -36 -19 -42 -19 -26 0 9 11 9 15 1
15 -20 0 -1 21 33 36 37 16 46 17 46 5z m606 -36 c14 -14 32 -25 40 -25 8 0
17 -7 21 -16 3 -8 16 -20 29 -25 59 -22 19 -29 -162 -29 -171 0 -185 1 -182
18 4 21 44 28 64 12 9 -9 14 -9 14 -2 0 20 40 35 56 21 12 -9 16 -6 25 18 9
27 37 50 62 52 4 1 19 -10 33 -24z m-2468 -11 c4 -27 -21 -47 -48 -39 -20 6
-28 44 -13 59 15 15 58 1 61 -20z m1734 -33 c38 -42 37 -87 -4 -161 -24 -45
-36 -57 -55 -57 -30 0 -29 15 2 57 17 23 22 37 15 45 -5 7 -7 14 -4 18 11 10
-7 46 -26 52 -53 17 -84 -61 -48 -120 24 -39 23 -56 -3 -52 -50 8 -97 144 -68
198 35 65 141 76 191 20z m198 9 c0 -5 -4 -10 -10 -10 -5 0 -10 5 -10 10 0 6
5 10 10 10 6 0 10 -4 10 -10z m117 -41 c1 -24 -1 -36 -4 -26 -6 21 -23 23 -23
1 0 -8 -4 -12 -10 -9 -22 14 -1 90 23 82 7 -2 13 -23 14 -48z m-137 21 c7 -13
7 -20 1 -20 -6 0 -15 9 -21 20 -7 13 -7 20 -1 20 6 0 15 -9 21 -20z m255 11
c7 -12 -12 -24 -25 -16 -11 7 -4 25 10 25 5 0 11 -4 15 -9z m-304 -41 c7 -34
1 -58 -8 -32 -3 6 -10 12 -18 12 -19 0 -38 28 -31 46 3 9 15 14 28 12 16 -2
24 -12 29 -38z m114 0 c-6 -9 -9 -9 -16 1 -10 17 0 34 13 21 6 -6 7 -16 3 -22z
m-1965 0 c16 0 18 -39 1 -46 -14 -6 -52 -6 -58 0 -9 8 24 55 35 51 8 -3 17 -5
22 -5z m2115 -10 c-10 -11 -20 -18 -23 -15 -7 6 18 35 31 35 5 0 2 -9 -8 -20z
m84 -47 c12 -9 13 -14 4 -23 -13 -14 -34 -5 -32 13 1 7 -3 25 -9 40 -17 40
-14 47 5 12 9 -16 23 -35 32 -42z m-289 47 c0 -5 -4 -10 -10 -10 -5 0 -10 5
-10 10 0 6 5 10 10 10 6 0 10 -4 10 -10z m-249 -16 c17 -21 0 -49 -32 -49 -27
0 -37 28 -19 50 16 19 34 19 51 -1z m-1510 -16 l2 -23 4 23 c5 25 10 26 49 12
21 -8 24 -14 16 -22 -17 -17 -15 -33 3 -18 12 10 18 10 31 -1 13 -10 13 -14 1
-20 -10 -6 -12 -21 -7 -61 9 -63 5 -71 -23 -62 -20 6 -20 5 -8 -10 13 -15 13
-19 0 -27 -24 -15 -62 -11 -55 6 3 8 1 15 -4 15 -6 0 -10 -7 -10 -16 0 -11 -5
-14 -16 -10 -9 3 -23 6 -31 6 -11 0 -14 6 -10 20 4 17 2 20 -13 15 -11 -3 -20
0 -24 10 -3 8 -1 15 4 15 14 0 12 84 -2 98 -19 19 6 40 27 22 17 -15 21 0 3
18 -9 9 -6 14 13 21 38 15 49 13 50 -11z m1844 2 c3 -5 1 -10 -4 -10 -6 0 -11
5 -11 10 0 6 2 10 4 10 3 0 8 -4 11 -10z m80 -20 c-5 -8 -11 -8 -17 -2 -6 6
-7 16 -3 22 5 8 11 8 17 2 6 -6 7 -16 3 -22z m62 24 c-3 -3 -12 -4 -19 -1 -8
3 -5 6 6 6 11 1 17 -2 13 -5z m-171 -24 c23 -12 45 -28 48 -36 5 -12 -1 -12
-27 4 -64 39 -135 36 -183 -9 -12 -11 -25 -16 -28 -11 -8 13 27 42 71 58 52
18 70 17 119 -6z m179 0 l20 -9 -20 0 c-11 0 -29 4 -40 9 l-20 9 20 0 c11 0
29 -4 40 -9z m158 3 c-7 -2 -19 -2 -25 0 -7 3 -2 5 12 5 14 0 19 -2 13 -5z
m247 -8 c89 -46 92 -164 5 -221 -18 -11 -25 -25 -25 -47 0 -37 -5 -33 -13 10
-6 29 -3 35 23 48 64 33 80 126 31 176 -16 16 -36 29 -45 29 -8 0 -18 5 -21
10 -9 14 12 12 45 -5z m-173 -49 c34 -37 43 -85 23 -116 -7 -11 -8 -6 -4 17 3
17 1 39 -5 50 -10 15 -10 14 -5 -10 13 -59 -35 -115 -103 -118 -22 -2 -20 -3
12 -9 l40 -7 -45 -2 c-52 -1 -83 16 -105 59 -30 59 -13 118 45 158 50 34 104
26 147 -22z m-1138 -2 c102 -55 161 -150 161 -260 0 -66 -19 -119 -68 -191
-54 -80 -78 -131 -87 -180 -10 -60 -25 -64 -25 -6 1 65 18 109 74 187 50 70
76 124 76 153 -1 10 -9 -5 -19 -34 -9 -28 -36 -75 -58 -105 -59 -77 -76 -115
-82 -188 -5 -58 -9 -65 -28 -68 -18 -3 -23 2 -24 20 l-1 23 -7 -24 c-4 -14
-12 -26 -19 -29 -9 -3 -12 38 -12 172 l0 176 24 0 c13 0 34 9 47 21 l24 21
-25 -16 c-37 -24 -70 -21 -71 7 -2 21 -2 21 -6 1 -3 -16 -12 -21 -36 -22 -38
-2 -87 16 -87 31 0 6 -3 7 -6 4 -13 -13 19 -37 57 -43 l39 -7 0 -168 c0 -162
-1 -169 -20 -169 -17 0 -20 7 -22 43 l-1 42 -4 -42 c-3 -35 -8 -43 -24 -43
-15 0 -19 7 -19 38 0 64 -27 135 -85 222 -30 45 -55 89 -55 96 0 7 -5 16 -11
19 -18 12 21 -67 67 -135 47 -70 74 -141 74 -197 0 -50 -23 -37 -32 18 -11 61
-25 93 -79 176 -26 40 -52 95 -59 124 -35 146 43 293 184 349 74 29 174 23
245 -16z m431 28 c0 -9 -35 -62 -41 -62 -6 0 -29 45 -29 58 0 4 16 7 35 7 19
0 35 -2 35 -3z m316 -25 c29 -26 37 -42 41 -81 6 -51 -15 -109 -43 -120 -18
-7 -17 14 1 38 20 26 19 90 0 120 -37 56 -124 58 -169 5 -30 -35 -35 -93 -11
-125 18 -24 19 -44 2 -44 -21 0 -47 55 -47 102 0 80 60 138 143 138 40 0 53
-5 83 -33z m149 15 c3 -9 0 -19 -7 -23 -16 -10 -38 8 -32 25 7 17 32 16 39 -2z
m444 -34 c9 -16 12 -36 7 -61 -10 -54 -26 -45 -26 15 0 40 -5 58 -22 77 l-23
25 25 -16 c14 -8 31 -26 39 -40z m-2622 17 c43 -26 53 -48 37 -89 -8 -21 -24
-10 -24 17 0 12 -5 29 -10 37 -8 11 -9 7 -5 -15 l7 -30 -21 25 c-11 14 -21 21
-21 16 0 -6 10 -20 22 -33 12 -13 19 -26 15 -29 -12 -12 -49 9 -58 34 -10 26
-4 92 8 92 3 0 26 -11 50 -25z m2575 -2 c27 -25 23 -68 -12 -105 l-30 -33 -35
37 c-39 42 -43 62 -19 96 18 27 69 30 96 5z m-2474 -26 c3 -22 -1 -27 -17 -27
-26 0 -26 -1 4 -46 14 -20 25 -43 25 -50 0 -23 -39 -15 -56 11 -16 25 -14 46
12 133 7 22 29 7 32 -21z m232 3 c0 -20 -5 -30 -15 -30 -10 0 -15 10 -15 30 0
20 5 30 15 30 10 0 15 -10 15 -30z m1776 13 c-4 -9 -1 -20 5 -24 13 -8 3 -29
-14 -29 -18 0 -37 46 -24 59 18 18 40 13 33 -6z m-105 -22 c51 -51 30 -139
-39 -162 -62 -21 -122 25 -122 93 0 87 100 130 161 69z m-204 -16 c-9 -29 -13
-33 -23 -23 -18 18 -6 58 16 58 16 0 17 -4 7 -35z m-1384 18 c9 -9 -13 -34
-24 -27 -14 8 -11 34 4 34 8 0 17 -3 20 -7z m237 -57 c0 -54 0 -55 -32 -59
-32 -4 -32 -4 5 -5 l37 -2 0 55 c0 30 5 55 10 55 14 0 12 -104 -2 -118 -7 -7
-42 -12 -85 -12 l-74 0 3 62 c3 70 10 75 96 77 l42 1 0 -54z m1530 39 c10 -12
10 -18 0 -30 -16 -19 -39 -19 -46 0 -6 15 11 45 26 45 4 0 13 -7 20 -15z
m-1820 -25 c0 -5 -4 -10 -10 -10 -5 0 -10 5 -10 10 0 6 5 10 10 10 6 0 10 -4
10 -10z m106 -10 c21 -8 24 -14 16 -22 -7 -7 -12 -23 -12 -37 0 -19 -3 -22
-12 -13 -7 7 -20 12 -29 12 -20 0 -33 51 -16 62 16 10 21 10 53 -2z m1244 0
c16 -10 8 -15 -40 -23 -17 -3 -12 -5 15 -6 30 -1 36 -4 24 -11 -18 -11 -89 -2
-89 11 0 5 6 9 13 10 10 0 10 2 0 6 -7 2 -13 9 -13 14 0 12 71 11 90 -1z
m-1353 -26 c3 -8 -2 -23 -11 -32 -15 -15 -17 -15 -33 0 -13 14 -14 20 -3 32
16 20 39 20 47 0z m1739 -29 c-7 -28 -63 -95 -79 -95 -6 0 4 15 21 33 18 19
38 51 44 73 11 41 24 31 14 -11z m-2068 8 c5 -18 -23 -16 -39 3 -11 14 -10 15
11 12 13 -1 25 -9 28 -15z m2096 -5 c-5 -8 -2 -9 9 -5 18 7 24 -8 7 -18 -5 -3
-10 -15 -10 -26 0 -21 -19 -27 -21 -6 -3 29 6 67 16 67 4 0 3 -5 -1 -12z
m-439 -7 c20 -8 20 -8 -1 -15 -23 -7 -54 1 -54 15 0 11 27 11 55 0z m90 -22
c-4 -13 -2 -19 9 -19 18 0 21 -16 6 -25 -6 -3 -22 3 -36 14 -22 17 -24 22 -10
27 9 3 16 13 16 21 0 8 5 11 10 8 6 -4 8 -15 5 -26z m-1374 -16 c42 -105 99
-258 99 -264 0 -4 -15 -11 -32 -14 -18 -4 -50 -16 -71 -27 -36 -18 -57 -17
-57 3 0 5 -22 67 -48 139 -55 146 -55 147 25 176 56 20 72 17 84 -13z m1819
12 c15 -18 5 -35 -21 -35 -12 0 -19 7 -19 18 0 33 20 42 40 17z m266 -24 c-9
-14 -33 -14 -41 -1 -4 6 -1 18 6 26 11 13 14 13 27 0 8 -8 11 -19 8 -25z
m-2472 -3 c23 -38 -36 -77 -64 -43 -10 12 -10 21 -1 41 13 29 47 30 65 2z
m195 13 c8 -5 39 -81 71 -169 l56 -160 -47 -5 c-26 -3 -71 -18 -99 -32 -29
-15 -53 -25 -55 -23 -1 2 -23 70 -48 153 -29 94 -43 153 -37 159 5 5 12 7 15
4 3 -3 24 -63 45 -133 21 -70 40 -129 42 -130 2 -2 28 5 58 15 30 11 47 19 37
20 -10 0 -33 -7 -53 -15 -27 -11 -36 -11 -39 -2 -20 55 -85 279 -85 292 0 9
10 20 23 25 29 11 98 12 116 1z m280 -144 c24 -78 45 -148 48 -154 3 -9 -10
-13 -46 -13 -29 0 -68 -7 -89 -15 l-37 -15 24 20 c13 11 43 25 68 31 24 6 46
15 49 20 3 5 -14 60 -36 121 -55 149 -55 148 -39 148 9 0 29 -50 58 -143z
m201 129 c0 -3 -4 -8 -10 -11 -5 -3 -10 -1 -10 4 0 6 5 11 10 11 6 0 10 -2 10
-4z m1205 -47 c-17 -31 -35 -31 -35 1 0 37 11 50 31 39 18 -9 18 -12 4 -40z
m-1375 -99 c24 -77 40 -143 37 -146 -3 -3 -25 54 -48 127 -23 74 -44 140 -46
147 -3 6 -1 12 4 12 5 0 29 -63 53 -140z m18 111 c3 -16 -1 -22 -10 -19 -7 3
-15 15 -16 27 -3 16 1 22 10 19 7 -3 15 -15 16 -27z m1220 17 c7 -7 12 -25 12
-40 0 -55 -78 -61 -95 -7 -13 41 52 78 83 47z m242 -23 c0 -41 -12 -45 -29 -9
-12 28 -7 44 15 44 9 0 14 -11 14 -35z m-1390 5 c12 -23 39 -23 57 0 11 13 12
13 13 -2 0 -10 7 -18 15 -18 24 0 30 -48 10 -70 -28 -31 -85 -21 -85 14 0 6 5
5 12 -2 17 -17 43 -15 58 3 10 13 11 18 1 28 -10 9 -11 8 -6 -5 5 -12 1 -20
-10 -24 -11 -5 -28 6 -53 33 l-37 39 -23 -49 c-23 -52 -43 -60 -24 -10 6 15
16 40 21 56 12 32 36 35 51 7z m40 10 c0 -5 -7 -10 -15 -10 -8 0 -15 5 -15 10
0 6 7 10 15 10 8 0 15 -4 15 -10z m1298 -23 c3 -28 -4 -33 -27 -18 -8 5 -11
16 -6 30 9 29 29 21 33 -12z m197 8 c0 -22 -31 -33 -47 -17 -17 17 -1 44 24
40 15 -2 23 -10 23 -23z m213 2 c2 -12 -3 -17 -17 -17 -12 0 -21 6 -21 13 0
31 32 34 38 4z m-548 -2 c-7 -9 -15 -13 -17 -11 -7 7 7 26 19 26 6 0 6 -6 -2
-15z m747 -21 c45 -29 57 -104 23 -146 -48 -61 -142 -59 -180 5 -24 39 -25 70
-3 108 33 56 103 71 160 33z m-489 -1 c-2 -10 -10 -18 -18 -18 -8 0 -16 8 -18
18 -2 12 3 17 18 17 15 0 20 -5 18 -17z m212 -7 c40 -14 75 -27 78 -30 3 -4
-3 -32 -13 -64 -29 -90 -35 -132 -19 -132 7 0 18 9 24 21 16 29 55 22 55 -11
0 -22 -4 -25 -33 -25 -37 0 -57 -23 -47 -55 4 -13 -1 -22 -17 -31 -34 -18 -39
-31 -22 -56 15 -24 6 -31 -14 -11 -20 20 -14 56 13 74 24 16 24 17 8 45 -10
16 -23 29 -30 29 -7 0 -25 16 -40 35 -30 38 -77 50 -71 18 3 -19 28 -31 28
-13 0 6 -4 8 -10 5 -5 -3 -10 -1 -10 4 0 14 27 14 36 0 3 -6 0 -18 -9 -26 -11
-12 -19 -13 -36 -4 -37 20 -21 71 23 71 11 0 37 -18 58 -41 43 -47 62 -47 66
2 4 44 -12 58 -96 89 -55 20 -62 25 -56 44 16 54 34 86 48 86 8 0 46 -11 86
-24z m-2320 -48 c-25 -26 -50 -78 -50 -106 0 -10 9 -34 19 -55 20 -40 12 -51
-11 -14 -23 34 -28 70 -17 109 10 37 65 106 75 95 3 -3 -4 -16 -16 -29z m1920
7 c8 -22 12 -24 29 -13 24 15 39 4 23 -15 -14 -16 -6 -27 20 -27 23 0 23 -9 1
-26 -17 -12 -17 -14 2 -28 20 -16 20 -16 -3 -22 -18 -5 -22 -12 -18 -29 7 -27
-3 -39 -20 -24 -11 9 -16 5 -25 -17 -10 -28 -11 -29 -25 -9 -14 19 -16 19 -25
3 -13 -24 -29 -23 -29 2 0 23 -10 26 -28 8 -16 -16 -28 -2 -13 16 15 18 6 37
-13 30 -8 -3 -17 0 -21 6 -4 7 1 14 13 17 23 6 19 33 -5 33 -8 0 -13 6 -10 13
2 6 11 11 21 9 19 -3 21 19 4 36 -17 17 0 28 22 14 21 -13 33 -2 24 22 -4 11
-1 16 10 16 9 0 16 -7 16 -15 0 -22 18 -18 25 5 8 26 14 25 25 -5z m-1799
-126 c21 -73 42 -136 47 -141 5 -5 27 0 53 11 44 20 99 28 99 14 0 -8 -137
-68 -154 -68 -15 0 -113 304 -102 315 5 5 12 8 14 5 2 -2 22 -63 43 -136z
m528 82 c1 -11 -4 -10 -19 4 -23 21 -26 41 -7 48 11 4 24 -21 26 -52z m1416
49 c3 -5 -1 -10 -10 -10 -9 0 -13 5 -10 10 3 6 8 10 10 10 2 0 7 -4 10 -10z
m54 -58 c-9 -38 -23 -61 -52 -89 l-40 -38 7 55 c3 30 6 65 6 77 0 16 10 25 43
36 23 8 43 13 45 12 1 -1 -3 -25 -9 -53z m35 -6 c-3 -9 -10 -16 -15 -16 -11 0
-12 21 -3 45 6 15 8 15 16 2 4 -8 5 -22 2 -31z m-394 13 c0 -22 -66 -96 -77
-86 -3 4 8 19 24 34 17 16 33 38 37 51 9 28 16 28 16 1z m-1765 -64 c0 -63 -2
-73 -12 -58 -16 20 -17 87 -3 114 6 10 12 19 13 19 1 0 2 -34 2 -75z m635 45
c6 -11 7 -20 3 -20 -5 0 -14 9 -21 20 -7 11 -8 20 -2 20 5 0 14 -9 20 -20z
m560 -149 c0 -103 -4 -172 -10 -176 -7 -4 -10 55 -10 169 0 111 4 176 10 176
6 0 10 -63 10 -169z m-483 143 c3 -8 -2 -23 -11 -32 -16 -16 -18 -16 -31 2
-11 14 -12 23 -4 33 15 18 38 16 46 -3z m-687 -68 c-14 -14 -23 20 -15 52 l8
27 8 -35 c4 -19 4 -39 -1 -44z m2289 35 c11 -7 21 -16 21 -22 0 -5 -13 0 -29
12 -16 12 -34 19 -39 15 -5 -3 -15 1 -22 9 -10 12 -7 13 18 6 16 -5 39 -14 51
-20z m106 0 c7 -12 -12 -24 -25 -16 -11 7 -4 25 10 25 5 0 11 -4 15 -9z
m-2305 -98 c18 -54 38 -104 44 -111 10 -10 23 -8 67 13 31 13 71 27 90 30 33
5 33 5 -6 -9 -22 -7 -65 -25 -95 -39 -43 -21 -57 -24 -67 -14 -10 11 -73 199
-73 219 0 24 12 -2 40 -89z m546 86 c3 -6 -1 -18 -10 -27 -15 -15 -16 -14 -16
11 0 27 13 36 26 16z m1014 -30 c0 -11 7 -22 15 -25 8 -4 15 -11 15 -16 0 -6
-8 -7 -17 -3 -10 4 -29 9 -42 10 -39 5 -51 34 -25 59 20 20 54 4 54 -25z m459
0 c-27 -21 -19 -25 13 -8 16 9 19 8 16 -3 -3 -7 -20 -13 -39 -14 -19 -1 -43
-5 -54 -9 -14 -6 -11 2 13 27 24 26 40 34 54 30 20 -5 20 -5 -3 -23z m-379 11
c0 -5 -4 -10 -10 -10 -5 0 -10 5 -10 10 0 6 5 10 10 10 6 0 10 -4 10 -10z
m-1032 -13 c6 -7 9 -23 5 -35 -4 -17 -1 -22 15 -22 12 0 26 -10 33 -21 16 -31
-3 -69 -35 -69 -32 0 -51 32 -36 60 9 17 7 22 -15 32 -24 11 -34 45 -18 61 11
11 40 8 51 -6z m1027 -17 c3 -5 -3 -10 -14 -10 -11 0 -23 5 -26 10 -3 6 3 10
14 10 11 0 23 -4 26 -10z m-1695 -30 c0 -11 -4 -20 -10 -20 -5 0 -10 -4 -10
-10 0 -5 7 -10 15 -10 13 0 14 -4 5 -20 -14 -26 -29 -25 -40 3 -6 15 -9 17 -9
6 -1 -21 17 -36 49 -42 19 -3 15 -5 -12 -6 -46 -1 -64 23 -47 66 20 53 59 75
59 33z m2596 10 c43 -17 15 -33 -58 -34 -78 -2 -145 -37 -185 -97 -14 -21 -30
-39 -35 -39 -6 0 -2 12 7 27 10 15 18 36 19 46 1 28 67 78 123 93 60 16 94 17
129 4z m-2046 -25 c0 -12 -14 -15 -64 -15 -35 0 -72 -3 -82 -7 -12 -4 -15 -3
-10 5 18 29 156 44 156 17z m1154 -2 c4 -9 2 -21 -4 -27 -8 -8 -9 -6 -5 7 10
23 3 22 -29 -8 -31 -29 -46 -32 -46 -8 0 42 70 73 84 36z m426 13 c0 -11 -19
-15 -25 -6 -3 5 1 10 9 10 9 0 16 -2 16 -4z m-546 -21 c-17 -13 -17 -14 -1
-15 23 0 22 -22 -2 -37 -18 -12 -20 -9 -19 27 0 34 4 40 21 40 20 0 20 0 1
-15z m-974 -16 c0 -12 -49 -43 -57 -36 -3 4 2 9 11 13 9 3 16 15 16 25 0 12 5
16 15 13 8 -4 15 -10 15 -15z m-686 -4 c-10 -25 22 -62 63 -73 38 -10 38 -10
7 -11 -43 -1 -84 32 -84 70 0 16 4 29 10 29 5 0 7 -7 4 -15z m2014 -2 c-2 -10
-14 -23 -28 -31 -25 -13 -24 -13 8 -7 25 5 32 3 32 -9 0 -23 -12 -28 -195 -77
-145 -40 -171 -44 -179 -31 -12 20 -6 23 160 67 81 22 142 41 137 42 -5 2 -74
-15 -153 -36 -107 -30 -146 -37 -152 -28 -4 6 -4 15 1 20 7 7 341 105 364 106
5 1 7 -7 5 -16z m174 -3 c0 -11 1 -25 2 -30 1 -6 -26 -28 -59 -50 -56 -37 -60
-39 -67 -20 -4 11 -14 23 -22 26 -8 3 -12 13 -9 24 3 10 0 21 -6 24 -8 5 -8
13 -1 27 9 16 22 19 85 19 68 0 75 -2 77 -20z m124 -6 c-11 -7 -22 -12 -25 -9
-2 3 4 12 15 19 10 8 21 12 24 9 3 -2 -4 -11 -14 -19z m-1723 9 c-13 -2 -35
-2 -50 0 -16 2 -5 4 22 4 28 0 40 -2 28 -4z m-153 -18 c0 -8 -9 -15 -20 -15
-20 0 -26 11 -13 23 12 13 33 7 33 -8z m483 -36 c4 -15 12 -19 34 -17 24 3 28
0 25 -19 -2 -14 4 -26 17 -33 24 -13 28 -30 6 -30 -8 0 -15 -7 -15 -15 0 -8 5
-15 10 -15 6 0 10 -7 10 -15 0 -10 -7 -15 -17 -13 -13 2 -17 -3 -16 -19 3 -25
-16 -30 -35 -11 -10 10 -14 8 -18 -10 -8 -27 -30 -29 -37 -2 -5 20 -27 28 -27
10 0 -5 -7 -10 -16 -10 -10 0 -14 7 -12 23 2 16 -3 23 -19 25 -27 4 -27 5 -10
33 10 17 10 23 0 26 -20 7 -15 27 10 38 12 6 22 17 23 25 2 30 4 32 20 19 14
-12 19 -11 33 8 20 28 27 28 34 2z m542 -27 c-3 -3 -15 3 -27 14 l-23 19 22
-25 c17 -20 19 -27 8 -37 -10 -9 -16 -8 -29 6 -18 19 -18 37 -1 57 8 9 15 7
32 -9 13 -11 21 -23 18 -25z m855 -12 c0 -5 -12 -17 -28 -28 l-27 -20 -28 24
c-35 30 -34 37 6 63 l32 21 23 -26 c12 -14 22 -29 22 -34z m-1836 25 c3 -8 1
-15 -3 -15 -5 0 -11 7 -15 15 -3 8 -1 15 3 15 5 0 11 -7 15 -15z m81 5 c7 -12
-12 -40 -26 -40 -10 0 -12 34 -2 43 9 10 21 9 28 -3z m71 -1 c10 -17 -13 -36
-27 -22 -12 12 -4 33 11 33 5 0 12 -5 16 -11z m2010 -36 c10 -28 11 -48 5 -65
-9 -21 -10 -21 -11 -3 -1 18 -2 17 -15 -5 l-14 -25 -10 25 c-8 21 -10 22 -11
5 -1 -19 -1 -19 -11 -1 -10 17 -1 72 19 109 10 19 35 -1 48 -40z m-1968 12
c-3 -3 -9 2 -12 12 -6 14 -5 15 5 6 7 -7 10 -15 7 -18z m1698 -2 c-10 -10 -19
5 -10 18 6 11 8 11 12 0 2 -7 1 -15 -2 -18z m-2016 -2 c-5 -11 -15 -23 -20
-26 -14 -9 -12 19 2 33 19 19 30 14 18 -7z m1274 -6 c13 -34 19 -118 8 -111
-13 8 -32 70 -32 104 0 25 15 30 24 7z m-1324 -15 c8 -15 6 -24 -10 -40 -25
-25 -35 -25 -54 2 -11 15 -12 26 -5 40 13 24 55 23 69 -2z m1294 -22 c4 -24 9
-53 13 -65 4 -18 1 -23 -15 -23 -27 0 -40 18 -48 69 -5 32 -3 45 7 52 26 17
36 9 43 -33z m435 33 c7 -5 9 -11 4 -14 -5 -3 -87 -26 -182 -52 -138 -37 -176
-43 -182 -33 -5 7 -9 15 -9 18 0 6 308 88 335 89 11 0 26 -3 34 -8z m-1635
-17 c9 -22 -3 -32 -14 -14 -12 19 -12 30 -1 30 5 0 12 -7 15 -16z m36 -5 c0
-6 -4 -7 -10 -4 -5 3 -10 11 -10 16 0 6 5 7 10 4 6 -3 10 -11 10 -16z m70 -10
c0 -26 16 -24 36 6 15 24 44 35 44 17 0 -5 -13 -21 -30 -37 -28 -27 -30 -27
-55 -11 -24 16 -32 36 -19 49 11 10 24 -3 24 -24z m905 -15 c-33 -33 -26 -122
13 -157 9 -8 29 -18 44 -22 21 -5 30 -2 40 14 12 20 13 20 35 -7 l23 -27 30
35 c32 37 37 36 18 -5 -13 -29 -53 -43 -77 -28 -10 6 -26 7 -39 2 -45 -17
-108 32 -121 93 -8 38 2 98 19 108 9 5 9 9 1 14 -6 4 -11 12 -11 18 0 6 9 3
20 -7 16 -15 17 -19 5 -31z m-667 9 c-3 -27 -6 -28 -64 -31 -65 -3 -90 10 -78
42 5 13 21 16 76 16 l69 0 -3 -27z m803 -43 c17 -75 13 -87 -13 -42 -23 39
-34 112 -16 112 8 0 19 -26 29 -70z m-42 10 c14 -67 14 -68 -9 -80 -47 -25
-81 69 -40 110 30 30 37 25 49 -30z m669 38 c21 -21 13 -32 -9 -12 -20 18 -21
18 -35 0 -7 -11 -17 -17 -20 -13 -10 10 16 37 35 37 9 0 22 -5 29 -12z m55 -8
c26 -20 26 -21 10 -63 -19 -53 -12 -101 22 -147 32 -43 23 -52 -15 -15 -28 27
-44 61 -53 115 -4 24 -4 24 -6 -2 0 -16 -5 -28 -11 -28 -16 0 -12 68 6 101 8
17 13 37 10 45 -8 20 7 17 37 -6z m192 6 c58 -25 86 -107 59 -175 -24 -59 -41
-53 -46 17 -2 31 0 59 4 60 18 8 7 61 -14 76 -31 22 -45 20 -73 -9 -31 -30
-32 -58 -3 -97 21 -30 21 -30 0 -19 -11 6 -26 26 -32 45 -16 51 14 103 68 115
1 1 18 -5 37 -13z m-2007 -96 c-3 -32 -6 -35 -36 -38 -63 -6 -81 40 -40 106
l21 35 29 -34 c21 -25 27 -43 26 -69z m792 75 c52 0 106 3 120 5 40 8 33 -31
-10 -52 -41 -21 -178 -25 -229 -7 -59 21 -66 77 -8 62 18 -4 75 -8 127 -8z
m-1020 -2 c0 -13 -52 -73 -64 -73 -16 0 -78 65 -70 73 9 9 134 9 134 0z m1888
-16 c4 -20 -25 -34 -40 -19 -15 15 -1 44 19 40 10 -2 19 -11 21 -21z m343 13
c19 -11 26 -50 12 -64 -5 -4 -9 -31 -9 -59 -1 -29 -6 -70 -12 -92 -10 -35 -10
-30 -6 38 6 77 -3 107 -29 107 -5 0 -2 -9 8 -20 16 -17 16 -20 2 -20 -19 0
-47 37 -47 62 0 20 34 58 51 58 6 0 19 -5 30 -10z m-257 -38 c-7 -15 -14 -34
-14 -42 0 -13 -2 -13 -9 -1 -11 17 -6 48 10 67 19 23 29 6 13 -24z m115 -1
c-15 -43 -6 -103 21 -141 24 -34 11 -41 -20 -10 -44 44 -51 106 -19 159 24 40
33 36 18 -8z m-1788 6 c-13 -13 -26 -3 -16 12 3 6 11 8 17 5 6 -4 6 -10 -1
-17z m-417 -14 c19 -25 19 -26 1 -39 -29 -22 -35 -17 -35 26 0 46 8 49 34 13z
m386 19 c0 -13 -12 -22 -22 -16 -10 6 -1 24 13 24 5 0 9 -4 9 -8z m142 -4 c-9
-9 -15 -9 -24 0 -9 9 -7 12 12 12 19 0 21 -3 12 -12z m81 -18 c5 -21 14 -31
32 -36 30 -8 50 7 41 31 -5 13 -10 14 -28 4 -22 -11 -22 -10 -6 6 33 35 75
-10 43 -45 -22 -25 -46 -25 -73 -2 -23 18 -41 72 -24 72 5 0 12 -13 15 -30z
m-482 -2 c1 -22 1 -22 9 2 7 22 8 21 9 -12 1 -43 -18 -51 -51 -21 -17 15 -17
17 -2 35 23 24 34 23 35 -4z m329 12 c0 -5 -4 -10 -10 -10 -5 0 -10 5 -10 10
0 6 5 10 10 10 6 0 10 -4 10 -10z m-256 -6 c23 -9 20 -27 -4 -21 -30 8 -24 -8
8 -20 24 -9 25 -11 8 -18 -12 -5 -21 -3 -28 6 -8 12 -9 11 -5 -1 2 -8 16 -16
30 -18 29 -4 33 -12 16 -29 -7 -7 -20 -6 -43 5 -28 13 -32 19 -28 46 7 58 12
63 46 50z m1691 -4 c-3 -5 -14 -10 -23 -9 -14 0 -13 2 3 9 27 11 27 11 20 0z
m600 -20 c0 -20 -6 -26 -26 -28 -19 -2 -28 2 -31 15 -8 30 2 44 31 41 20 -2
26 -8 26 -28z m-1961 -12 c-3 -5 -12 -4 -20 3 -7 6 -11 15 -8 21 3 5 12 4 20
-3 7 -6 11 -15 8 -21z m544 11 c38 -7 75 -7 128 1 80 12 90 10 80 -15 -23 -62
-274 -65 -307 -4 -13 26 -2 42 25 35 11 -4 45 -11 74 -17z m737 1 c49 -30 58
-63 50 -174 -7 -92 -8 -96 -31 -96 -13 0 -24 4 -24 9 0 21 -113 132 -128 126
-8 -3 -30 4 -50 15 -67 40 -42 12 32 -36 42 -26 74 -50 72 -52 -3 -3 -164 74
-174 83 -2 2 6 13 17 24 23 23 44 19 71 -13 7 -9 18 -16 24 -16 6 1 -5 14 -24
31 l-35 30 50 44 c58 51 97 58 150 25z m-1399 -17 c-10 -10 -19 5 -10 18 6 11
8 11 12 0 2 -7 1 -15 -2 -18z m-316 -8 l23 -25 -68 0 -68 0 19 21 c10 11 26
18 36 16 10 -3 21 -1 24 4 7 12 7 12 34 -16z m360 15 c0 -5 -4 -10 -10 -10 -5
0 -10 5 -10 10 0 6 5 10 10 10 6 0 10 -4 10 -10z m920 -44 c-1 -20 -1 -20 -20
3 -11 13 -20 30 -20 39 0 13 3 12 20 -3 11 -10 20 -28 20 -39z m1220 29 c21
-39 0 -75 -43 -75 -43 0 -67 36 -49 75 16 36 73 36 92 0z m-2015 5 c-3 -5 -13
-10 -21 -10 -8 0 -14 5 -14 10 0 6 9 10 21 10 11 0 17 -4 14 -10z m1480 -41
l50 -50 -30 -26 c-16 -14 -60 -52 -98 -85 -50 -45 -72 -58 -87 -53 -11 3 -21
12 -21 18 -3 27 3 183 7 200 7 24 52 46 94 47 30 0 44 -8 85 -51z m172 31 c17
-26 6 -55 -13 -39 -15 12 -20 59 -6 59 4 0 13 -9 19 -20z m-1727 6 c0 -3 -4
-8 -10 -11 -5 -3 -10 -1 -10 4 0 6 5 11 10 11 6 0 10 -2 10 -4z m238 -8 c19
-19 14 -38 -10 -37 -17 1 -19 2 -5 6 21 5 23 23 2 23 -8 0 -15 5 -15 10 0 14
13 13 28 -2z m192 5 c-1 -10 -50 -46 -50 -37 0 11 32 44 42 44 4 0 8 -3 8 -7z
m-515 -13 c-3 -5 -11 -10 -17 -10 -20 0 -68 -42 -85 -73 -9 -18 -20 -48 -24
-67 -7 -30 -8 -28 -5 16 3 60 30 104 78 127 37 19 62 22 53 7z m275 -14 c0
-31 28 -40 85 -26 61 15 85 5 85 -34 0 -12 5 -27 12 -34 9 -9 9 -15 0 -24 -8
-8 -14 0 -24 35 -13 51 -19 54 -80 37 -38 -11 -73 -1 -90 24 -11 16 -10 36 2
36 6 0 10 -6 10 -14z m-154 -11 c18 -14 16 -15 -26 -10 -36 4 -39 3 -14 -4 45
-12 54 -19 54 -45 0 -20 -7 -25 -41 -30 -26 -4 -52 -17 -69 -35 -23 -22 -30
-25 -34 -14 -9 22 1 33 48 53 22 10 35 19 28 19 -24 2 -82 -31 -93 -52 -6 -10
-8 -34 -5 -51 5 -29 5 -30 -9 -12 -8 11 -15 27 -15 36 0 18 26 57 55 83 20 18
20 18 -2 8 -24 -12 -63 -62 -63 -82 0 -9 -3 -10 -11 -2 -28 28 47 122 100 124
20 1 22 2 6 6 -25 7 -74 -21 -99 -54 -10 -14 -21 -45 -24 -70 -3 -30 -8 -40
-13 -31 -25 40 17 134 73 161 42 21 128 22 154 2z m92 3 c21 -21 14 -57 -12
-64 -32 -8 -46 2 -46 30 0 24 17 46 35 46 6 0 16 -5 23 -12z m292 -13 c-13
-14 -26 -23 -28 -20 -7 7 29 45 41 45 6 0 0 -11 -13 -25z m134 3 c47 -10 120
-7 194 8 25 5 32 3 32 -10 0 -62 -244 -82 -301 -25 -22 22 -15 53 10 44 9 -3
38 -11 65 -17z m-883 -8 c23 0 49 -42 49 -80 0 -44 -24 -65 -66 -57 -13 2 -24
0 -24 -4 0 -5 5 -9 10 -9 6 0 22 -11 35 -25 19 -18 25 -35 25 -69 0 -37 -5
-48 -31 -70 -55 -47 -111 -46 -155 1 -17 18 -24 38 -24 65 0 50 13 74 49 93
27 13 29 18 24 55 -8 59 40 119 85 104 8 -2 18 -4 23 -4z m78 -11 c-11 -8 -10
-12 5 -24 16 -12 17 -15 4 -15 -26 0 -43 27 -28 45 7 8 17 12 22 9 6 -4 5 -10
-3 -15z m2247 4 c30 -40 10 -83 -38 -83 -39 0 -63 38 -47 74 15 31 64 36 85 9z
m-1571 -23 c-10 -11 -20 -18 -23 -15 -7 6 18 35 31 35 5 0 2 -9 -8 -20z m1385
-25 c0 -25 -4 -45 -10 -45 -5 0 -10 20 -10 45 0 25 5 45 10 45 6 0 10 -20 10
-45z m-1380 -5 c-32 -24 -40 -16 -9 9 13 11 26 17 29 14 3 -2 -6 -13 -20 -23z
m415 17 c21 -16 15 -61 -11 -71 -39 -15 -73 41 -42 72 16 16 30 15 53 -1z
m-1315 -38 c29 -40 31 -59 7 -59 -15 0 -57 61 -57 83 0 28 18 19 50 -24z m800
25 c11 -11 44 -163 37 -170 -2 -2 -46 -6 -98 -7 -80 -2 -102 -7 -146 -30 -29
-15 -55 -27 -58 -27 -2 0 -23 35 -44 79 -37 73 -39 80 -23 94 53 45 165 78
255 73 38 -2 73 -8 77 -12z m1730 -7 c0 -23 -17 -47 -32 -47 -10 0 -11 54 -1
63 14 15 33 6 33 -16z m-1580 5 c0 -5 -11 -14 -25 -20 -39 -18 -48 -92 -11
-92 10 0 13 6 10 15 -7 17 11 21 21 5 8 -13 -13 -40 -31 -40 -21 0 -44 30 -44
56 0 15 12 38 29 55 29 28 51 37 51 21z m1140 0 c0 -5 -17 -16 -37 -26 l-38
-17 30 25 c31 26 45 32 45 18z m-700 -28 c0 -8 -4 -12 -10 -9 -5 3 -10 13 -10
21 0 8 5 12 10 9 6 -3 10 -13 10 -21z m40 10 c0 -8 -4 -12 -10 -9 -5 3 -10 10
-10 16 0 5 5 9 10 9 6 0 10 -7 10 -16z m50 -5 c-7 -11 -14 -18 -17 -15 -8 8 5
36 17 36 7 0 7 -6 0 -21z m-300 -1 c0 -11 -98 -20 -140 -13 -76 13 -53 25 44
23 53 -2 96 -6 96 -10z m379 -10 c22 -12 38 -24 36 -27 -3 -2 -11 1 -17 7 -17
17 -38 15 -60 -5 -11 -10 -18 -12 -18 -4 0 6 7 14 15 17 12 5 13 10 4 20 -16
19 -8 18 40 -8z m561 13 c0 -5 -37 -28 -82 -51 -92 -47 -93 -41 -3 19 60 39
85 49 85 32z m-1650 -15 c0 -2 -11 -11 -25 -20 -28 -19 -33 -15 -9 8 14 15 34
22 34 12z m496 -33 c18 -18 23 -28 14 -31 -7 -3 -17 3 -22 12 -5 9 -21 16 -35
16 -21 0 -24 2 -13 15 17 21 25 19 56 -12z m394 17 c0 -5 -4 -10 -10 -10 -5 0
-10 5 -10 10 0 6 5 10 10 10 6 0 10 -4 10 -10z m111 -11 c50 -50 -9 -132 -70
-98 -36 20 -42 80 -9 103 30 22 54 20 79 -5z m874 -9 c18 -9 31 -25 33 -38 4
-25 4 -25 -88 -1 -43 11 -130 12 -130 1 0 -4 10 -12 23 -17 26 -12 30 -53 6
-68 -11 -7 -23 -2 -47 23 -18 18 -32 33 -30 35 2 1 12 7 23 14 34 20 -53 2
-102 -21 -66 -31 -142 -132 -143 -191 0 -10 -5 -15 -10 -12 -15 10 -2 73 26
122 31 54 94 108 169 145 55 27 67 29 150 26 54 -2 102 -9 120 -18z m-775 -12
c0 -19 -2 -20 -10 -8 -13 19 -13 30 0 30 6 0 10 -10 10 -22z m950 1 c7 -11 9
-32 6 -46 -6 -21 -11 -24 -44 -21 -32 3 -37 7 -40 31 -5 43 4 57 37 57 21 0
34 -7 41 -21z m-1636 -58 c19 -20 12 -28 -10 -13 -16 10 -34 48 -33 69 0 13 4
11 12 -9 7 -14 21 -36 31 -47z m406 49 c11 -11 24 -20 29 -20 17 0 23 -20 11
-36 -10 -10 -16 -11 -26 -3 -8 6 -26 8 -44 4 -29 -6 -30 -5 -28 22 1 16 -1 34
-6 41 -13 21 42 14 64 -8z m-1052 -19 c5 -30 -8 -42 -35 -35 -27 7 -37 32 -22
51 18 21 53 12 57 -16z m1107 19 c3 -5 -3 -10 -15 -10 -12 0 -18 5 -15 10 3 6
10 10 15 10 5 0 12 -4 15 -10z m-293 -22 c-7 -7 -12 -8 -12 -2 0 14 12 26 19
19 2 -3 -1 -11 -7 -17z m164 -5 c-9 -44 6 -59 43 -43 32 13 57 6 32 -9 -7 -5
-13 -12 -12 -17 0 -5 -7 -8 -15 -8 -12 2 -12 -1 -2 -14 11 -13 10 -14 -16 -8
-20 5 -34 2 -47 -10 -17 -15 -19 -15 -19 -1 0 8 -6 17 -12 20 -9 3 -7 9 7 20
17 13 18 18 7 41 -17 37 -16 51 3 36 12 -10 15 -10 15 4 0 9 5 16 11 16 6 0 8
-11 5 -27z m459 18 c3 -5 1 -12 -5 -16 -5 -3 -10 1 -10 9 0 18 6 21 15 7z
m603 -17 c27 -6 29 -8 19 -25 -19 -30 -77 -20 -91 16 -6 17 18 20 72 9z
m-1255 -22 c22 -25 13 -32 -26 -21 -40 11 -37 12 -37 -5 0 -15 -27 -29 -40
-21 -12 7 -1 37 18 53 23 18 66 15 85 -6z m507 -4 c0 -13 -23 -5 -28 10 -2 7
2 10 12 6 9 -3 16 -11 16 -16z m135 -3 c16 -15 25 -36 25 -55 0 -23 4 -30 20
-30 11 0 20 -4 20 -10 0 -5 -14 -10 -31 -10 -29 0 -31 2 -25 28 5 23 3 22 -14
-9 -11 -20 -42 -54 -70 -74 -29 -21 -56 -49 -61 -63 -12 -31 -3 -80 20 -107
10 -13 7 -12 -12 4 -22 20 -27 33 -27 68 0 38 6 50 55 103 53 58 66 80 45 80
-5 0 -10 -9 -10 -20 0 -15 -12 -26 -42 -39 -59 -25 -80 -52 -86 -109 -9 -96
53 -165 150 -166 26 -1 48 -4 48 -8 0 -13 -89 -9 -124 6 -51 21 -89 78 -93
139 -5 70 18 116 74 142 40 19 42 22 36 53 -10 61 57 98 91 50 9 -12 16 -18
16 -14 0 5 -7 18 -17 28 -37 41 -103 6 -103 -54 l0 -33 -56 4 c-61 3 -57 21 4
21 26 0 32 4 32 21 0 29 53 79 85 79 14 0 37 -11 50 -25z m-1297 -1 c12 -8 22
-22 22 -30 0 -12 -5 -11 -26 5 -15 12 -32 21 -39 21 -7 0 -24 -9 -39 -21 -30
-24 -35 -8 -6 21 24 24 57 26 88 4z m790 -9 c9 -20 8 -26 -5 -34 -15 -8 -15
-11 -3 -28 14 -17 13 -17 -8 1 -12 11 -22 29 -22 41 0 11 -5 26 -12 33 -9 9
-6 12 13 12 18 0 29 -8 37 -25z m567 15 c-3 -5 -13 -10 -21 -10 -8 0 -12 5 -9
10 3 6 13 10 21 10 8 0 12 -4 9 -10z m673 -27 c18 -14 47 -44 64 -67 24 -33
29 -48 25 -78 -3 -21 -1 -40 3 -43 12 -7 8 -47 -5 -61 -39 -40 -103 -8 -90 44
8 34 6 32 45 37 43 5 48 13 16 21 -30 7 -30 8 -14 33 15 25 3 51 -24 50 l-23
0 23 -9 c21 -9 32 -40 13 -40 -5 0 -33 20 -62 45 -29 25 -56 45 -61 45 -4 0
-8 11 -8 24 0 43 40 42 98 -1z m-1907 -23 c10 -22 16 -40 14 -40 -5 0 -45 76
-45 86 0 14 13 -6 31 -46z m2094 18 c20 -23 25 -38 20 -57 -10 -38 -24 -51
-54 -50 -25 0 -25 1 -4 9 47 19 50 95 3 107 -23 6 -27 23 -6 23 8 0 26 -14 41
-32z m-1220 12 c-3 -5 -10 -10 -16 -10 -5 0 -9 5 -9 10 0 6 7 10 16 10 8 0 12
-4 9 -10z m475 -6 c11 -12 11 -18 -1 -30 -13 -12 -18 -12 -34 0 -16 12 -17 16
-6 30 17 20 25 20 41 0z m290 -4 c24 -24 25 -48 4 -78 -31 -45 -114 -18 -114
37 0 23 41 61 67 61 13 0 32 -9 43 -20z m-1899 -23 c-16 -16 -26 0 -10 19 9
11 15 12 17 4 2 -6 -1 -17 -7 -23z m120 23 c10 -6 19 -18 19 -27 0 -15 -2 -15
-18 0 -23 21 -31 21 -54 0 -16 -15 -18 -15 -18 0 0 15 25 36 43 37 5 0 17 -5
28 -10z m754 0 c-3 -5 -16 -10 -28 -10 -18 0 -19 2 -7 10 20 13 43 13 35 0z
m905 -17 c-67 -88 -79 -108 -86 -146 -5 -33 -8 -38 -14 -22 -16 46 29 138 87
176 37 25 39 24 13 -8z m-1135 -39 c-39 -61 -141 -83 -222 -49 -48 20 -39 25
22 13 71 -14 130 3 175 51 38 40 55 30 25 -15z m1405 46 c-8 -5 -22 -10 -30
-10 -8 0 -26 -9 -40 -20 -14 -11 -32 -19 -40 -19 -8 0 -5 4 7 9 12 5 28 18 35
30 9 14 23 20 48 20 26 0 31 -3 20 -10z m280 -5 c19 -23 8 -26 -19 -4 -16 13
-18 19 -8 19 8 0 20 -7 27 -15z m-2091 -30 c6 -19 24 -44 39 -56 l27 -22 -25
6 -25 6 24 -20 c21 -17 21 -19 4 -19 -10 0 -24 5 -31 12 -9 9 -12 9 -12 0 0
-6 12 -18 28 -26 l27 -15 -27 -1 c-30 0 -94 52 -84 68 3 6 2 14 -4 17 -13 8
-4 41 18 65 24 26 26 24 41 -15z m301 25 c21 -7 18 -8 -20 -9 -25 -1 -75 -12
-112 -25 -38 -13 -68 -22 -68 -20 0 7 85 47 115 55 38 9 54 9 85 -1z m264 -6
c19 -19 20 -25 4 -59 -7 -15 -19 -25 -32 -25 -30 0 -66 27 -66 50 0 21 35 50
62 50 9 0 24 -7 32 -16z m481 6 c3 -5 -3 -10 -14 -10 -12 0 -21 5 -21 10 0 6
6 10 14 10 8 0 18 -4 21 -10z m230 0 c3 -5 -3 -10 -15 -10 -12 0 -18 5 -15 10
3 6 10 10 15 10 5 0 12 -4 15 -10z m-327 -12 c7 -7 12 -21 12 -33 0 -11 9 -26
20 -33 26 -16 25 -26 -2 -52 -34 -31 -92 -27 -129 9 -33 33 -36 56 -13 89 28
41 101 21 92 -25 -2 -10 -12 -19 -23 -21 -16 -3 -18 -1 -7 9 19 21 14 39 -12
39 -37 0 -51 -24 -36 -60 17 -41 86 -56 98 -22 3 11 1 11 -16 1 -29 -18 -42 0
-14 18 24 17 30 61 10 81 -7 7 -8 12 -2 12 6 0 15 -5 22 -12z m-1081 -29 c2
-22 2 -22 -6 -4 -8 19 -9 18 -16 -7 -4 -16 -11 -28 -15 -28 -7 0 -5 23 6 58 6
21 29 8 31 -19z m758 21 c-3 -5 -13 -10 -21 -10 -8 0 -12 5 -9 10 3 6 13 10
21 10 8 0 12 -4 9 -10z m695 -7 c0 -10 3 -28 6 -40 4 -14 2 -23 -5 -23 -6 0
-11 8 -12 18 0 14 -3 12 -17 -8 -9 -13 -30 -39 -46 -57 -23 -27 -27 -39 -22
-65 13 -65 -51 -101 -117 -67 -30 16 -37 28 -37 65 0 42 39 78 77 71 15 -3 37
-7 48 -9 14 -2 31 14 65 64 46 69 60 81 60 51z m553 -23 c54 -47 56 -113 5
-167 -26 -28 -79 -39 -116 -24 -56 24 -89 110 -61 162 15 29 69 59 106 59 22
0 44 -10 66 -30z m-1219 7 c11 -10 10 -15 -1 -25 -18 -18 -46 6 -29 25 14 16
15 16 30 0z m161 -32 c1 -53 -18 -60 -60 -21 -31 29 -26 46 15 46 16 0 32 5
35 10 9 15 10 13 10 -35z m715 -27 c-16 -14 -32 -38 -36 -52 -8 -33 -24 -34
-24 -2 0 34 18 77 43 104 l21 23 12 -23 c11 -20 9 -26 -16 -50z m565 63 c7
-12 -12 -24 -25 -16 -11 7 -4 25 10 25 5 0 11 -4 15 -9z m-1790 -11 c-3 -5
-17 -10 -31 -10 -14 0 -22 4 -19 10 3 6 17 10 31 10 14 0 22 -4 19 -10z m-837
-44 c-4 -73 46 -108 100 -70 12 8 22 11 22 5 0 -16 -42 -41 -68 -41 -34 0 -82
52 -82 88 0 36 9 62 21 62 5 0 8 -20 7 -44z m978 15 c-11 -17 -25 -13 -21 7 2
9 4 19 4 22 1 2 6 -1 12 -7 6 -6 8 -16 5 -22z m954 19 c0 -5 -2 -10 -4 -10 -3
0 -8 5 -11 10 -3 6 -1 10 4 10 6 0 11 -4 11 -10z m-1480 -5 c0 -2 -13 -11 -30
-20 -16 -9 -30 -21 -30 -27 0 -6 9 -3 19 6 11 10 26 16 34 14 9 -2 3 -10 -17
-24 -27 -17 -34 -18 -44 -7 -10 10 -8 18 12 38 22 22 56 34 56 20z m-114 -39
c28 -28 34 -41 34 -77 0 -61 -29 -105 -79 -120 -69 -21 -132 13 -152 81 -23
76 35 150 118 150 38 0 50 -5 79 -34z m1424 19 c7 -8 8 -15 2 -15 -5 0 -15 7
-22 15 -7 8 -8 15 -2 15 5 0 15 -7 22 -15z m138 -12 c5 -16 13 -36 17 -45 4
-10 3 -18 -3 -18 -6 0 -15 12 -20 28 -5 15 -13 35 -17 45 -4 9 -3 17 3 17 6 0
15 -12 20 -27z m-1838 -67 c-14 -14 -50 23 -50 49 0 37 12 36 36 -3 14 -22 19
-41 14 -46z m703 26 c25 -24 27 -30 21 -76 -4 -28 -10 -54 -13 -58 -4 -5 -25
1 -46 12 -22 11 -59 20 -82 20 -35 0 -43 3 -43 19 0 23 27 100 40 117 16 18
89 -2 123 -34z m460 29 c6 -6 1 -19 -12 -32 -29 -31 -26 -65 6 -97 20 -19 28
-38 29 -67 2 -51 -8 -69 -45 -85 -37 -15 -74 -7 -101 22 -22 23 -27 58 -9 58
6 0 8 7 5 16 -4 9 -2 13 5 8 7 -4 9 0 5 14 -4 13 -2 24 7 29 28 16 40 52 27
84 -7 16 -16 29 -21 29 -18 0 -8 21 14 30 24 10 76 5 90 -9z m970 -22 c14 -18
15 -24 5 -30 -8 -5 -14 -3 -17 4 -12 40 -82 49 -118 15 -18 -16 -23 -18 -23
-6 0 16 26 43 50 50 27 8 84 -10 103 -33z m-1193 21 c0 -5 -9 -10 -21 -10 -11
0 -17 5 -14 10 3 6 13 10 21 10 8 0 14 -4 14 -10z m744 1 c11 -17 -18 -30 -36
-17 -10 7 -15 16 -11 19 9 10 41 8 47 -2z m135 -36 c17 -20 31 -41 31 -48 -1
-7 -10 -1 -21 13 -11 14 -33 35 -47 47 -20 17 -23 22 -11 23 10 0 31 -16 48
-35z m-1401 9 c12 -8 22 -20 22 -26 0 -6 -9 -3 -19 6 -20 18 -61 14 -61 -6 0
-7 5 -6 15 2 14 12 35 6 35 -10 0 -5 -7 -7 -15 -4 -10 4 -15 0 -15 -15 0 -28
25 -37 61 -24 16 6 29 7 29 2 0 -11 -34 -29 -56 -29 -23 0 -54 29 -54 51 0 9
-5 19 -12 21 -8 3 -4 12 10 26 26 26 31 27 60 6z m524 -54 c4 -30 9 -70 12
-87 l5 -33 -72 6 c-52 4 -84 2 -116 -9 l-44 -16 7 69 c3 38 9 76 12 84 12 30
56 46 124 43 l65 -2 7 -55z m126 32 c14 -21 13 -22 -22 -22 -37 0 -47 15 -24
38 16 16 28 11 46 -16z m136 12 c11 -29 6 -34 -29 -34 -39 0 -42 5 -18 32 20
22 39 23 47 2z m906 -12 c0 -14 -16 -30 -37 -36 -26 -8 -38 7 -18 24 8 7 15
19 15 27 0 11 4 11 20 3 11 -6 20 -14 20 -18z m-845 8 c3 -5 -3 -10 -14 -10
-12 0 -21 5 -21 10 0 6 6 10 14 10 8 0 18 -4 21 -10z m535 -16 c20 -21 22 -27
10 -34 -19 -11 -36 3 -43 35 -6 32 3 32 33 -1z m260 16 c0 -6 -12 -15 -27 -21
-15 -6 -31 -15 -35 -22 -4 -6 -9 -9 -13 -6 -10 10 36 59 56 59 10 0 19 -5 19
-10z m-1081 -24 c12 -15 5 -46 -11 -46 -5 0 -6 9 -3 20 4 11 2 20 -4 20 -6 0
-11 5 -11 10 0 14 16 12 29 -4z m365 3 c14 11 16 11 16 -3 0 -11 7 -16 18 -14
11 2 17 -3 16 -14 -1 -10 4 -18 12 -18 17 0 18 -17 2 -23 -10 -4 -10 -8 0 -15
12 -8 12 -13 0 -31 -7 -12 -18 -19 -25 -17 -7 3 -16 0 -20 -7 -9 -14 -53 -18
-53 -5 0 4 -9 8 -20 8 -12 0 -20 7 -20 16 0 14 2 15 17 3 15 -13 15 -12 2 9
-8 12 -15 18 -17 12 -7 -21 -19 -9 -19 20 0 28 8 35 31 31 5 -1 4 4 -2 12 -14
16 -6 28 14 20 9 -3 14 2 14 13 0 15 2 16 9 5 8 -12 12 -12 25 -2z m96 -5 c0
-8 -4 -12 -10 -9 -5 3 -10 10 -10 16 0 5 5 9 10 9 6 0 10 -7 10 -16z m284 -49
c0 -23 -8 -43 -22 -58 l-23 -22 17 33 c11 23 14 44 9 70 -5 30 -4 35 6 25 7
-7 13 -29 13 -48z m416 36 c0 -15 -28 -33 -40 -26 -8 5 -8 11 1 21 13 15 39
19 39 5z m-1070 -16 c0 -17 -36 -39 -50 -30 -6 3 -10 15 -10 26 0 14 7 19 30
19 20 0 30 -5 30 -15z m150 -2 c0 -10 -4 -24 -9 -32 -11 -17 -45 0 -61 29 -10
18 -7 20 30 20 31 0 40 -4 40 -17z m946 -4 c10 -17 -23 -46 -38 -31 -8 8 -8
15 2 27 15 18 26 19 36 4z m-1742 -39 c22 0 35 -4 31 -10 -18 -29 -115 2 -115
37 0 14 4 13 23 -5 15 -15 36 -22 61 -22z m1336 4 c0 -26 -8 -43 -29 -65 -39
-39 -60 -37 -27 2 14 17 29 43 32 57 13 54 24 56 24 6z m-208 -74 c38 -23 30
-27 -11 -5 -27 13 -61 68 -61 97 0 7 9 -6 20 -29 11 -25 33 -51 52 -63z m438
40 l0 -60 -75 0 -75 0 0 60 0 60 75 0 75 0 0 -60z m205 39 c4 -5 -1 -20 -12
-32 -18 -22 -18 -22 3 -4 30 25 45 21 42 -10 -3 -23 2 -28 28 -33 29 -6 30 -5
26 23 -4 22 -1 28 9 25 8 -3 14 -15 13 -27 -1 -27 21 -27 64 -1 39 24 49 25
31 4 -40 -48 -143 -60 -199 -21 -45 30 -57 51 -41 71 16 19 27 20 36 5z m191
-28 c-10 -16 -23 -14 -30 5 -9 25 4 38 21 21 9 -8 12 -20 9 -26z m-620 -47
c-20 -30 -64 -59 -74 -49 -4 4 -1 10 7 13 27 9 61 51 69 84 l7 33 3 -28 c2
-16 -4 -39 -12 -53z m-1101 40 c14 -9 23 -19 21 -22 -3 -2 -17 3 -32 13 -14 9
-47 21 -73 26 l-46 8 52 -4 c29 -2 64 -12 78 -21z m1683 -10 c-5 -28 -28 -29
-28 -1 0 13 3 27 7 31 10 10 25 -10 21 -30z m-78 -4 c0 -11 -6 -20 -13 -20
-19 0 -27 10 -20 26 8 21 33 17 33 -6z m-1819 0 c10 -6 19 -19 19 -30 0 -16
-26 -40 -44 -40 -8 0 -36 31 -36 40 0 9 28 40 36 40 3 0 14 -5 25 -10z m136
-35 c23 -19 49 -35 59 -35 16 0 16 -1 -1 -20 -21 -23 -71 -26 -97 -6 -25 18
-38 58 -27 79 14 24 20 22 66 -18z m56 11 c11 -9 14 -17 8 -21 -13 -7 -51 12
-51 25 0 14 22 12 43 -4z m995 -3 c-10 -2 -26 -2 -35 0 -10 3 -2 5 17 5 19 0
27 -2 18 -5z m-768 -12 c0 -10 -24 -21 -46 -21 -8 0 -14 4 -14 9 0 8 10 12 53
20 4 0 7 -3 7 -8z m100 -20 c-22 -43 -102 -69 -140 -46 -12 7 87 62 123 67 29
5 31 3 17 -21z"/>
<path d="M2010 2330 c8 -5 20 -10 25 -10 6 0 3 5 -5 10 -8 5 -19 10 -25 10 -5
0 -3 -5 5 -10z"/>
<path d="M1975 2319 c-4 -6 -5 -12 -2 -15 2 -3 7 2 10 11 7 17 1 20 -8 4z"/>
<path d="M2038 2287 c-3 -19 -2 -25 4 -19 6 6 8 18 6 28 -3 14 -5 12 -10 -9z"/>
<path d="M1970 2284 c0 -17 27 -37 42 -31 8 4 7 6 -4 6 -9 1 -22 9 -27 19 -6
9 -11 12 -11 6z"/>
<path d="M714 2329 c-11 -18 14 -35 29 -20 10 10 8 11 -7 5 -16 -6 -18 -4 -13
9 7 19 2 23 -9 6z"/>
<path d="M773 2274 c-3 -8 1 -22 9 -30 13 -14 17 -14 31 1 9 8 14 22 11 30 -8
20 -43 19 -51 -1z m42 -4 c3 -6 -1 -13 -10 -16 -19 -8 -30 0 -20 15 8 14 22
14 30 1z"/>
<path d="M770 2210 c0 -5 5 -10 10 -10 6 0 10 5 10 10 0 6 -4 10 -10 10 -5 0
-10 -4 -10 -10z"/>
<path d="M1870 2270 c0 -5 5 -10 10 -10 6 0 10 5 10 10 0 6 -4 10 -10 10 -5 0
-10 -4 -10 -10z"/>
<path d="M1230 2200 c-12 -7 -12 -12 -2 -22 9 -9 12 -9 12 0 0 20 20 13 30
-10 9 -22 9 -22 9 3 1 16 -6 29 -15 33 -19 7 -16 8 -34 -4z"/>
<path d="M2486 2200 c23 -10 44 -26 48 -35 23 -61 -16 -125 -77 -125 -44 0
-77 34 -77 81 0 39 6 49 40 72 13 9 19 17 12 17 -28 0 -62 -48 -62 -88 0 -85
91 -122 151 -63 49 50 37 121 -26 147 -50 21 -57 16 -9 -6z"/>
<path d="M2432 2164 c-26 -18 -29 -56 -6 -78 19 -20 34 -20 62 0 28 20 28 58
0 78 -12 9 -25 16 -28 16 -3 0 -16 -7 -28 -16z m52 -10 c32 -31 6 -71 -39 -60
-30 8 -35 49 -7 65 23 14 28 14 46 -5z"/>
<path d="M2446 2132 c-3 -6 -1 -14 5 -17 15 -10 25 3 12 16 -7 7 -13 7 -17 1z"/>
<path d="M1616 2169 c-20 -30 -6 -63 28 -67 33 -4 56 13 56 42 0 47 -57 63
-84 25z m65 -5 c17 -21 0 -49 -32 -49 -27 0 -37 28 -19 50 16 19 34 19 51 -1z"/>
<path d="M1646 2151 c-4 -5 -2 -12 3 -15 5 -4 12 -2 15 3 4 5 2 12 -3 15 -5 4
-12 2 -15 -3z"/>
<path d="M2165 2180 c3 -5 8 -10 11 -10 2 0 4 5 4 10 0 6 -5 10 -11 10 -5 0
-7 -4 -4 -10z"/>
<path d="M895 2149 c-4 -6 -5 -12 -2 -15 2 -3 7 2 10 11 7 17 1 20 -8 4z"/>
<path d="M953 2070 c2 -8 12 -16 23 -17 13 -2 15 -1 4 4 -8 3 -19 11 -23 17
-6 7 -7 6 -4 -4z"/>
<path d="M1096 2053 c-6 -14 -5 -15 5 -6 7 7 10 15 7 18 -3 3 -9 -2 -12 -12z"/>
<path d="M346 2064 c-19 -18 -19 -20 -6 -45 6 -11 21 -19 35 -19 20 0 45 24
45 44 0 10 -32 36 -45 36 -7 0 -21 -7 -29 -16z m54 -10 c11 -12 11 -18 -1 -30
-13 -12 -18 -12 -34 -1 -11 9 -16 20 -12 31 8 20 31 21 47 0z"/>
<path d="M246 2031 c-3 -5 1 -14 9 -21 10 -9 15 -9 15 -1 0 6 -6 11 -12 11 -9
0 -8 4 2 10 9 6 10 10 3 10 -6 0 -14 -4 -17 -9z"/>
<path d="M715 2140 c-3 -6 1 -7 9 -4 18 7 21 14 7 14 -6 0 -13 -4 -16 -10z"/>
<path d="M750 2146 c0 -2 7 -7 16 -10 8 -3 12 -2 9 4 -6 10 -25 14 -25 6z"/>
<path d="M1971 2024 c-17 -14 -31 -33 -30 -42 0 -13 3 -11 9 4 11 27 48 54 75
54 27 0 64 -27 75 -54 6 -15 9 -17 9 -4 1 22 -55 68 -84 68 -13 0 -37 -12 -54
-26z"/>
<path d="M2160 1992 c0 -5 14 -7 30 -4 17 2 30 6 30 8 0 2 -13 4 -30 4 -16 0
-30 -4 -30 -8z"/>
<path d="M1867 1959 c7 -7 15 -10 18 -7 3 3 -2 9 -12 12 -14 6 -15 5 -6 -5z"/>
<path d="M2009 1952 c9 -7 10 -11 2 -15 -7 -4 -8 -5 0 -3 15 2 13 20 -3 24
-10 3 -10 2 1 -6z"/>
<path d="M1780 1921 c0 -6 4 -13 10 -16 6 -3 7 1 4 9 -7 18 -14 21 -14 7z"/>
<path d="M2695 2021 c-7 -12 12 -24 25 -16 6 3 10 12 9 18 0 9 -2 9 -6 0 -2
-7 -9 -13 -14 -13 -6 0 -7 5 -4 10 3 6 4 10 1 10 -3 0 -7 -4 -11 -9z"/>
<path d="M619 1919 c14 -5 30 -13 36 -17 6 -4 2 1 -8 11 -11 9 -27 17 -36 16
-10 0 -7 -4 8 -10z"/>
<path d="M570 1905 c-7 -9 -11 -17 -9 -20 3 -2 10 5 17 15 14 24 10 26 -8 5z"/>
<path d="M487 1872 c-10 -10 -17 -25 -17 -33 0 -8 -13 -20 -30 -26 -16 -6 -30
-17 -30 -24 0 -8 6 -7 18 4 10 10 26 17 35 17 10 0 17 10 19 27 2 17 12 32 28
40 16 8 19 13 9 13 -9 0 -23 -8 -32 -18z"/>
<path d="M351 1764 c0 -11 3 -14 6 -6 3 7 2 16 -1 19 -3 4 -6 -2 -5 -13z"/>
<path d="M1351 1744 c0 -11 3 -14 6 -6 3 7 2 16 -1 19 -3 4 -6 -2 -5 -13z"/>
<path d="M1322 1680 c0 -14 2 -19 5 -12 2 6 2 18 0 25 -3 6 -5 1 -5 -13z"/>
<path d="M1736 1535 c-11 -8 -18 -17 -15 -19 2 -2 15 4 28 15 27 22 15 26 -13
4z"/>
<path d="M978 1303 c6 -2 18 -2 25 0 6 3 1 5 -13 5 -14 0 -19 -2 -12 -5z"/>
<path d="M916 1201 c-4 -5 -2 -12 3 -15 5 -4 12 -2 15 3 4 5 2 12 -3 15 -5 4
-12 2 -15 -3z"/>
<path d="M940 1129 c0 -5 5 -7 10 -4 6 3 10 8 10 11 0 2 -4 4 -10 4 -5 0 -10
-5 -10 -11z"/>
<path d="M1029 1043 l-34 -38 38 34 c34 33 42 41 34 41 -2 0 -19 -17 -38 -37z"/>
<path d="M1697 1049 c12 -12 25 -20 28 -17 3 3 -7 13 -22 23 l-28 17 22 -23z"/>
<path d="M2495 1910 c4 -6 11 -8 16 -5 14 9 11 15 -7 15 -8 0 -12 -5 -9 -10z"/>
<path d="M2625 1910 c-16 -7 -17 -9 -3 -9 9 -1 20 4 23 9 7 11 7 11 -20 0z"/>
<path d="M2320 1865 c-19 -22 -8 -25 13 -3 9 10 13 18 8 18 -5 0 -14 -7 -21
-15z"/>
<path d="M2398 1862 c9 -10 19 -17 21 -16 6 5 -20 34 -30 34 -5 0 -1 -8 9 -18z"/>
<path d="M808 1843 c7 -3 16 -2 19 1 4 3 -2 6 -13 5 -11 0 -14 -3 -6 -6z"/>
<path d="M880 1732 l5 -117 3 109 c1 60 -1 113 -5 117 -4 5 -6 -45 -3 -109z"/>
<path d="M830 1680 c-9 -6 -10 -10 -3 -10 6 0 15 5 18 10 8 12 4 12 -15 0z"/>
<path d="M828 1643 c7 -3 16 -2 19 1 4 3 -2 6 -13 5 -11 0 -14 -3 -6 -6z"/>
<path d="M1775 1790 c-3 -5 -1 -10 4 -10 6 0 11 5 11 10 0 6 -2 10 -4 10 -3 0
-8 -4 -11 -10z"/>
<path d="M1876 1842 c-3 -6 -1 -14 5 -17 15 -10 25 3 12 16 -7 7 -13 7 -17 1z"/>
<path d="M607 1783 c-10 -10 -8 -33 3 -33 5 0 7 7 3 16 -4 12 -2 15 8 12 8 -3
13 -11 11 -17 -1 -7 2 -10 8 -6 8 5 7 11 -1 21 -13 15 -22 18 -32 7z"/>
<path d="M999 1783 c-13 -16 -12 -17 4 -4 9 7 17 15 17 17 0 8 -8 3 -21 -13z"/>
<path d="M1052 1789 c10 -5 22 -17 27 -27 6 -9 11 -12 11 -5 0 15 -28 43 -43
43 -7 0 -4 -5 5 -11z"/>
<path d="M1010 1765 c-7 -9 -11 -17 -9 -20 3 -2 10 5 17 15 14 24 10 26 -8 5z"/>
<path d="M1026 1752 c-3 -5 1 -9 9 -9 8 0 12 4 9 9 -3 4 -7 8 -9 8 -2 0 -6 -4
-9 -8z"/>
<path d="M986 1727 c3 -10 9 -15 12 -12 3 3 0 11 -7 18 -10 9 -11 8 -5 -6z"/>
<path d="M1071 1717 c-13 -21 -12 -21 5 -5 10 10 16 20 13 22 -3 3 -11 -5 -18
-17z"/>
<path d="M205 1760 c-3 -5 -1 -10 4 -10 6 0 11 5 11 10 0 6 -2 10 -4 10 -3 0
-8 -4 -11 -10z"/>
<path d="M1883 1743 c9 -2 23 -2 30 0 6 3 -1 5 -18 5 -16 0 -22 -2 -12 -5z"/>
<path d="M2270 1720 c0 -5 5 -10 11 -10 5 0 7 5 4 10 -3 6 -8 10 -11 10 -2 0
-4 -4 -4 -10z"/>
<path d="M2073 1705 c0 -9 4 -14 9 -13 5 2 10 8 10 13 0 5 -5 11 -10 13 -5 1
-9 -4 -9 -13z"/>
<path d="M1885 1650 c-3 -5 1 -10 10 -10 9 0 13 5 10 10 -3 6 -8 10 -10 10 -2
0 -7 -4 -10 -10z"/>
<path d="M372 1587 c-12 -13 -22 -31 -22 -41 0 -23 45 -66 70 -66 53 0 81 84
38 114 -32 22 -61 20 -86 -7z m82 -3 c40 -40 -7 -109 -59 -86 -32 15 -41 47
-21 77 19 29 57 33 80 9z"/>
<path d="M394 1555 c-8 -19 3 -35 26 -35 19 0 30 17 23 38 -6 17 -42 15 -49
-3z"/>
<path d="M2464 1555 c-9 -13 -14 -28 -12 -33 1 -5 10 6 19 24 19 40 16 44 -7
9z"/>
<path d="M2491 1544 c-12 -15 -21 -37 -21 -49 0 -23 35 -75 50 -75 5 0 -2 11
-15 25 -14 13 -25 36 -25 50 0 14 11 37 25 50 13 14 20 25 15 25 -5 0 -18 -12
-29 -26z"/>
<path d="M2571 1567 c2 -1 14 -11 27 -21 12 -11 22 -16 22 -13 0 10 -31 37
-42 37 -6 0 -9 -1 -7 -3z"/>
<path d="M2560 1533 c0 -18 -31 -24 -48 -11 -13 12 -14 11 -2 -9 11 -17 17
-19 28 -11 9 8 16 8 24 0 9 -9 4 -15 -20 -23 -18 -6 -32 -16 -32 -21 0 -6 6
-5 15 2 8 7 26 10 39 8 23 -5 23 -3 14 31 -11 38 -18 52 -18 34z"/>
<path d="M2620 1497 c0 -12 -7 -34 -16 -47 l-16 -25 21 24 c18 20 30 71 16 71
-3 0 -5 -10 -5 -23z"/>
<path d="M2451 1472 c-1 -20 18 -52 31 -52 7 0 5 7 -4 18 -9 9 -18 24 -21 32
-4 10 -6 11 -6 2z"/>
<path d="M1621 1384 c0 -11 3 -14 6 -6 3 7 2 16 -1 19 -3 4 -6 -2 -5 -13z"/>
<path d="M1240 1309 c-7 -11 -9 -23 -6 -27 3 -3 6 0 6 6 0 6 7 18 16 26 8 9
11 16 5 16 -6 0 -15 -9 -21 -21z"/>
<path d="M1395 1310 c-26 -28 -15 -31 12 -3 12 13 19 23 14 23 -4 0 -16 -9
-26 -20z"/>
<path d="M1453 1319 c9 -5 18 -20 18 -32 1 -18 2 -18 6 -4 5 20 -13 47 -31 47
-6 0 -3 -5 7 -11z"/>
<path d="M1150 1190 c6 -11 13 -20 16 -20 2 0 0 9 -6 20 -6 11 -13 20 -16 20
-2 0 0 -9 6 -20z"/>
<path d="M1545 1174 c-9 -15 -12 -23 -6 -20 11 7 35 46 28 46 -3 0 -12 -12
-22 -26z"/>
<path d="M1180 1186 c0 -2 8 -10 18 -17 15 -13 16 -12 3 4 -13 16 -21 21 -21
13z"/>
<path d="M1422 960 c0 -19 2 -27 5 -17 2 9 2 25 0 35 -3 9 -5 1 -5 -18z"/>
<path d="M2726 1551 c-3 -5 3 -7 14 -4 23 6 39 -22 22 -39 -8 -8 -15 -8 -27 2
-8 7 -15 8 -15 2 0 -18 33 -23 49 -7 12 12 13 19 5 33 -13 20 -39 27 -48 13z"/>
<path d="M2148 1543 c7 -3 16 -2 19 1 4 3 -2 6 -13 5 -11 0 -14 -3 -6 -6z"/>
<path d="M2100 1525 c-19 -22 -8 -25 13 -3 9 10 13 18 8 18 -5 0 -14 -7 -21
-15z"/>
<path d="M2181 1537 c2 -1 13 -9 24 -17 19 -14 19 -14 6 3 -7 9 -18 17 -24 17
-6 0 -8 -1 -6 -3z"/>
<path d="M2119 1483 c-8 -9 -9 -14 -2 -10 6 4 13 2 15 -5 3 -8 7 -6 11 5 9 23
-8 30 -24 10z"/>
<path d="M825 1506 c-14 -10 -26 -11 -40 -5 -19 10 -19 10 -1 -5 16 -13 21
-13 42 1 13 8 24 17 24 19 0 7 -5 5 -25 -10z"/>
<path d="M762 1474 c10 -10 20 -16 22 -13 3 3 -5 11 -17 18 -21 13 -21 12 -5
-5z"/>
<path d="M750 1428 c0 -12 7 -18 23 -17 15 0 17 2 7 6 -8 3 -18 11 -22 17 -5
7 -8 4 -8 -6z"/>
<path d="M2370 1510 c0 -5 5 -10 10 -10 6 0 10 5 10 10 0 6 -4 10 -10 10 -5 0
-10 -4 -10 -10z"/>
<path d="M540 1450 c0 -5 5 -10 10 -10 6 0 10 5 10 10 0 6 -4 10 -10 10 -5 0
-10 -4 -10 -10z"/>
<path d="M558 1373 c6 -2 18 -2 25 0 6 3 1 5 -13 5 -14 0 -19 -2 -12 -5z"/>
<path d="M510 1360 c-8 -5 -10 -10 -5 -10 6 0 17 5 25 10 8 5 11 10 5 10 -5 0
-17 -5 -25 -10z"/>
<path d="M568 1333 c6 -2 18 -2 25 0 6 3 1 5 -13 5 -14 0 -19 -2 -12 -5z"/>
<path d="M525 1320 c-3 -6 1 -7 9 -4 18 7 21 14 7 14 -6 0 -13 -4 -16 -10z"/>
<path d="M583 1293 c9 -2 23 -2 30 0 6 3 -1 5 -18 5 -16 0 -22 -2 -12 -5z"/>
<path d="M535 1280 c-3 -6 1 -7 9 -4 18 7 21 14 7 14 -6 0 -13 -4 -16 -10z"/>
<path d="M574 1233 c1 -19 5 -28 10 -23 6 6 5 18 -1 32 -10 21 -10 21 -9 -9z"/>
<path d="M600 1255 c0 -5 5 -17 10 -25 5 -8 10 -10 10 -5 0 6 -5 17 -10 25 -5
8 -10 11 -10 5z"/>
<path d="M646 1217 c3 -10 9 -15 12 -12 3 3 0 11 -7 18 -10 9 -11 8 -5 -6z"/>
<path d="M621 1184 c0 -11 3 -14 6 -6 3 7 2 16 -1 19 -3 4 -6 -2 -5 -13z"/>
<path d="M580 1141 c0 -6 4 -13 10 -16 6 -3 7 1 4 9 -7 18 -14 21 -14 7z"/>
<path d="M373 1363 c9 -2 23 -2 30 0 6 3 -1 5 -18 5 -16 0 -22 -2 -12 -5z"/>
<path d="M352 1318 c-18 -18 -15 -32 13 -56 15 -13 27 -37 31 -62 7 -44 20
-58 37 -41 8 8 6 11 -6 11 -9 0 -17 5 -17 11 0 6 8 9 18 5 11 -4 9 0 -5 10
-13 9 -23 23 -23 31 0 8 -12 25 -26 38 -32 29 -26 60 8 50 18 -5 20 -4 8 4
-19 14 -23 14 -38 -1z"/>
<path d="M402 1290 c0 -8 4 -26 8 -40 6 -20 8 -21 8 -5 0 11 -3 29 -8 40 -5
12 -8 14 -8 5z"/>
<path d="M410 1120 c-18 -12 -2 -12 25 0 13 6 15 9 5 9 -8 0 -22 -4 -30 -9z"/>
<path d="M1916 1334 c-9 -22 17 -49 39 -40 10 3 15 15 13 28 -4 29 -42 37 -52
12z"/>
<path d="M2330 1330 c0 -5 5 -10 10 -10 6 0 10 5 10 10 0 6 -4 10 -10 10 -5 0
-10 -4 -10 -10z"/>
<path d="M2670 1261 c-17 -32 -11 -60 15 -77 23 -15 27 -15 50 0 14 9 25 19
25 21 0 3 -11 -2 -24 -10 -31 -21 -66 -5 -66 28 0 52 60 65 84 20 8 -16 15
-23 16 -18 1 46 -79 75 -100 36z"/>
<path d="M2036 1209 c-48 -37 -25 -109 36 -109 55 0 81 83 36 114 -29 21 -40
20 -72 -5z m68 -2 c12 -9 17 -23 14 -47 -4 -45 -46 -64 -78 -35 -25 23 -26 49
0 75 23 23 39 25 64 7z"/>
<path d="M2036 1172 c-6 -10 31 -48 38 -41 2 2 -4 14 -14 27 -10 12 -21 18
-24 14z"/>
<path d="M1810 1119 c0 -5 5 -7 10 -4 6 3 10 8 10 11 0 2 -4 4 -10 4 -5 0 -10
-5 -10 -11z"/>
<path d="M901 1027 c-14 -17 3 -41 23 -34 9 4 16 13 16 21 0 19 -26 28 -39 13z
m29 -11 c0 -3 -4 -8 -10 -11 -5 -3 -10 -1 -10 4 0 6 5 11 10 11 6 0 10 -2 10
-4z"/>
<path d="M2650 1041 c-19 -11 -44 -30 -55 -42 -20 -24 -20 -24 0 -7 11 9 40
28 65 42 51 29 43 35 -10 7z"/>
<path d="M1007 912 c-37 -41 -9 -102 46 -102 31 0 67 31 67 58 0 11 -7 6 -20
-15 -21 -34 -46 -41 -81 -23 -27 15 -25 64 3 84 12 9 18 16 12 16 -6 0 -18 -8
-27 -18z"/>
<path d="M1081 911 c13 -11 26 -18 28 -15 7 7 -21 34 -36 34 -10 0 -8 -6 8
-19z"/>
<path d="M1037 893 c-15 -14 -7 -43 12 -43 26 0 36 17 21 35 -14 16 -23 19
-33 8z m31 -21 c2 -7 -3 -12 -12 -12 -9 0 -16 7 -16 16 0 17 22 14 28 -4z"/>
<path d="M1560 946 c0 -2 8 -10 18 -17 15 -13 16 -12 3 4 -13 16 -21 21 -21
13z"/>
<path d="M2405 960 c-3 -5 -1 -10 4 -10 6 0 11 5 11 10 0 6 -2 10 -4 10 -3 0
-8 -4 -11 -10z"/>
<path d="M2434 941 c11 -17 -22 -25 -42 -10 -14 12 -14 10 2 -8 15 -18 21 -20
37 -10 22 14 24 23 7 33 -7 4 -8 3 -4 -5z"/>
<path d="M411 906 c-14 -17 -7 -36 14 -36 22 0 29 20 13 36 -13 13 -16 13 -27
0z m29 -17 c0 -5 -7 -9 -15 -9 -15 0 -20 12 -9 23 8 8 24 -1 24 -14z"/>
<path d="M2360 839 c-6 -11 -10 -25 -8 -30 2 -5 8 4 15 21 13 34 9 40 -7 9z"/>
<path d="M497 778 c2 -5 10 -8 18 -8 8 0 16 3 18 8 3 4 -5 7 -18 7 -13 0 -21
-3 -18 -7z"/>
<path d="M253 833 c9 -2 25 -2 35 0 9 3 1 5 -18 5 -19 0 -27 -2 -17 -5z"/>
<path d="M1985 741 c22 -4 47 -10 55 -15 8 -4 6 0 -4 8 -11 9 -36 15 -55 15
l-36 -2 40 -6z"/>
<path d="M1977 701 c23 -4 47 -11 55 -17 8 -5 5 -1 -5 9 -12 10 -33 17 -56 16
l-36 -2 42 -6z"/>
<path d="M1963 663 c9 -2 23 -2 30 0 6 3 -1 5 -18 5 -16 0 -22 -2 -12 -5z"/>
<path d="M2017 649 c7 -7 15 -10 18 -7 3 3 -2 9 -12 12 -14 6 -15 5 -6 -5z"/>
<path d="M2178 723 c6 -2 18 -2 25 0 6 3 1 5 -13 5 -14 0 -19 -2 -12 -5z"/>
<path d="M2135 710 c-3 -6 1 -7 9 -4 18 7 21 14 7 14 -6 0 -13 -4 -16 -10z"/>
<path d="M2136 671 c-4 -5 3 -7 14 -4 23 6 26 13 6 13 -8 0 -17 -4 -20 -9z"/>
<path d="M2210 676 c0 -2 7 -7 16 -10 8 -3 12 -2 9 4 -6 10 -25 14 -25 6z"/>
<path d="M2178 633 c12 -2 30 -2 40 0 9 3 -1 5 -23 4 -22 0 -30 -2 -17 -4z"/>
<path d="M2165 558 l-40 -43 43 40 c39 36 47 45 39 45 -2 0 -21 -19 -42 -42z"/>
<path d="M2139 573 c-13 -16 -12 -17 4 -4 16 13 21 21 13 21 -2 0 -10 -8 -17
-17z"/>
<path d="M693 685 c0 -8 4 -12 9 -9 5 3 6 10 3 15 -9 13 -12 11 -12 -6z"/>
<path d="M371 674 c0 -11 3 -14 6 -6 3 7 2 16 -1 19 -3 4 -6 -2 -5 -13z"/>
<path d="M355 630 c-3 -5 -2 -17 3 -26 8 -14 10 -14 21 0 7 8 11 21 8 28 -4 8
-6 7 -6 -4 -1 -10 -6 -18 -12 -18 -6 0 -9 7 -5 15 6 17 0 20 -9 5z"/>
<path d="M380 500 c-8 -5 -10 -10 -5 -10 6 0 17 5 25 10 8 5 11 10 5 10 -5 0
-17 -5 -25 -10z"/>
<path d="M248 488 c5 -5 16 -8 23 -6 8 3 3 7 -10 11 -17 4 -21 3 -13 -5z"/>
<path d="M304 476 c-3 -8 1 -24 9 -36 12 -18 15 -18 20 -5 4 9 1 15 -8 15 -8
0 -15 7 -15 15 0 17 26 21 33 5 3 -6 4 -5 3 2 -4 19 -35 22 -42 4z"/>
<path d="M310 400 c0 -5 7 -10 15 -10 8 0 15 5 15 10 0 6 -7 10 -15 10 -8 0
-15 -4 -15 -10z"/>
<path d="M2693 674 c1 -11 -4 -18 -11 -16 -8 1 -11 -2 -7 -9 5 -8 12 -6 23 5
12 12 13 19 5 27 -8 8 -11 6 -10 -7z"/>
<path d="M1548 653 c6 -2 12 -11 12 -19 0 -15 -11 -18 -26 -6 -5 4 -4 0 3 -8
10 -10 16 -11 24 -3 14 14 5 43 -13 42 -10 0 -10 -2 0 -6z"/>
<path d="M968 623 c12 -2 32 -2 45 0 12 2 2 4 -23 4 -25 0 -35 -2 -22 -4z"/>
<path d="M801 594 c-28 -15 -50 -29 -47 -32 3 -2 12 1 20 7 8 7 36 21 63 31
26 11 41 19 32 20 -8 0 -39 -12 -68 -26z"/>
<path d="M968 593 c12 -2 30 -2 40 0 9 3 -1 5 -23 4 -22 0 -30 -2 -17 -4z"/>
<path d="M855 575 c-25 -12 -26 -14 -5 -9 14 4 29 10 35 15 12 12 5 11 -30 -6z"/>
<path d="M794 544 c-18 -14 -18 -15 4 -4 12 6 22 13 22 15 0 8 -5 6 -26 -11z"/>
<path d="M970 556 c0 -2 18 -6 39 -8 22 -2 37 0 35 4 -5 8 -74 11 -74 4z"/>
<path d="M888 543 c7 -3 16 -2 19 1 4 3 -2 6 -13 5 -11 0 -14 -3 -6 -6z"/>
<path d="M823 520 c-46 -27 -41 -34 5 -8 46 27 48 28 36 28 -5 0 -24 -9 -41
-20z"/>
<path d="M988 523 c7 -3 16 -2 19 1 4 3 -2 6 -13 5 -11 0 -14 -3 -6 -6z"/>
<path d="M864 501 c-23 -10 -45 -25 -50 -32 -6 -11 -5 -12 7 -2 8 7 35 21 59
32 25 11 41 20 35 20 -5 0 -29 -8 -51 -18z"/>
<path d="M1038 513 c7 -3 16 -2 19 1 4 3 -2 6 -13 5 -11 0 -14 -3 -6 -6z"/>
<path d="M1665 571 c-3 -5 -2 -12 3 -15 5 -3 9 1 9 9 0 17 -3 19 -12 6z"/>
<path d="M1710 548 c0 -9 -6 -19 -12 -21 -10 -4 -10 -6 0 -6 14 -1 28 26 18
36 -3 4 -6 -1 -6 -9z"/>
<path d="M1650 546 c0 -2 8 -10 18 -17 15 -13 16 -12 3 4 -13 16 -21 21 -21
13z"/>
<path d="M2453 573 c9 -2 25 -2 35 0 9 3 1 5 -18 5 -19 0 -27 -2 -17 -5z"/>
<path d="M2398 563 c6 -2 18 -2 25 0 6 3 1 5 -13 5 -14 0 -19 -2 -12 -5z"/>
<path d="M2555 555 c28 -7 51 -12 53 -10 6 5 -61 25 -82 24 -12 0 2 -6 29 -14z"/>
<path d="M2410 506 c0 -2 9 -6 20 -9 11 -3 18 -1 14 4 -5 9 -34 13 -34 5z"/>
<path d="M2435 470 c-3 -5 -1 -10 4 -10 6 0 11 5 11 10 0 6 -2 10 -4 10 -3 0
-8 -4 -11 -10z"/>
<path d="M2736 547 c3 -10 9 -15 12 -12 3 3 0 11 -7 18 -10 9 -11 8 -5 -6z"/>
<path d="M1860 449 c0 -5 5 -7 10 -4 6 3 10 8 10 11 0 2 -4 4 -10 4 -5 0 -10
-5 -10 -11z"/>
<path d="M2316 461 c-34 -38 26 -85 62 -49 16 16 15 33 -4 52 -21 21 -37 20
-58 -3z m52 -25 c-2 -13 -10 -21 -23 -21 -23 0 -33 34 -14 45 20 13 40 -1 37
-24z"/>
<path d="M2340 440 c0 -5 5 -10 11 -10 5 0 7 5 4 10 -3 6 -8 10 -11 10 -2 0
-4 -4 -4 -10z"/>
<path d="M1842 251 c6 -21 24 -25 31 -6 4 8 2 15 -3 15 -6 0 -10 -6 -10 -12 0
-9 -4 -8 -11 2 -9 12 -10 12 -7 1z"/>
<path d="M2491 406 c-84 -48 -52 -176 44 -176 40 0 86 36 84 67 0 14 -2 15 -6
3 -13 -34 -47 -60 -80 -60 -66 0 -105 74 -67 128 37 53 102 52 135 -1 10 -18
19 -27 19 -20 0 22 -45 63 -75 68 -16 3 -41 -1 -54 -9z"/>
<path d="M2510 325 c0 -25 3 -45 6 -45 3 0 19 10 36 21 l30 22 -29 23 c-15 13
-31 23 -35 24 -5 0 -8 -20 -8 -45z"/>
<path d="M2250 389 c0 -5 5 -7 10 -4 6 3 10 8 10 11 0 2 -4 4 -10 4 -5 0 -10
-5 -10 -11z"/>
<path d="M448 353 c7 -3 16 -2 19 1 4 3 -2 6 -13 5 -11 0 -14 -3 -6 -6z"/>
<path d="M391 324 c-28 -36 -27 -79 4 -109 53 -54 145 -13 145 63 0 21 -36 72
-50 72 -5 0 2 -11 15 -25 31 -30 32 -64 3 -100 -20 -26 -22 -26 -29 -9 -7 17
-8 17 -8 2 -1 -21 -31 -24 -31 -4 0 24 12 46 21 40 5 -3 9 4 9 16 0 28 -34 23
-36 -5 -2 -47 -5 -55 -19 -55 -39 0 -46 80 -10 115 13 14 20 25 15 25 -5 0
-18 -12 -29 -26z"/>
<path d="M480 256 c0 -2 7 -7 16 -10 8 -3 12 -2 9 4 -6 10 -25 14 -25 6z"/>
<path d="M906 306 c6 -16 4 -18 -12 -12 -15 6 -17 5 -6 -5 9 -10 15 -10 24 -1
9 9 9 15 -1 25 -10 10 -11 8 -5 -7z"/>
<path d="M1320 130 c0 -5 4 -10 9 -10 5 0 12 -8 14 -17 4 -14 5 -13 6 4 0 12
9 24 19 26 9 3 2 5 -15 6 -18 0 -33 -3 -33 -9z"/>
<path d="M1103 283 c9 -2 25 -2 35 0 9 3 1 5 -18 5 -19 0 -27 -2 -17 -5z"/>
<path d="M1040 270 c-8 -5 -10 -10 -5 -10 6 0 17 5 25 10 8 5 11 10 5 10 -5 0
-17 -5 -25 -10z"/>
<path d="M1098 243 c12 -2 30 -2 40 0 9 3 -1 5 -23 4 -22 0 -30 -2 -17 -4z"/>
<path d="M1036 231 c-4 -5 3 -7 14 -4 23 6 26 13 6 13 -8 0 -17 -4 -20 -9z"/>
<path d="M1098 203 c12 -2 30 -2 40 0 9 3 -1 5 -23 4 -22 0 -30 -2 -17 -4z"/>
<path d="M1030 190 c-18 -12 -2 -12 25 0 13 6 15 9 5 9 -8 0 -22 -4 -30 -9z"/>
<path d="M1590 266 c0 -2 7 -7 16 -10 8 -3 12 -2 9 4 -6 10 -25 14 -25 6z"/>
<path d="M1559 233 c-12 -16 -12 -17 1 -7 8 6 22 14 30 17 13 5 12 6 -1 6 -9
1 -23 -7 -30 -16z"/>
<path d="M1575 219 c-11 -16 -1 -19 13 -3 7 8 8 14 3 14 -5 0 -13 -5 -16 -11z"/>
<path d="M1550 201 c0 -6 4 -13 10 -16 6 -3 7 1 4 9 -7 18 -14 21 -14 7z"/>
<path d="M1613 173 c0 -9 4 -10 14 -2 7 6 13 12 13 14 0 1 -6 2 -13 2 -8 0
-14 -6 -14 -14z"/>
<path d="M1578 153 c7 -3 16 -2 19 1 4 3 -2 6 -13 5 -11 0 -14 -3 -6 -6z"/>
<path d="M674 149 c-10 -17 13 -36 27 -22 12 12 4 33 -11 33 -5 0 -12 -5 -16
-11z m26 -9 c0 -5 -4 -10 -10 -10 -5 0 -10 5 -10 10 0 6 5 10 10 10 6 0 10 -4
10 -10z"/>
<path d="M1555 2460 c-3 -5 1 -10 10 -10 9 0 13 5 10 10 -3 6 -8 10 -10 10 -2
0 -7 -4 -10 -10z"/>
<path d="M1802 2445 c-7 -15 -11 -30 -8 -32 7 -7 28 36 24 49 -2 6 -9 -2 -16
-17z"/>
<path d="M430 2425 c0 -19 4 -35 8 -35 4 0 6 16 4 35 -2 19 -6 35 -8 35 -2 0
-4 -16 -4 -35z"/>
<path d="M540 2441 c0 -11 5 -23 10 -26 6 -4 10 5 10 19 0 14 -4 26 -10 26 -5
0 -10 -9 -10 -19z"/>
<path d="M1750 2438 c0 -19 2 -20 10 -8 13 19 13 30 0 30 -5 0 -10 -10 -10
-22z"/>
<path d="M2190 2446 c-10 -13 -7 -13 19 -3 25 9 33 8 50 -8 26 -23 27 -51 2
-65 -26 -13 -51 -3 -51 21 0 21 16 26 23 7 4 -10 6 -10 6 -1 2 19 -20 26 -35
11 -12 -12 -12 -17 2 -36 18 -27 45 -28 67 -4 22 25 21 48 -3 72 -23 23 -62
26 -80 6z"/>
<path d="M1670 2431 c0 -27 19 -36 37 -18 18 18 9 37 -18 37 -12 0 -19 -7 -19
-19z m40 -1 c0 -5 -7 -10 -15 -10 -8 0 -15 5 -15 10 0 6 7 10 15 10 8 0 15 -4
15 -10z"/>
<path d="M1082 2431 c2 -7 7 -12 11 -12 12 1 9 15 -3 20 -7 2 -11 -2 -8 -8z"/>
<path d="M1170 2430 c0 -5 5 -10 10 -10 6 0 10 5 10 10 0 6 -4 10 -10 10 -5 0
-10 -4 -10 -10z"/>
<path d="M1593 2424 c-3 -8 -2 -19 3 -24 5 -5 9 1 9 16 0 28 -3 30 -12 8z"/>
<path d="M1265 2420 c-4 -7 -3 -16 3 -22 14 -14 45 -2 40 15 -6 16 -34 21 -43
7z m25 -10 c0 -5 -4 -10 -10 -10 -5 0 -10 5 -10 10 0 6 5 10 10 10 6 0 10 -4
10 -10z"/>
<path d="M2400 2419 c0 -5 5 -7 10 -4 6 3 10 8 10 11 0 2 -4 4 -10 4 -5 0 -10
-5 -10 -11z"/>
<path d="M342 2386 c6 -14 15 -26 20 -26 10 0 -7 36 -22 45 -6 4 -5 -5 2 -19z"/>
<path d="M520 2385 c0 -8 4 -15 10 -15 5 0 7 7 4 15 -4 8 -8 15 -10 15 -2 0
-4 -7 -4 -15z"/>
<path d="M1183 2360 c-18 -11 -33 -25 -33 -32 0 -6 11 -2 24 11 35 33 88 38
131 13 19 -12 35 -17 35 -13 0 14 -65 41 -97 41 -15 0 -43 -9 -60 -20z"/>
<path d="M250 2348 c0 -3 14 -17 30 -33 17 -16 30 -24 30 -18 0 7 -13 21 -30
33 -16 12 -30 20 -30 18z"/>
<path d="M1750 2341 c0 -6 5 -13 11 -17 6 -3 7 -9 3 -13 -5 -3 -16 -15 -24
-26 -11 -16 -8 -15 12 4 16 14 32 20 40 15 7 -4 2 5 -11 19 -27 29 -31 32 -31
18z"/>
<path d="M2660 2269 c0 -5 5 -7 10 -4 6 3 10 8 10 11 0 2 -4 4 -10 4 -5 0 -10
-5 -10 -11z"/>
<path d="M327 2252 c-10 -10 -17 -22 -17 -27 0 -5 10 1 21 14 16 17 28 21 46
16 16 -4 22 -2 18 5 -10 16 -50 12 -68 -8z"/>
<path d="M219 2223 c12 -23 29 -38 37 -31 2 3 -8 15 -22 29 -25 23 -26 23 -15
2z"/>
<path d="M346 2227 c-16 -12 -13 -13 19 -9 26 3 33 7 24 13 -19 12 -22 11 -43
-4z"/>
<path d="M210 2170 c0 -5 5 -10 11 -10 5 0 7 5 4 10 -3 6 -8 10 -11 10 -2 0
-4 -4 -4 -10z"/>
<path d="M2820 2169 c0 -5 5 -7 10 -4 6 3 10 8 10 11 0 2 -4 4 -10 4 -5 0 -10
-5 -10 -11z"/>
<path d="M2771 2094 c0 -11 3 -14 6 -6 3 7 2 16 -1 19 -3 4 -6 -2 -5 -13z"/>
<path d="M160 2056 c0 -2 9 -6 20 -9 11 -3 20 -1 20 4 0 5 -9 9 -20 9 -11 0
-20 -2 -20 -4z"/>
<path d="M2845 2010 c-8 -13 5 -13 25 0 13 8 13 10 -2 10 -9 0 -20 -4 -23 -10z"/>
<path d="M130 1952 c0 -19 23 -24 51 -12 23 10 23 10 -5 5 -19 -4 -32 -1 -37
7 -7 10 -9 10 -9 0z"/>
<path d="M2890 1930 c0 -5 5 -10 11 -10 5 0 7 5 4 10 -3 6 -8 10 -11 10 -2 0
-4 -4 -4 -10z"/>
<path d="M200 1900 c-14 -11 -20 -20 -15 -19 13 0 50 28 44 33 -2 3 -15 -4
-29 -14z"/>
<path d="M2776 1874 c-23 -23 -20 -43 10 -56 22 -11 28 -10 40 7 8 10 14 22
14 26 0 10 -30 39 -40 39 -5 0 -16 -7 -24 -16z m44 -9 c10 -12 10 -18 0 -29
-14 -18 -40 -10 -40 13 0 32 20 40 40 16z"/>
<path d="M2795 1850 c-3 -5 -1 -10 4 -10 6 0 11 5 11 10 0 6 -2 10 -4 10 -3 0
-8 -4 -11 -10z"/>
<path d="M2855 1730 c3 -5 8 -10 11 -10 2 0 4 5 4 10 0 6 -5 10 -11 10 -5 0
-7 -4 -4 -10z"/>
<path d="M2890 1630 c0 -5 5 -10 10 -10 6 0 10 5 10 10 0 6 -4 10 -10 10 -5 0
-10 -4 -10 -10z"/>
<path d="M83 1503 c9 -2 23 -2 30 0 6 3 -1 5 -18 5 -16 0 -22 -2 -12 -5z"/>
<path d="M2915 1460 c-3 -5 -1 -10 4 -10 6 0 11 5 11 10 0 6 -2 10 -4 10 -3 0
-8 -4 -11 -10z"/>
<path d="M110 1439 c0 -5 5 -7 10 -4 6 3 10 8 10 11 0 2 -4 4 -10 4 -5 0 -10
-5 -10 -11z"/>
<path d="M2890 1410 c0 -5 5 -10 11 -10 5 0 7 5 4 10 -3 6 -8 10 -11 10 -2 0
-4 -4 -4 -10z"/>
<path d="M103 1363 c9 -2 23 -2 30 0 6 3 -1 5 -18 5 -16 0 -22 -2 -12 -5z"/>
<path d="M2888 1353 c12 -2 30 -2 40 0 9 3 -1 5 -23 4 -22 0 -30 -2 -17 -4z"/>
<path d="M110 1320 c0 -5 5 -10 11 -10 5 0 7 5 4 10 -3 6 -8 10 -11 10 -2 0
-4 -4 -4 -10z"/>
<path d="M2871 1315 c0 -12 -5 -26 -11 -33 -5 -7 -3 -6 6 2 9 7 14 22 11 32
-4 17 -5 17 -6 -1z"/>
<path d="M2911 1307 c-1 -10 -13 -29 -27 -43 -14 -15 -20 -24 -13 -22 20 7 52
55 46 69 -4 10 -6 8 -6 -4z"/>
<path d="M2900 1210 c0 -5 5 -10 10 -10 6 0 10 5 10 10 0 6 -4 10 -10 10 -5 0
-10 -4 -10 -10z"/>
<path d="M2890 1060 c8 -5 24 -9 35 -9 l20 0 -20 9 c-11 5 -27 9 -35 9 -13 1
-13 0 0 -9z"/>
<path d="M90 1039 c0 -5 5 -7 10 -4 6 3 10 8 10 11 0 2 -4 4 -10 4 -5 0 -10
-5 -10 -11z"/>
<path d="M2856 1015 c-11 -8 -15 -15 -9 -15 6 0 16 7 23 15 16 19 11 19 -14 0z"/>
<path d="M2903 933 c9 -2 23 -2 30 0 6 3 -1 5 -18 5 -16 0 -22 -2 -12 -5z"/>
<path d="M150 870 c0 -5 5 -10 11 -10 5 0 7 5 4 10 -3 6 -8 10 -11 10 -2 0 -4
-4 -4 -10z"/>
<path d="M2898 873 c7 -3 16 -2 19 1 4 3 -2 6 -13 5 -11 0 -14 -3 -6 -6z"/>
<path d="M100 840 c0 -5 5 -10 11 -10 5 0 7 5 4 10 -3 6 -8 10 -11 10 -2 0 -4
-4 -4 -10z"/>
<path d="M2875 820 c3 -5 11 -10 16 -10 6 0 7 5 4 10 -3 6 -11 10 -16 10 -6 0
-7 -4 -4 -10z"/>
<path d="M2850 790 c0 -5 5 -10 11 -10 5 0 7 5 4 10 -3 6 -8 10 -11 10 -2 0
-4 -4 -4 -10z"/>
<path d="M88 783 c7 -3 16 -2 19 1 4 3 -2 6 -13 5 -11 0 -14 -3 -6 -6z"/>
<path d="M115 750 c-7 -12 2 -12 30 0 19 8 19 9 -2 9 -12 1 -25 -3 -28 -9z"/>
<path d="M2880 725 c0 -8 5 -15 10 -15 6 0 10 7 10 15 0 8 -4 15 -10 15 -5 0
-10 -7 -10 -15z"/>
<path d="M151 669 c-13 -11 -22 -21 -20 -23 2 -3 15 4 28 15 13 11 22 21 20
23 -2 3 -15 -4 -28 -15z"/>
<path d="M2848 669 c-45 -26 -5 -104 41 -80 36 20 36 62 0 81 -21 12 -20 12
-41 -1z m47 -39 c0 -18 -6 -26 -23 -28 -24 -4 -38 18 -28 44 3 9 15 14 28 12
17 -2 23 -10 23 -28z"/>
<path d="M2865 630 c-3 -5 -1 -10 4 -10 6 0 11 5 11 10 0 6 -2 10 -4 10 -3 0
-8 -4 -11 -10z"/>
<path d="M158 614 c-16 -8 -28 -17 -28 -19 0 -11 19 -4 41 15 29 23 24 25 -13
4z"/>
<path d="M173 554 c-8 -21 13 -42 28 -27 13 13 5 43 -11 43 -6 0 -13 -7 -17
-16z m27 -4 c0 -5 -4 -10 -10 -10 -5 0 -10 5 -10 10 0 6 5 10 10 10 6 0 10 -4
10 -10z"/>
<path d="M2810 560 c0 -5 5 -10 10 -10 6 0 10 5 10 10 0 6 -4 10 -10 10 -5 0
-10 -4 -10 -10z"/>
<path d="M2865 540 c-3 -5 -1 -10 4 -10 6 0 11 5 11 10 0 6 -2 10 -4 10 -3 0
-8 -4 -11 -10z"/>
<path d="M155 490 c-3 -5 -1 -10 4 -10 6 0 11 5 11 10 0 6 -2 10 -4 10 -3 0
-8 -4 -11 -10z"/>
<path d="M2804 265 c11 -8 22 -12 25 -9 6 6 -19 24 -34 24 -5 -1 -1 -7 9 -15z"/>
<path d="M2830 210 c0 -5 5 -10 11 -10 5 0 7 5 4 10 -3 6 -8 10 -11 10 -2 0
-4 -4 -4 -10z"/>
<path d="M230 195 c-20 -24 -6 -28 15 -5 10 11 13 20 8 20 -6 0 -16 -7 -23
-15z"/>
<path d="M2775 175 c16 -13 31 -22 34 -20 5 6 -41 44 -54 44 -5 0 3 -11 20
-24z"/>
<path d="M2330 183 c0 -4 5 -15 10 -23 8 -13 10 -13 10 2 0 9 -4 20 -10 23 -5
3 -10 3 -10 -2z"/>
<path d="M330 144 c0 -8 5 -12 10 -9 6 3 10 10 10 16 0 5 -4 9 -10 9 -5 0 -10
-7 -10 -16z"/>
<path d="M2690 122 c6 -13 14 -21 18 -18 3 4 -2 14 -12 24 -18 16 -18 16 -6
-6z"/>
<path d="M2321 101 c-7 -13 -6 -23 3 -36 17 -24 50 -15 54 14 6 39 -39 56 -57
22z m46 -7 c8 -21 -13 -42 -28 -27 -13 13 -5 43 11 43 6 0 13 -7 17 -16z"/>
<path d="M2417 114 c-8 -8 1 -24 14 -24 5 0 9 7 9 15 0 15 -12 20 -23 9z"/>
<path d="M420 75 c0 -45 7 -45 12 0 2 19 0 35 -4 35 -4 0 -8 -16 -8 -35z"/>
<path d="M542 88 c2 -12 10 -23 18 -26 12 -4 13 -2 3 9 -17 18 -16 29 2 29 14
0 19 -12 16 -32 0 -5 4 -8 9 -8 14 0 13 23 -2 38 -21 21 -50 15 -46 -10z"/>
<path d="M2640 91 c0 -5 5 -13 10 -16 6 -3 10 -2 10 4 0 5 -4 13 -10 16 -5 3
-10 2 -10 -4z"/>
<path d="M736 81 c-4 -5 -2 -12 3 -15 5 -4 12 -2 15 3 4 5 2 12 -3 15 -5 4
-12 2 -15 -3z"/>
<path d="M2480 75 c0 -8 2 -15 4 -15 2 0 6 7 10 15 3 8 1 15 -4 15 -6 0 -10
-7 -10 -15z"/>
<path d="M1475 70 c3 -5 8 -10 11 -10 2 0 4 5 4 10 0 6 -5 10 -11 10 -5 0 -7
-4 -4 -10z"/>
<path d="M2541 64 c0 -11 3 -14 6 -6 3 7 2 16 -1 19 -3 4 -6 -2 -5 -13z"/>
<path d="M2595 70 c3 -5 8 -10 11 -10 2 0 4 5 4 10 0 6 -5 10 -11 10 -5 0 -7
-4 -4 -10z"/>
<path d="M975 59 c-10 -15 3 -25 16 -12 7 7 7 13 1 17 -6 3 -14 1 -17 -5z"/>
<path d="M2020 60 c0 -5 5 -10 10 -10 6 0 10 5 10 10 0 6 -4 10 -10 10 -5 0
-10 -4 -10 -10z"/>
<path d="M2195 60 c3 -5 8 -10 11 -10 2 0 4 5 4 10 0 6 -5 10 -11 10 -5 0 -7
-4 -4 -10z"/>
<path d="M1700 50 c0 -5 5 -10 10 -10 6 0 10 5 10 10 0 6 -4 10 -10 10 -5 0
-10 -4 -10 -10z"/>
</g>
</svg>
