<?xml version="1.0" encoding="UTF-8" standalone="no"?>
<svg
   xmlns:dc="http://purl.org/dc/elements/1.1/"
   xmlns:cc="http://creativecommons.org/ns#"
   xmlns:rdf="http://www.w3.org/1999/02/22-rdf-syntax-ns#"
   xmlns:svg="http://www.w3.org/2000/svg"
   xmlns="http://www.w3.org/2000/svg"
   xmlns:xlink="http://www.w3.org/1999/xlink"
   xmlns:sodipodi="http://sodipodi.sourceforge.net/DTD/sodipodi-0.dtd"
   xmlns:inkscape="http://www.inkscape.org/namespaces/inkscape"
   version="1.1"
   id="svg2"
   width="500"
   height="500"
   viewBox="0 0 500.00001 500.00001"
   sodipodi:docname="Desktop_Icons_BeAware_ChromeKlon.svg"
   inkscape:version="1.0 (4035a4fb49, 2020-05-01)">
  <metadata
     id="metadata8">
    <rdf:RDF>
      <cc:Work
         rdf:about="">
        <dc:format>image/svg+xml</dc:format>
        <dc:type
           rdf:resource="http://purl.org/dc/dcmitype/StillImage" />
        <dc:title />
      </cc:Work>
    </rdf:RDF>
  </metadata>
  <defs
     id="defs6">
    <linearGradient
       inkscape:collect="always"
       id="linearGradient959">
      <stop
         style="stop-color:#366789;stop-opacity:1"
         offset="0"
         id="stop955" />
      <stop
         style="stop-color:#5a96c8;stop-opacity:1"
         offset="1"
         id="stop957" />
    </linearGradient>
    <linearGradient
       inkscape:collect="always"
       id="linearGradient949">
      <stop
         style="stop-color:#3b9540;stop-opacity:1"
         offset="0"
         id="stop945" />
      <stop
         style="stop-color:#000000;stop-opacity:0;"
         offset="1"
         id="stop947" />
    </linearGradient>
    <linearGradient
       inkscape:collect="always"
       id="linearGradient941">
      <stop
         style="stop-color:#8b3134;stop-opacity:1"
         offset="0"
         id="stop937" />
      <stop
         style="stop-color:#e8483f;stop-opacity:1"
         offset="1"
         id="stop939" />
    </linearGradient>
    <linearGradient
       inkscape:collect="always"
       id="linearGradient110">
      <stop
         style="stop-color:#9b7e27;stop-opacity:1"
         offset="0"
         id="stop106" />
      <stop
         style="stop-color:#fdd300;stop-opacity:1"
         offset="1"
         id="stop108" />
    </linearGradient>
    <linearGradient
       gradientTransform="matrix(1.1000009,0,0,1.1000009,-1105.312,-160.26382)"
       gradientUnits="userSpaceOnUse"
       y2="246.38025"
       x2="1403.5405"
       y1="331.17099"
       x1="1157.1814"
       id="linearGradient943-6"
       xlink:href="#linearGradient941"
       inkscape:collect="always" />
    <linearGradient
       gradientTransform="matrix(1.1000009,0,0,1.1000009,-1105.312,-160.26382)"
       gradientUnits="userSpaceOnUse"
       y2="286.64053"
       x2="1038.8584"
       y1="457.79141"
       x1="1236.5087"
       id="linearGradient951-1"
       xlink:href="#linearGradient949"
       inkscape:collect="always" />
    <linearGradient
       gradientTransform="matrix(1.1000009,0,0,1.1000009,-1105.312,-160.26382)"
       gradientUnits="userSpaceOnUse"
       y2="585.96185"
       x2="1259.6501"
       y1="314.66959"
       x1="1298.5471"
       id="linearGradient112-8"
       xlink:href="#linearGradient110"
       inkscape:collect="always" />
    <linearGradient
       gradientTransform="matrix(1.1000009,0,0,1.1000009,-1105.312,-160.26382)"
       gradientUnits="userSpaceOnUse"
       y2="335.08441"
       x2="1234.1489"
       y1="427.11465"
       x1="1231.7892"
       id="linearGradient961-9"
       xlink:href="#linearGradient959"
       inkscape:collect="always" />
  </defs>
  <sodipodi:namedview
     pagecolor="#ffffff"
     bordercolor="#666666"
     borderopacity="1"
     objecttolerance="1"
     gridtolerance="1"
     guidetolerance="1"
     inkscape:pageopacity="0"
     inkscape:pageshadow="2"
     inkscape:window-width="1920"
     inkscape:window-height="1017"
     id="namedview4"
     showgrid="true"
     inkscape:zoom="0.35097847"
     inkscape:cx="-735.19107"
     inkscape:cy="-29.61925"
     inkscape:window-x="-8"
     inkscape:window-y="-8"
     inkscape:window-maximized="1"
     inkscape:current-layer="g10"
     inkscape:document-rotation="0">
    <inkscape:grid
       type="xygrid"
       id="grid68"
       spacingx="5.0000001"
       spacingy="5.0000001"
       snapvisiblegridlinesonly="true"
       enabled="true" />
  </sodipodi:namedview>
  <g
     inkscape:groupmode="layer"
     inkscape:label="Chrome_Klon"
     id="g10"
     style="display:inline">
    <g
       id="g1079">
      <path
         style="fill:#eb4e44;fill-opacity:1;stroke-width:0.800001"
         d="M 171.20169,228.29916 C 147.06085,197.51298 120.7287,167.01394 95.722378,136.35944 87.337291,125.18455 76.080762,114.95123 69.684697,103.02897 91.166064,75.060131 120.92076,53.32023 152.76743,38.15839 184.04519,23.615091 218.55002,16.078138 253.0664,17.172694 c 45.5023,-0.698391 90.73984,14.340062 128.60638,39.207662 21.80664,14.806386 41.30262,33.120796 56.91108,54.374324 -33.75177,16.46848 -68.8814,30.78524 -103.16348,46.42564 -16.94694,7.52167 -33.89399,15.04334 -50.84094,22.565 -27.27848,-12.60991 -61.28567,-10.14333 -84.98002,8.97944 -13.07736,9.93906 -22.67344,24.02145 -27.86016,39.57445 z"
         id="path104-9" />
      <path
         style="fill:#4cb848;fill-opacity:1;stroke-width:0.800001"
         d="M 219.26986,482.78583 C 186.97878,479.9223 154.91112,467.4803 126.90344,450.68692 69.212686,415.7598 28.508473,354.64737 18.112474,288.04116 c -3.720533,-20.84161 -2.866602,-42.25125 -1.990341,-63.27274 3.407802,-24.24154 9.313817,-48.66046 20.097676,-70.61352 6.421365,0.96662 13.506801,9.27001 20.185787,13.0817 36.732,26.94181 73.958454,53.41394 110.513684,80.46477 2.18471,13.12293 2.77343,27.53394 9.32041,39.84706 11.82248,24.90338 37.46911,42.67568 64.85463,44.96225 12.18317,0.77558 24.11158,-0.41333 35.70152,-4.21143 -3.77939,13.35401 -10.5489,28.78688 -15.48505,42.93772 -14.17439,37.08881 -27.16111,74.87989 -42.04093,111.54886 z"
         id="path102-4" />
      <path
         style="fill:#fdd300;fill-opacity:1;stroke-width:0.800001"
         d="m 279.7192,483.87362 c -7.11877,0.69377 0.39061,-13.5035 -1.02003,-18.56417 5.46524,-48.75369 9.79672,-97.65209 15.64377,-146.35007 26.47229,-18.22228 40.78044,-52.99894 32.91005,-84.395 -3.67126,-16.66312 -12.90026,-31.6469 -25.47316,-43.11575 5.16241,-5.16863 14.52529,-3.17519 21.31119,-5.57563 47.876,-7.80708 95.61527,-16.40383 143.53692,-23.98541 12.05073,26.91668 17.61905,56.99063 18.15783,86.48278 0.78122,46.43305 -13.22938,92.54988 -38.27751,131.5631 -22.05545,32.72037 -52.28414,60.22776 -86.91448,79.08651 -24.80238,13.12829 -52.07404,21.28633 -79.87458,24.85364 z"
         id="path90-7" />
      <path
         style="fill:url(#linearGradient943-6);fill-opacity:1;stroke-width:0.800001"
         d="m 171.73926,228.29988 c -5.17627,-6.18581 -2.37303,-16.4398 -4.15063,-24.27531 1.0494,-33.48907 10.70103,-66.97367 30.44472,-94.29854 25.19739,-36.322874 65.81218,-61.608639 109.61729,-67.841574 15.51529,-2.439098 31.7226,-2.408001 47.14241,-0.27665 33.14424,16.231437 61.97977,40.654273 84.33927,69.930784 -51.2376,23.33244 -103.00783,45.81412 -154.44992,68.81982 -12.81567,-6.87292 -27.194,-8.6119 -41.51689,-7.62203 -16.59352,0.27274 -32.92325,7.85029 -45.62738,18.34812 -11.69664,9.83277 -20.50325,22.71628 -25.34864,37.21471 h -0.45023 z"
         id="path98-4" />
      <path
         style="fill:url(#linearGradient951-1);fill-opacity:1;stroke-width:0.800001"
         d="m 169.13578,369.79536 c -47.68306,-0.0782 -94.377659,-22.62758 -124.780694,-59.28873 -12.42693,-15.60194 -23.85715,-33.16986 -28.692864,-52.6343 -0.31702,-35.22278 6.077285,-71.22941 21.770998,-102.8313 14.383722,9.01344 29.238244,21.02617 43.803246,31.19509 28.878874,21.32693 58.484514,41.84063 87.016234,63.52655 -0.47487,25.74377 10.6501,52.01788 31.63976,67.44703 21.41658,17.21891 51.74306,21.23164 77.39442,12.06349 -11.91895,12.87966 -28.72532,20.64442 -44.38262,28.38755 -20.33044,7.62429 -41.95799,12.61142 -63.76848,12.13462 z"
         id="path96-7" />
      <path
         style="fill:url(#linearGradient112-8);fill-opacity:1;stroke-width:0.800001"
         d="m 280.30429,484.29475 c -5.27715,-1.90456 0.33869,-13.11991 -0.51315,-18.66256 5.08838,-48.30662 10.12837,-96.6183 15.20135,-144.92655 21.32803,-15.86704 37.0202,-41.60173 34.66422,-68.82779 1.48962,-22.04834 -9.75613,-42.92753 -24.83593,-58.35484 3.79577,-0.68617 12.83206,4.94019 18.49112,7.02232 39.63326,20.13078 70.75382,56.43663 83.36588,99.16715 8.56956,28.45437 9.44879,59.07591 1.93743,87.88663 -5.82439,22.31739 -16.06122,43.8347 -30.82367,61.66237 -29.20316,18.81341 -62.97901,31.1191 -97.48725,35.03327 z"
         id="path67-7-6" />
      <circle
         style="fill:url(#linearGradient961-9);fill-opacity:1;stroke:#8b3134;stroke-width:0;stroke-linejoin:round;stroke-opacity:1"
         id="path953-8"
         cx="249.65741"
         cy="252.45674"
         r="64.893166" />
    </g>
  </g>
</svg>
