<?xml version="1.0" encoding="UTF-8" standalone="no"?>
<svg
   xmlns:dc="http://purl.org/dc/elements/1.1/"
   xmlns:cc="http://creativecommons.org/ns#"
   xmlns:rdf="http://www.w3.org/1999/02/22-rdf-syntax-ns#"
   xmlns:svg="http://www.w3.org/2000/svg"
   xmlns="http://www.w3.org/2000/svg"
   xmlns:xlink="http://www.w3.org/1999/xlink"
   xmlns:sodipodi="http://sodipodi.sourceforge.net/DTD/sodipodi-0.dtd"
   xmlns:inkscape="http://www.inkscape.org/namespaces/inkscape"
   inkscape:version="1.0 (4035a4fb49, 2020-05-01)"
   sodipodi:docname="Icon_BeAware_Statsitik.svg"
   viewBox="0 0 500.00001 500.00001"
   height="500"
   width="500"
   id="svg2"
   version="1.1">
  <metadata
     id="metadata8">
    <rdf:RDF>
      <cc:Work
         rdf:about="">
        <dc:format>image/svg+xml</dc:format>
        <dc:type
           rdf:resource="http://purl.org/dc/dcmitype/StillImage" />
        <dc:title />
      </cc:Work>
    </rdf:RDF>
  </metadata>
  <defs
     id="defs6">
    <linearGradient
       id="linearGradient1693"
       inkscape:collect="always">
      <stop
         id="stop1689"
         offset="0"
         style="stop-color:#55ff99;stop-opacity:1" />
      <stop
         id="stop1691"
         offset="1"
         style="stop-color:#3737c8;stop-opacity:1" />
    </linearGradient>
    <linearGradient
       inkscape:collect="always"
       id="linearGradient1493">
      <stop
         style="stop-color:#b46b93;stop-opacity:1"
         offset="0"
         id="stop1489" />
      <stop
         style="stop-color:#d8b5c9;stop-opacity:1"
         offset="1"
         id="stop1491" />
    </linearGradient>
    <linearGradient
       inkscape:collect="always"
       id="linearGradient1471">
      <stop
         style="stop-color:#44748b;stop-opacity:1"
         offset="0"
         id="stop1467" />
      <stop
         style="stop-color:#484848;stop-opacity:1"
         offset="1"
         id="stop1469" />
    </linearGradient>
    <linearGradient
       id="linearGradient1464"
       inkscape:collect="always">
      <stop
         id="stop1460"
         offset="0"
         style="stop-color:#484848;stop-opacity:1" />
      <stop
         id="stop1462"
         offset="1"
         style="stop-color:#44748b;stop-opacity:1" />
    </linearGradient>
    <rect
       id="rect1732"
       height="187.82524"
       width="247.48738"
       y="-427.57865"
       x="1727.9923" />
    <inkscape:path-effect
       effect="powerstroke"
       id="path-effect1295"
       is_visible="true"
       lpeversion="1"
       offset_points="1.3733599,8.5626218"
       sort_points="true"
       interpolator_type="CentripetalCatmullRom"
       interpolator_beta="0.75"
       start_linecap_type="round"
       linejoin_type="spiro"
       miter_limit="4"
       scale_width="1"
       end_linecap_type="round" />
    <inkscape:path-effect
       effect="simplify"
       id="path-effect1293"
       is_visible="true"
       lpeversion="1"
       steps="1"
       threshold="0.0040133779"
       smooth_angles="0"
       helper_size="0"
       simplify_individual_paths="false"
       simplify_just_coalesce="false"
       step="1" />
    <rect
       id="rect1575"
       height="199.40411"
       width="352.13917"
       y="-306.88434"
       x="239.00209" />
    <linearGradient
       id="linearGradient1237"
       inkscape:collect="always">
      <stop
         id="stop1233"
         offset="0"
         style="stop-color:#b46b93;stop-opacity:1" />
      <stop
         id="stop1235"
         offset="1"
         style="stop-color:#d8b5c9;stop-opacity:1" />
    </linearGradient>
    <rect
       x="-3139.5541"
       y="-610.94026"
       width="274.35743"
       height="127.27922"
       id="rect2025" />
    <rect
       id="rect1599"
       height="175"
       width="272.00346"
       y="875.00002"
       x="-2365.2258" />
    <rect
       id="rect1554"
       height="149.08579"
       width="303.31269"
       y="878.39733"
       x="-1513.0193" />
    <rect
       id="rect1522"
       height="80.586911"
       width="320.52487"
       y="878.39733"
       x="-1170.5249" />
    <rect
       id="rect1459"
       height="888.9434"
       width="2364.8174"
       y="621.12071"
       x="-4393.4318" />
    <inkscape:path-effect
       effect="powerstroke"
       id="path-effect201"
       is_visible="true"
       lpeversion="1"
       offset_points="0.71173182,62.454858"
       sort_points="true"
       interpolator_type="CentripetalCatmullRom"
       interpolator_beta="0.75"
       start_linecap_type="round"
       linejoin_type="spiro"
       miter_limit="4"
       scale_width="1"
       end_linecap_type="round" />
    <inkscape:path-effect
       effect="simplify"
       id="path-effect199"
       is_visible="true"
       lpeversion="1"
       steps="1"
       threshold="0.0040133779"
       smooth_angles="0"
       helper_size="0"
       simplify_individual_paths="false"
       simplify_just_coalesce="false"
       step="1" />
    <rect
       x="-1513.0193"
       y="878.39734"
       width="743.99385"
       height="105.14465"
       id="rect1554-0" />
    <rect
       x="-1513.0193"
       y="878.39734"
       width="303.31268"
       height="149.08578"
       id="rect1571" />
    <rect
       id="rect1554-0-7"
       height="105.14465"
       width="743.99384"
       y="878.39734"
       x="-1513.0193" />
    <rect
       id="rect1912"
       height="105.14465"
       width="743.99384"
       y="878.39734"
       x="-1513.0193" />
    <rect
       id="rect2025-7"
       height="127.27922"
       width="274.35742"
       y="-610.94025"
       x="-3139.5542" />
    <rect
       id="rect2038"
       height="127.27922"
       width="274.35742"
       y="-610.94025"
       x="-3139.5542" />
    <rect
       id="rect2025-6"
       height="127.27922"
       width="274.35742"
       y="-610.94025"
       x="-3139.5542" />
    <rect
       id="rect2067"
       height="127.27922"
       width="274.35742"
       y="-610.94025"
       x="-3139.5542" />
    <rect
       x="-3139.5542"
       y="-610.94025"
       width="274.35742"
       height="127.27922"
       id="rect2025-6-2" />
    <rect
       x="-3139.5542"
       y="-610.94025"
       width="274.35742"
       height="127.27922"
       id="rect2096" />
    <rect
       x="-3139.5542"
       y="-610.94025"
       width="274.35742"
       height="127.27922"
       id="rect2025-7-3" />
    <rect
       x="-3139.5542"
       y="-610.94025"
       width="274.35742"
       height="127.27922"
       id="rect2171" />
    <rect
       x="-3139.5542"
       y="-610.94025"
       width="274.35742"
       height="127.27922"
       id="rect2025-7-0" />
    <rect
       x="-3139.5542"
       y="-610.94025"
       width="274.35742"
       height="127.27922"
       id="rect2171-9" />
    <rect
       id="rect2025-7-0-7"
       height="127.27922"
       width="274.35742"
       y="-610.94025"
       x="-3139.5542" />
    <rect
       id="rect2241"
       height="127.27922"
       width="274.35742"
       y="-610.94025"
       x="-3139.5542" />
    <rect
       id="rect1554-0-72"
       height="105.14465"
       width="743.99384"
       y="878.39734"
       x="-1513.0193" />
    <rect
       id="rect2310"
       height="105.14465"
       width="743.99384"
       y="878.39734"
       x="-1513.0193" />
    <rect
       x="-1513.0193"
       y="878.39734"
       width="743.99384"
       height="105.14465"
       id="rect1554-0-7-7" />
    <rect
       x="-1513.0193"
       y="878.39734"
       width="743.99384"
       height="105.14465"
       id="rect2313" />
    <rect
       id="rect1554-0-78"
       height="105.14465"
       width="743.99384"
       y="878.39734"
       x="-1513.0193" />
    <rect
       id="rect1188"
       height="105.14465"
       width="743.99384"
       y="878.39734"
       x="-1513.0193" />
    <rect
       id="rect2025-7-0-79"
       height="127.27922"
       width="274.35742"
       y="-610.94025"
       x="-3139.5542" />
    <rect
       id="rect1229"
       height="127.27922"
       width="274.35742"
       y="-610.94025"
       x="-3139.5542" />
    <rect
       x="-3139.5542"
       y="-610.94025"
       width="274.35742"
       height="127.27922"
       id="rect2025-7-2" />
    <rect
       x="-3139.5542"
       y="-610.94025"
       width="274.35742"
       height="127.27922"
       id="rect1513" />
    <rect
       x="-3139.5542"
       y="-610.94025"
       width="274.35742"
       height="127.27922"
       id="rect2025-7-8" />
    <rect
       x="-3139.5542"
       y="-610.94025"
       width="274.35742"
       height="127.27922"
       id="rect1513-2" />
    <rect
       id="rect2025-7-8-9"
       height="127.27922"
       width="274.35742"
       y="-610.94025"
       x="-3139.5542" />
    <rect
       id="rect1588"
       height="127.27922"
       width="274.35742"
       y="-610.94025"
       x="-3139.5542" />
    <rect
       id="rect2025-7-2-8"
       height="127.27922"
       width="274.35742"
       y="-610.94025"
       x="-3139.5542" />
    <rect
       id="rect1795"
       height="127.27922"
       width="274.35742"
       y="-610.94025"
       x="-3139.5542" />
    <rect
       id="rect2025-7-8-2"
       height="127.27922"
       width="274.35742"
       y="-610.94025"
       x="-3139.5542" />
    <rect
       id="rect1827"
       height="127.27922"
       width="274.35742"
       y="-610.94025"
       x="-3139.5542" />
    <rect
       x="-3139.5542"
       y="-610.94025"
       width="274.35742"
       height="127.27922"
       id="rect2025-7-8-9-9" />
    <rect
       x="-3139.5542"
       y="-610.94025"
       width="274.35742"
       height="127.27922"
       id="rect1830" />
    <linearGradient
       y2="-840"
       x2="-2400"
       y1="-64"
       x1="-1888"
       gradientTransform="translate(-9671.6595,107.60387)"
       gradientUnits="userSpaceOnUse"
       id="linearGradient1286"
       xlink:href="#linearGradient1237"
       inkscape:collect="always" />
    <linearGradient
       inkscape:collect="always"
       xlink:href="#linearGradient1237"
       id="linearGradient1286-1"
       gradientUnits="userSpaceOnUse"
       gradientTransform="translate(-7895.0541,-95.68934)"
       x1="-1888"
       y1="-64"
       x2="-2400"
       y2="-840" />
    <rect
       x="1727.9923"
       y="-427.57864"
       width="247.48738"
       height="187.82524"
       id="rect1732-1" />
    <rect
       x="1727.9923"
       y="-427.57864"
       width="247.48738"
       height="187.82524"
       id="rect1749" />
    <rect
       x="1727.9923"
       y="-427.57864"
       width="247.48738"
       height="187.82524"
       id="rect1732-2" />
    <rect
       x="1727.9923"
       y="-427.57864"
       width="247.48738"
       height="187.82524"
       id="rect1749-7" />
    <rect
       x="1727.9923"
       y="-427.57864"
       width="247.48738"
       height="187.82524"
       id="rect1732-20" />
    <rect
       x="1727.9923"
       y="-427.57864"
       width="247.48738"
       height="187.82524"
       id="rect1848" />
    <rect
       x="1727.9923"
       y="-427.57864"
       width="247.48738"
       height="187.82524"
       id="rect1732-9" />
    <rect
       x="1727.9923"
       y="-427.57864"
       width="247.48738"
       height="187.82524"
       id="rect2352" />
    <rect
       id="rect1732-2-9"
       height="187.82524"
       width="247.48738"
       y="-427.57864"
       x="1727.9923" />
    <rect
       id="rect1509"
       height="187.82524"
       width="247.48738"
       y="-427.57864"
       x="1727.9923" />
    <linearGradient
       inkscape:collect="always"
       xlink:href="#linearGradient1464"
       id="linearGradient1502-2-6-6"
       x1="1108.7213"
       y1="211.57962"
       x2="935.10223"
       y2="327.8125"
       gradientUnits="userSpaceOnUse"
       gradientTransform="matrix(1.1456987,0,0,1.1456987,-1001.5844,525.85178)" />
    <linearGradient
       gradientUnits="userSpaceOnUse"
       y2="420"
       x2="1215.8922"
       y1="244.09503"
       x1="1216.4447"
       id="linearGradient1516-5-3-3"
       xlink:href="#linearGradient1471"
       inkscape:collect="always"
       gradientTransform="matrix(1.1456987,0,0,1.1456987,-1001.5844,525.85178)" />
    <linearGradient
       gradientTransform="matrix(1.1456987,0,0,1.1456987,-961.13973,1140.825)"
       gradientUnits="userSpaceOnUse"
       y2="-315.84708"
       x2="1217.8998"
       y1="-170.80267"
       x1="1097.3192"
       id="linearGradient1487-2"
       xlink:href="#linearGradient1493"
       inkscape:collect="always" />
    <linearGradient
       gradientUnits="userSpaceOnUse"
       y2="424.91129"
       x2="1204.6642"
       y1="428.6835"
       x1="950.72723"
       id="linearGradient1494-0-1-15"
       xlink:href="#linearGradient1464"
       inkscape:collect="always"
       gradientTransform="matrix(1.1456987,0,0,1.1456987,-1001.5844,525.85178)" />
    <linearGradient
       inkscape:collect="always"
       xlink:href="#linearGradient1693"
       id="linearGradient1502-2-6-4-2-0"
       x1="1113.1406"
       y1="204.9505"
       x2="1050.0071"
       y2="467.02414"
       gradientUnits="userSpaceOnUse"
       gradientTransform="matrix(1.1456987,0,0,1.1456987,-1003.7256,525.22703)" />
  </defs>
  <sodipodi:namedview
     showguides="true"
     inkscape:document-rotation="0"
     inkscape:current-layer="layer8"
     inkscape:window-maximized="1"
     inkscape:window-y="-8"
     inkscape:window-x="-8"
     inkscape:cy="241.71824"
     inkscape:cx="322.99725"
     inkscape:zoom="1.28"
     showgrid="true"
     id="namedview4"
     inkscape:window-height="1017"
     inkscape:window-width="1920"
     inkscape:pageshadow="2"
     inkscape:pageopacity="0"
     guidetolerance="1"
     gridtolerance="1"
     objecttolerance="1"
     borderopacity="1"
     bordercolor="#666666"
     pagecolor="#ffffff">
    <inkscape:grid
       visible="true"
       enabled="false"
       snapvisiblegridlinesonly="true"
       spacingy="5.0000001"
       spacingx="5.0000001"
       id="grid68"
       type="xygrid" />
  </sodipodi:namedview>
  <g
     inkscape:groupmode="layer"
     id="layer8"
     inkscape:label="Stastitik"
     style="display:inline">
    <g
       id="g1981"
       style="display:inline"
       transform="translate(-7.75247,-618.66995)">
      <path
         sodipodi:nodetypes="scccccscscccsscccs"
         id="path1403-3-9-7"
         style="display:inline;fill:url(#linearGradient1502-2-6-6);fill-opacity:1;stroke-width:0;stroke-linejoin:round"
         inkscape:transform-center-x="1.3578626"
         inkscape:transform-center-y="-46.578995"
         d="m 258.57294,666.29765 c -13.33662,-0.34164 -25.47644,6.77223 -36.63784,16.92369 L 33.693728,1012.641 c -10.151348,27.5061 -2.346735,48.0291 32.627778,57.4169 l 68.721744,-0.2953 c 14.42469,-23.7241 39.55834,-66.3842 67.31438,-113.84937 v -80.99776 c 0,-0.8494 0.12683,-1.66682 0.35803,-2.43909 0.4089,-4.27327 3.98715,-7.59472 8.37116,-7.59472 h 42.02606 c 12.1153,-20.84515 23.3042,-40.13447 33.93239,-58.46419 v -16.82298 -1.83043 c 0,-4.44097 3.57458,-8.01761 8.01542,-8.01761 h 7.44704 c 8.7308,-15.07212 17.40144,-30.0471 22.94536,-39.63178 l -33.48934,-57.41256 c -11.92213,-11.36293 -23.01788,-16.13877 -33.39081,-16.40446 z" />
      <path
         id="path1403-7-3-8-3"
         style="display:inline;fill:url(#linearGradient1516-5-3-3);fill-opacity:1;stroke-width:0;stroke-linejoin:round"
         inkscape:transform-center-x="1.357864"
         inkscape:transform-center-y="-46.578966"
         d="m 258.57294,666.29765 c -13.33662,-0.34164 -25.47644,6.77223 -36.63784,16.92369 l -30.84874,53.98429 c 17.92492,30.8901 45.61451,78.00336 74.91116,127.67603 h 4.33888 c 4.66013,0 8.41149,3.7536 8.41149,8.41373 v 1.62008 11.56888 c 2.86585,4.85466 5.42935,9.17664 8.29738,14.03256 v -110.92242 -1.83043 c 0,-4.44097 3.57458,-8.01761 8.01542,-8.01761 h 53.50997 l -56.60691,-97.04434 c -11.92213,-11.36293 -23.01788,-16.13877 -33.39081,-16.40446 z m 108.10285,144.48779 v 186.44902 c 0,4.44094 -3.57664,8.01764 -8.0176,8.01764 h -0.24838 -9.41845 c 14.77378,24.9435 29.01413,48.9774 37.5552,63.3782 l 65.89554,-0.2931 c 39.14669,-7.2699 35.65047,-36.9408 31.58725,-56.3631 l -31.82887,-54.56609 v 38.85305 c 0,4.55824 -3.66991,8.22804 -8.22807,8.22804 h -59.37709 c -4.55816,0 -8.22807,-3.6698 -8.22807,-8.22804 V 835.78047 c 0,-1.97985 0.69384,-3.7904 1.85054,-5.20712 z" />
      <path
         id="rect1656-4"
         style="display:inline;opacity:1;fill:url(#linearGradient1487-2);fill-opacity:1;stroke-width:0;stroke-linejoin:round"
         d="m 299.36828,783.22822 c -4.37244,0 -7.89236,3.52 -7.89236,7.89238 v 206.23918 c 0,4.37242 3.51992,7.89232 7.89236,7.89232 h 55.93336 c 4.37233,0 7.89237,-3.5199 7.89237,-7.89232 V 791.1206 c 0,-4.37238 -3.52004,-7.89238 -7.89237,-7.89238 z m 87.97259,46.53957 c -4.50111,0 -8.12506,3.62391 -8.12506,8.12507 V 996.364 c 0,4.5012 3.62395,8.1251 8.12506,8.1251 h 55.47026 c 4.5011,0 8.12507,-3.6239 8.12507,-8.1251 V 837.89286 c 0,-4.50116 -3.62397,-8.12507 -8.12507,-8.12507 z m -174.65854,38.91347 c -4.53479,0 -8.18557,3.6485 -8.18557,8.18325 v 120.96518 c 0,4.53471 3.65078,8.18321 8.18557,8.18321 h 55.34709 c 4.53479,0 8.18544,-3.6485 8.18544,-8.18321 V 876.86451 c 0,-4.53475 -3.65065,-8.18325 -8.18544,-8.18325 z" />
      <path
         id="path1403-4-4-7-8"
         style="display:inline;fill:url(#linearGradient1494-0-1-15);fill-opacity:1;stroke-width:0;stroke-linejoin:round"
         inkscape:transform-center-x="1.357856"
         inkscape:transform-center-y="-46.578991"
         d="m 199.70179,956.53833 c -27.60458,47.20337 -52.59089,89.60947 -66.94947,113.22497 l 42.29231,-0.1879 a 92.405596,92.405596 0 0 1 84.07687,-54.0671 92.405596,92.405596 0 0 1 83.72995,53.3174 l 109.591,-0.4878 c 39.14668,-7.2698 35.65059,-36.9407 31.58737,-56.363 l -32.33701,-55.43657 z" />
      <path
         id="path1403-3-9-8-3-9"
         style="display:inline;opacity:0.45;mix-blend-mode:multiply;fill:url(#linearGradient1502-2-6-4-2-0);fill-opacity:1;stroke-width:0;stroke-linejoin:round"
         inkscape:transform-center-x="1.3578332"
         inkscape:transform-center-y="-46.578973"
         d="m 256.43185,665.6741 c -13.33662,-0.34165 -25.47643,6.77233 -36.63783,16.92367 L 188.94528,736.58211 31.552646,1012.0174 c -10.151348,27.5062 -2.346735,48.0291 32.627778,57.417 l 66.430346,-0.2954 44.72705,-0.1992 a 92.405596,92.405596 0 0 1 83.78368,-53.4315 92.405596,92.405596 0 0 1 83.43241,52.6842 l 41.85157,-0.1858 65.89554,-0.2931 c 8.56341,-1.5902 15.08667,-4.2539 20.0094,-7.6462 0.70323,-0.4846 1.37254,-0.9836 2.01173,-1.497 0.6393,-0.5134 1.24606,-1.0395 1.82373,-1.5798 0.57789,-0.5403 1.12576,-1.0931 1.64464,-1.6581 v 0 c 0.51843,-0.5647 1.01028,-1.14 1.47246,-1.7275 v 0 c 0.46263,-0.5878 0.898,-1.1859 1.30677,-1.7947 1.63515,-2.4348 2.85016,-5.0292 3.728,-7.7177 1.31652,-4.0321 1.8739,-8.278 1.94906,-12.5222 v 0 c 0.0127,-0.7068 0.0115,-1.4135 0,-2.1191 v 0 c -0.0127,-0.7064 -0.0371,-1.4113 -0.0738,-2.1146 -0.0355,-0.7033 -0.0825,-1.4052 -0.13875,-2.1034 -0.39411,-4.8877 -1.255,-9.6251 -2.14371,-13.8737 l -32.33689,-55.44559 h -0.75639 V 837.26932 c 0,-4.50116 -3.62396,-8.12507 -8.12507,-8.12507 h -55.47014 c -4.5011,0 -8.12507,3.62391 -8.12507,8.12507 v 118.64469 h -2.84854 V 835.15694 c 0,-1.97986 0.69383,-3.7904 1.85052,-5.20711 L 364.537,810.1619 v 145.75211 h -3.48189 V 790.49706 c 0,-4.37236 -3.52005,-7.89233 -7.89238,-7.89233 h -55.93334 c -4.37245,0 -7.89227,3.51997 -7.89227,7.89233 v 165.41695 h -15.26116 v -79.67303 c 0,-4.53475 -3.65065,-8.18325 -8.18544,-8.18325 h -55.3471 c -4.53479,0 -8.18544,3.64849 -8.18544,8.18325 v 79.67303 h -4.79544 c 0.12546,-0.21452 0.23922,-0.40958 0.36479,-0.6243 v -80.99777 c 0,-0.84941 0.12683,-1.66682 0.35803,-2.43908 0.4089,-4.27327 3.98715,-7.59473 8.37117,-7.59473 h 44.31756 c 2.28418,-3.93015 4.17676,-7.19934 6.39758,-11.02287 2.25463,3.82485 4.20908,7.16065 6.48707,11.02287 h 4.33887 c 4.66013,0 8.41149,3.75359 8.41149,8.41372 v 1.62009 11.56888 c 2.86585,4.85465 5.42935,9.17664 8.29738,14.03256 v -94.09945 -16.82297 -1.83043 c 0,-4.44095 3.57457,-8.01765 8.01542,-8.01765 h 7.44704 46.06281 L 323.31419,739.4911 289.82485,682.07862 C 277.90271,670.7157 266.80696,665.93978 256.43403,665.6741 Z" />
    </g>
  </g>
</svg>
