<?xml version="1.0" encoding="UTF-8" standalone="no"?>
<svg
   xmlns:vectornator="http://vectornator.io"
   xmlns:dc="http://purl.org/dc/elements/1.1/"
   xmlns:cc="http://creativecommons.org/ns#"
   xmlns:rdf="http://www.w3.org/1999/02/22-rdf-syntax-ns#"
   xmlns:svg="http://www.w3.org/2000/svg"
   xmlns="http://www.w3.org/2000/svg"
   xmlns:sodipodi="http://sodipodi.sourceforge.net/DTD/sodipodi-0.dtd"
   xmlns:inkscape="http://www.inkscape.org/namespaces/inkscape"
   version="1.1"
   id="svg2"
   width="500"
   height="500"
   viewBox="0 0 500.00001 500.00001"
   sodipodi:docname="Desktop_Icons_BeAware_OfficeMailKlon.svg"
   inkscape:version="1.0 (4035a4fb49, 2020-05-01)">
  <metadata
     id="metadata8">
    <rdf:RDF>
      <cc:Work
         rdf:about="">
        <dc:format>image/svg+xml</dc:format>
        <dc:type
           rdf:resource="http://purl.org/dc/dcmitype/StillImage" />
        <dc:title />
      </cc:Work>
    </rdf:RDF>
  </metadata>
  <defs
     id="defs6" />
  <sodipodi:namedview
     pagecolor="#ffffff"
     bordercolor="#666666"
     borderopacity="1"
     objecttolerance="1"
     gridtolerance="1"
     guidetolerance="1"
     inkscape:pageopacity="0"
     inkscape:pageshadow="2"
     inkscape:window-width="1920"
     inkscape:window-height="1017"
     id="namedview4"
     showgrid="true"
     inkscape:zoom="0.35097847"
     inkscape:cx="-735.19107"
     inkscape:cy="-29.61925"
     inkscape:window-x="-8"
     inkscape:window-y="-8"
     inkscape:window-maximized="1"
     inkscape:current-layer="layer1"
     inkscape:document-rotation="0">
    <inkscape:grid
       type="xygrid"
       id="grid68"
       spacingx="5.0000001"
       spacingy="5.0000001"
       snapvisiblegridlinesonly="true"
       enabled="true" />
  </sodipodi:namedview>
  <g
     inkscape:groupmode="layer"
     id="layer1"
     inkscape:label="OfficeMail_Klon"
     style="display:inline"
     sodipodi:insensitive="true">
    <g
       transform="matrix(1.0891181,0,0,1.0891181,24.509505,2.2949578)"
       id="g1094"
       style="clip-rule:evenodd;fill-rule:nonzero;stroke-linecap:round;stroke-linejoin:round;stroke-miterlimit:10">
      <g
         id="Ebene-1"
         vectornator:layerName="Ebene 1">
        <path
           d="M 263.108,10 10.0139,70 c -0.02063,0.0057 -0.01633,314.312 0,314.312 L 263.108,450 c 0.018,0.003 -62.55,-120.172 -63.094,-120 -190.0001,60 -190.0001,-260 0,-190 z m -73.094,290 c -4.387,-7.622 -30.038,-69.744 -30.038,-69.744 L 190.014,160 c -130.0001,-80 -130.0001,210 0,140 z m 50,-200 c -0.009,0 -20,50 -20,50 l 40,40 130,-90 z m 160,10 -140,100 -50,-40 c 0,0 -30,59.989 -30,60 0,0 59.973,130 60,130 h 140 c 16.774,0 20,-5.101 20,-20 z"
           fill="#0070d1"
           fill-rule="nonzero"
           opacity="1"
           stroke="none"
           vectornator:layerName="Kurve 3"
           id="path1083" />
      </g>
    </g>
  </g>
</svg>
