<?xml version="1.0" encoding="UTF-8" standalone="no"?>
<svg
   xmlns:dc="http://purl.org/dc/elements/1.1/"
   xmlns:cc="http://creativecommons.org/ns#"
   xmlns:rdf="http://www.w3.org/1999/02/22-rdf-syntax-ns#"
   xmlns:svg="http://www.w3.org/2000/svg"
   xmlns="http://www.w3.org/2000/svg"
   xmlns:xlink="http://www.w3.org/1999/xlink"
   xmlns:sodipodi="http://sodipodi.sourceforge.net/DTD/sodipodi-0.dtd"
   xmlns:inkscape="http://www.inkscape.org/namespaces/inkscape"
   inkscape:version="1.0 (4035a4fb49, 2020-05-01)"
   sodipodi:docname="Icon_BeAware_Quiz.svg"
   viewBox="0 0 500.00001 500.00001"
   height="500"
   width="500"
   id="svg2"
   version="1.1">
  <metadata
     id="metadata8">
    <rdf:RDF>
      <cc:Work
         rdf:about="">
        <dc:format>image/svg+xml</dc:format>
        <dc:type
           rdf:resource="http://purl.org/dc/dcmitype/StillImage" />
        <dc:title />
      </cc:Work>
    </rdf:RDF>
  </metadata>
  <defs
     id="defs6">
    <linearGradient
       id="linearGradient1687"
       inkscape:collect="always">
      <stop
         id="stop1683"
         offset="0"
         style="stop-color:#ff0000;stop-opacity:1" />
      <stop
         id="stop1685"
         offset="1"
         style="stop-color:#ffff00;stop-opacity:1" />
    </linearGradient>
    <linearGradient
       inkscape:collect="always"
       id="linearGradient1508">
      <stop
         style="stop-color:#780101;stop-opacity:1"
         offset="0"
         id="stop1504" />
      <stop
         style="stop-color:#b46b93;stop-opacity:1"
         offset="1"
         id="stop1506" />
    </linearGradient>
    <linearGradient
       inkscape:collect="always"
       id="linearGradient1467">
      <stop
         style="stop-color:#adab6b;stop-opacity:1"
         offset="0"
         id="stop1463" />
      <stop
         style="stop-color:#785a14;stop-opacity:1"
         offset="1"
         id="stop1465" />
    </linearGradient>
    <linearGradient
       id="linearGradient1459"
       inkscape:collect="always">
      <stop
         id="stop1452"
         offset="0"
         style="stop-color:#785a14;stop-opacity:1" />
      <stop
         id="stop1457"
         offset="1"
         style="stop-color:#adab6b;stop-opacity:1" />
    </linearGradient>
    <rect
       id="rect1732"
       height="187.82524"
       width="247.48738"
       y="-427.57865"
       x="1727.9923" />
    <inkscape:path-effect
       effect="powerstroke"
       id="path-effect1295"
       is_visible="true"
       lpeversion="1"
       offset_points="1.3733599,8.5626218"
       sort_points="true"
       interpolator_type="CentripetalCatmullRom"
       interpolator_beta="0.75"
       start_linecap_type="round"
       linejoin_type="spiro"
       miter_limit="4"
       scale_width="1"
       end_linecap_type="round" />
    <inkscape:path-effect
       effect="simplify"
       id="path-effect1293"
       is_visible="true"
       lpeversion="1"
       steps="1"
       threshold="0.0040133779"
       smooth_angles="0"
       helper_size="0"
       simplify_individual_paths="false"
       simplify_just_coalesce="false"
       step="1" />
    <rect
       id="rect1575"
       height="199.40411"
       width="352.13917"
       y="-306.88434"
       x="239.00209" />
    <linearGradient
       id="linearGradient1237"
       inkscape:collect="always">
      <stop
         id="stop1233"
         offset="0"
         style="stop-color:#b46b93;stop-opacity:1" />
      <stop
         id="stop1235"
         offset="1"
         style="stop-color:#d8b5c9;stop-opacity:1" />
    </linearGradient>
    <rect
       x="-3139.5541"
       y="-610.94026"
       width="274.35743"
       height="127.27922"
       id="rect2025" />
    <rect
       id="rect1599"
       height="175"
       width="272.00346"
       y="875.00002"
       x="-2365.2258" />
    <rect
       id="rect1554"
       height="149.08579"
       width="303.31269"
       y="878.39733"
       x="-1513.0193" />
    <rect
       id="rect1522"
       height="80.586911"
       width="320.52487"
       y="878.39733"
       x="-1170.5249" />
    <rect
       id="rect1459"
       height="888.9434"
       width="2364.8174"
       y="621.12071"
       x="-4393.4318" />
    <inkscape:path-effect
       effect="powerstroke"
       id="path-effect201"
       is_visible="true"
       lpeversion="1"
       offset_points="0.71173182,62.454858"
       sort_points="true"
       interpolator_type="CentripetalCatmullRom"
       interpolator_beta="0.75"
       start_linecap_type="round"
       linejoin_type="spiro"
       miter_limit="4"
       scale_width="1"
       end_linecap_type="round" />
    <inkscape:path-effect
       effect="simplify"
       id="path-effect199"
       is_visible="true"
       lpeversion="1"
       steps="1"
       threshold="0.0040133779"
       smooth_angles="0"
       helper_size="0"
       simplify_individual_paths="false"
       simplify_just_coalesce="false"
       step="1" />
    <rect
       x="-1513.0193"
       y="878.39734"
       width="743.99385"
       height="105.14465"
       id="rect1554-0" />
    <rect
       x="-1513.0193"
       y="878.39734"
       width="303.31268"
       height="149.08578"
       id="rect1571" />
    <rect
       id="rect1554-0-7"
       height="105.14465"
       width="743.99384"
       y="878.39734"
       x="-1513.0193" />
    <rect
       id="rect1912"
       height="105.14465"
       width="743.99384"
       y="878.39734"
       x="-1513.0193" />
    <rect
       id="rect2025-7"
       height="127.27922"
       width="274.35742"
       y="-610.94025"
       x="-3139.5542" />
    <rect
       id="rect2038"
       height="127.27922"
       width="274.35742"
       y="-610.94025"
       x="-3139.5542" />
    <rect
       id="rect2025-6"
       height="127.27922"
       width="274.35742"
       y="-610.94025"
       x="-3139.5542" />
    <rect
       id="rect2067"
       height="127.27922"
       width="274.35742"
       y="-610.94025"
       x="-3139.5542" />
    <rect
       x="-3139.5542"
       y="-610.94025"
       width="274.35742"
       height="127.27922"
       id="rect2025-6-2" />
    <rect
       x="-3139.5542"
       y="-610.94025"
       width="274.35742"
       height="127.27922"
       id="rect2096" />
    <rect
       x="-3139.5542"
       y="-610.94025"
       width="274.35742"
       height="127.27922"
       id="rect2025-7-3" />
    <rect
       x="-3139.5542"
       y="-610.94025"
       width="274.35742"
       height="127.27922"
       id="rect2171" />
    <rect
       x="-3139.5542"
       y="-610.94025"
       width="274.35742"
       height="127.27922"
       id="rect2025-7-0" />
    <rect
       x="-3139.5542"
       y="-610.94025"
       width="274.35742"
       height="127.27922"
       id="rect2171-9" />
    <rect
       id="rect2025-7-0-7"
       height="127.27922"
       width="274.35742"
       y="-610.94025"
       x="-3139.5542" />
    <rect
       id="rect2241"
       height="127.27922"
       width="274.35742"
       y="-610.94025"
       x="-3139.5542" />
    <rect
       id="rect1554-0-72"
       height="105.14465"
       width="743.99384"
       y="878.39734"
       x="-1513.0193" />
    <rect
       id="rect2310"
       height="105.14465"
       width="743.99384"
       y="878.39734"
       x="-1513.0193" />
    <rect
       x="-1513.0193"
       y="878.39734"
       width="743.99384"
       height="105.14465"
       id="rect1554-0-7-7" />
    <rect
       x="-1513.0193"
       y="878.39734"
       width="743.99384"
       height="105.14465"
       id="rect2313" />
    <rect
       id="rect1554-0-78"
       height="105.14465"
       width="743.99384"
       y="878.39734"
       x="-1513.0193" />
    <rect
       id="rect1188"
       height="105.14465"
       width="743.99384"
       y="878.39734"
       x="-1513.0193" />
    <rect
       id="rect2025-7-0-79"
       height="127.27922"
       width="274.35742"
       y="-610.94025"
       x="-3139.5542" />
    <rect
       id="rect1229"
       height="127.27922"
       width="274.35742"
       y="-610.94025"
       x="-3139.5542" />
    <rect
       x="-3139.5542"
       y="-610.94025"
       width="274.35742"
       height="127.27922"
       id="rect2025-7-2" />
    <rect
       x="-3139.5542"
       y="-610.94025"
       width="274.35742"
       height="127.27922"
       id="rect1513" />
    <rect
       x="-3139.5542"
       y="-610.94025"
       width="274.35742"
       height="127.27922"
       id="rect2025-7-8" />
    <rect
       x="-3139.5542"
       y="-610.94025"
       width="274.35742"
       height="127.27922"
       id="rect1513-2" />
    <rect
       id="rect2025-7-8-9"
       height="127.27922"
       width="274.35742"
       y="-610.94025"
       x="-3139.5542" />
    <rect
       id="rect1588"
       height="127.27922"
       width="274.35742"
       y="-610.94025"
       x="-3139.5542" />
    <rect
       id="rect2025-7-2-8"
       height="127.27922"
       width="274.35742"
       y="-610.94025"
       x="-3139.5542" />
    <rect
       id="rect1795"
       height="127.27922"
       width="274.35742"
       y="-610.94025"
       x="-3139.5542" />
    <rect
       id="rect2025-7-8-2"
       height="127.27922"
       width="274.35742"
       y="-610.94025"
       x="-3139.5542" />
    <rect
       id="rect1827"
       height="127.27922"
       width="274.35742"
       y="-610.94025"
       x="-3139.5542" />
    <rect
       x="-3139.5542"
       y="-610.94025"
       width="274.35742"
       height="127.27922"
       id="rect2025-7-8-9-9" />
    <rect
       x="-3139.5542"
       y="-610.94025"
       width="274.35742"
       height="127.27922"
       id="rect1830" />
    <linearGradient
       y2="-840"
       x2="-2400"
       y1="-64"
       x1="-1888"
       gradientTransform="translate(-9671.6595,107.60387)"
       gradientUnits="userSpaceOnUse"
       id="linearGradient1286"
       xlink:href="#linearGradient1237"
       inkscape:collect="always" />
    <linearGradient
       inkscape:collect="always"
       xlink:href="#linearGradient1237"
       id="linearGradient1286-1"
       gradientUnits="userSpaceOnUse"
       gradientTransform="translate(-7895.0541,-95.68934)"
       x1="-1888"
       y1="-64"
       x2="-2400"
       y2="-840" />
    <rect
       x="1727.9923"
       y="-427.57864"
       width="247.48738"
       height="187.82524"
       id="rect1732-1" />
    <rect
       x="1727.9923"
       y="-427.57864"
       width="247.48738"
       height="187.82524"
       id="rect1749" />
    <rect
       x="1727.9923"
       y="-427.57864"
       width="247.48738"
       height="187.82524"
       id="rect1732-2" />
    <rect
       x="1727.9923"
       y="-427.57864"
       width="247.48738"
       height="187.82524"
       id="rect1749-7" />
    <rect
       x="1727.9923"
       y="-427.57864"
       width="247.48738"
       height="187.82524"
       id="rect1732-20" />
    <rect
       x="1727.9923"
       y="-427.57864"
       width="247.48738"
       height="187.82524"
       id="rect1848" />
    <rect
       x="1727.9923"
       y="-427.57864"
       width="247.48738"
       height="187.82524"
       id="rect1732-9" />
    <rect
       x="1727.9923"
       y="-427.57864"
       width="247.48738"
       height="187.82524"
       id="rect2352" />
    <rect
       id="rect1732-2-9"
       height="187.82524"
       width="247.48738"
       y="-427.57864"
       x="1727.9923" />
    <rect
       id="rect1509"
       height="187.82524"
       width="247.48738"
       y="-427.57864"
       x="1727.9923" />
    <linearGradient
       inkscape:collect="always"
       xlink:href="#linearGradient1459"
       id="linearGradient1502-2-2-6"
       x1="1108.7213"
       y1="211.57962"
       x2="935.10223"
       y2="327.8125"
       gradientUnits="userSpaceOnUse"
       gradientTransform="matrix(1.1456987,0,0,1.1456987,-1013.1534,-96.327)" />
    <linearGradient
       gradientUnits="userSpaceOnUse"
       y2="420"
       x2="1215.8922"
       y1="244.09503"
       x1="1216.4447"
       id="linearGradient1516-5-0-0"
       xlink:href="#linearGradient1467"
       inkscape:collect="always"
       gradientTransform="matrix(1.1456987,0,0,1.1456987,-1013.1534,-96.327)" />
    <linearGradient
       gradientTransform="matrix(1.1456987,0,0,1.1456987,-1929.2759,594.4342)"
       gradientUnits="userSpaceOnUse"
       y2="-354.62573"
       x2="2077.9766"
       y1="-212.6682"
       x1="1931.3774"
       id="linearGradient1501-7"
       xlink:href="#linearGradient1508"
       inkscape:collect="always" />
    <linearGradient
       gradientUnits="userSpaceOnUse"
       y2="424.91129"
       x2="1204.6642"
       y1="428.6835"
       x1="950.72723"
       id="linearGradient1494-0-6-1"
       xlink:href="#linearGradient1459"
       inkscape:collect="always"
       gradientTransform="matrix(1.1456987,0,0,1.1456987,-1013.1534,-96.327)" />
    <linearGradient
       inkscape:collect="always"
       xlink:href="#linearGradient1687"
       id="linearGradient1502-2-2-1-5-8"
       x1="1051.2511"
       y1="453.46652"
       x2="1121.9619"
       y2="179.46263"
       gradientUnits="userSpaceOnUse"
       gradientTransform="matrix(1.1456987,0,0,1.1456987,-1013.1527,-98.23355)" />
  </defs>
  <sodipodi:namedview
     showguides="true"
     inkscape:document-rotation="0"
     inkscape:current-layer="layer9"
     inkscape:window-maximized="1"
     inkscape:window-y="-8"
     inkscape:window-x="-8"
     inkscape:cy="241.71824"
     inkscape:cx="322.99725"
     inkscape:zoom="1.28"
     showgrid="true"
     id="namedview4"
     inkscape:window-height="1017"
     inkscape:window-width="1920"
     inkscape:pageshadow="2"
     inkscape:pageopacity="0"
     guidetolerance="1"
     gridtolerance="1"
     objecttolerance="1"
     borderopacity="1"
     bordercolor="#666666"
     pagecolor="#ffffff">
    <inkscape:grid
       visible="true"
       enabled="false"
       snapvisiblegridlinesonly="true"
       spacingy="5.0000001"
       spacingx="5.0000001"
       id="grid68"
       type="xygrid" />
  </sodipodi:namedview>
  <g
     inkscape:groupmode="layer"
     id="layer9"
     inkscape:label="Quiz"
     style="display:inline">
    <g
       id="g2246">
      <path
         id="path1403-3-6-7"
         style="display:inline;fill:url(#linearGradient1502-2-2-6);fill-opacity:1;stroke-width:0;stroke-linejoin:round"
         inkscape:transform-center-x="1.3578611"
         inkscape:transform-center-y="-46.578977"
         d="M 247.00337,44.1184 C 233.66675,43.7767 221.52705,50.8906 210.36565,61.042 L 22.124164,390.4617 c -10.151348,27.5061 -2.346735,48.029 32.627893,57.417 l 66.430353,-0.2954 c 20.98542,-34.5146 64.44646,-108.787 105.94802,-180.1007 h -34.15397 v -9.9353 c 0,-14.8055 5.01267,-27.3816 15.03512,-37.7276 10.19535,-10.5242 22.4628,-15.7846 36.80557,-15.7846 h 19.18152 c 20.76911,-35.7948 38.9777,-67.2423 49.88486,-86.0997 L 280.39419,60.5229 C 268.47194,49.16 257.37631,44.3842 247.00337,44.1184 Z" />
      <path
         id="path1403-7-3-0-8"
         style="display:inline;fill:url(#linearGradient1516-5-0-0);fill-opacity:1;stroke-width:0;stroke-linejoin:round"
         inkscape:transform-center-x="1.3578614"
         inkscape:transform-center-y="-46.57895"
         d="m 247.00337,44.1184 c -13.33662,-0.3417 -25.47632,6.7722 -36.63772,16.9236 l -30.84885,53.9844 c 13.3262,22.965 32.22667,55.1886 52.97287,90.4364 3.92481,-0.9446 8.03043,-1.4277 12.32748,-1.4277 h 25.92144 c 14.34253,0 26.52578,5.2604 36.54824,15.7846 0.83796,0.8504 1.62964,1.722 2.39874,2.6025 0,-2.0262 0,-4.0519 0.0539,-6.0776 0.28609,-12.4806 3.77714,-24.9234 10.37614,-35.5479 4.90978,-7.8147 11.24584,-14.7249 18.5617,-20.3541 L 280.39436,60.5229 C 268.47209,49.16 257.37646,44.3842 247.00354,44.1184 Z m 68.44209,186.2185 c 4.75362,8.0307 7.1337,17.1006 7.1337,27.2104 v 5.3526 c 0,9.6323 -4.32044,17.8361 -12.96073,24.6145 -6.65547,5.2215 -14.33967,8.4228 -23.04595,9.6221 36.22448,61.2924 70.8641,119.7399 88.40451,149.3146 l 65.89555,-0.2932 c 39.14668,-7.2698 35.65047,-36.9408 31.58725,-56.363 l -57.46388,-98.5167 c 0,0.2972 0,0.6016 0,0.8952 h -64.0763 v -6.6169 c -0.0825,-5.5277 -0.0115,-11.1188 1.2911,-16.5232 2.28806,-10.1526 8.27067,-19.2596 16.14942,-25.9728 4.03858,-3.5314 8.69951,-6.3188 13.688,-8.2728 l -2.5958,-4.4508 z m -56.56222,13.5806 c -1.08452,-0.019 -2.28281,0.1702 -3.47731,0.4453 3.30064,5.5959 6.6415,11.2493 9.97112,16.8901 0.5095,-0.949 0.77874,-2.0447 0.77874,-3.7056 v -3.059 c 0,-3.746 -1.29693,-6.8673 -3.88907,-9.3647 -0.75628,-0.8362 -1.97175,-1.1805 -3.38348,-1.2061 z m 124.8297,56.2735 c 3.86857,0.064 7.72775,0.6669 11.39432,1.9199 5.46292,1.78 10.38198,4.99 14.45551,9.0156 5.04703,4.7487 9.10086,10.7062 10.9177,17.4451 2.53509,9.0964 1.75717,19.1636 -2.50621,27.6266 -3.44775,6.8286 -8.8818,12.64 -15.41766,16.6059 -7.89226,4.8036 -17.57388,6.2086 -26.61515,4.6544 -10.30762,-1.7176 -19.68013,-7.9772 -25.44036,-16.6641 -5.66216,-8.3195 -7.59334,-18.8938 -5.84261,-28.75 1.43076,-8.8751 6.50918,-16.9023 13.33216,-22.6475 6.6148,-5.7667 15.28832,-9.0902 24.06414,-9.2015 0.55246,-0.013 1.10548,-0.014 1.65816,0 z" />
      <path
         d="m 382.97901,150.176 c -19.00898,0 -35.26953,6.7567 -48.78167,20.2691 -13.28334,13.2833 -19.9245,29.4305 -19.9245,48.4393 v 6.8697 h 68.70617 v -13.7416 c 0,-4.8095 1.60478,-8.8169 4.81101,-12.0232 3.43539,-3.4354 7.556,-5.1534 12.36553,-5.1534 4.80942,0 8.81901,1.718 12.02537,5.1534 3.43527,3.2063 5.15335,7.2137 5.15335,12.0232 v 6.8719 c 0,4.8094 -1.71808,8.9325 -5.15335,12.3677 -3.20636,3.2064 -7.21595,4.8088 -12.02537,4.8088 -12.36713,0 -22.90228,4.3518 -31.60524,13.0547 -8.70284,8.7029 -13.05237,19.238 -13.05237,31.6053 v 6.8696 h 54.96443 c 0,-4.8095 1.60238,-8.8168 4.80873,-12.0231 3.43538,-3.4354 7.55829,-5.1534 12.3677,-5.1534 16.03154,0 29.77408,-4.3519 41.2251,-13.0547 11.45115,-8.7029 17.17655,-19.2379 17.17655,-31.6052 v -6.8697 c 0,-19.0088 -6.75676,-35.156 -20.26902,-48.4393 -13.28335,-13.5124 -29.4283,-20.2691 -48.43716,-20.2691 z M 245.6652,209.0923 c -13.40548,0 -24.87312,4.7629 -34.40224,14.292 -9.36768,9.3677 -14.05051,20.7553 -14.05051,34.1607 v 4.8446 h 48.45275 v -9.6892 c 0,-3.3917 1.13126,-6.2197 3.39241,-8.4809 2.42269,-2.4227 5.32854,-3.634 8.72025,-3.634 3.39173,0 6.21966,1.2113 8.48081,3.634 2.42269,2.2612 3.63404,5.0892 3.63404,8.4809 v 4.8446 c 0,3.3918 -1.21135,6.2976 -3.63404,8.7203 -2.26115,2.2612 -5.08908,3.3923 -8.48081,3.3923 -8.7215,0 -16.14987,3.0685 -22.28739,9.2059 -6.1375,6.1374 -9.2059,13.5681 -9.2059,22.2896 v 4.8447 h 38.76127 c 0,-3.3917 1.13115,-6.2175 3.39241,-8.4786 2.42258,-2.4227 5.33071,-3.634 8.72255,-3.634 11.30575,0 20.99435,-3.0685 29.06981,-9.206 8.07568,-6.1373 12.11484,-13.5679 12.11484,-22.2896 v -4.8446 c 0,-13.4054 -4.76507,-24.793 -14.2943,-34.1607 -9.36769,-9.5291 -20.75296,-14.292 -34.15844,-14.292 z m 137.31381,95.6746 c -9.39003,0 -17.52025,3.4362 -24.39089,10.3069 -6.6415,6.6418 -9.96219,14.6564 -9.96219,24.0463 0,9.3899 3.32069,17.5203 9.96219,24.3909 6.87064,6.6416 15.00086,9.9622 24.39089,9.9622 9.38981,0 17.40671,-3.3206 24.04844,-9.9622 6.87064,-6.8706 10.30682,-15.001 10.30682,-24.3909 0,-9.3899 -3.43618,-17.4045 -10.30682,-24.0463 -6.64173,-6.8707 -14.65863,-10.3069 -24.04844,-10.3069 z M 245.6652,318.1126 c -6.62202,0 -12.35579,2.4227 -17.20118,7.268 -4.68373,4.6839 -7.02634,10.3354 -7.02634,16.9573 0,6.622 2.34261,12.3558 7.02634,17.2011 4.84539,4.684 10.57916,7.0264 17.20118,7.0264 6.62191,0 12.27559,-2.3424 16.95943,-7.0264 4.8455,-4.8453 7.26808,-10.5791 7.26808,-17.2011 0,-6.6219 -2.42258,-12.2734 -7.26808,-16.9573 -4.68373,-4.8453 -10.33752,-7.268 -16.95943,-7.268 z"
         style="font-style:normal;font-variant:normal;font-weight:normal;font-stretch:normal;font-size:133.333px;line-height:1.25;font-family:'Distant Galaxy';-inkscape-font-specification:'Distant Galaxy';white-space:pre;display:inline;fill:url(#linearGradient1501-7);fill-opacity:1;stroke:none;stroke-width:1.81701"
         id="path2386-0" />
      <path
         id="path1403-4-4-2-3"
         style="display:inline;fill:url(#linearGradient1494-0-6-1);fill-opacity:1;stroke-width:0;stroke-linejoin:round"
         inkscape:transform-center-x="1.3578617"
         inkscape:transform-center-y="-46.578953"
         d="m 188.13165,334.3582 c -27.60446,47.2034 -52.59077,89.6095 -66.94947,113.2251 l 41.81353,-0.1857 a 92.405596,92.405596 0 0 1 83.92242,-53.7316 92.405596,92.405596 0 0 1 83.57551,52.9841 l 110.37867,-0.4922 c 39.14668,-7.2698 35.65047,-36.9409 31.58725,-56.3631 l -32.33688,-55.4366 z" />
      <path
         id="path1403-3-6-4-5-1"
         style="display:inline;opacity:0.45;mix-blend-mode:multiply;fill:url(#linearGradient1502-2-2-1-5-8);fill-opacity:1;stroke-width:0;stroke-linejoin:round"
         inkscape:transform-center-x="1.3578583"
         inkscape:transform-center-y="-46.578983"
         d="m 247.00315,42.20985 c -13.33662,-0.3416 -25.47633,6.7723 -36.63772,16.9237 l -30.84886,53.9843 -157.392636,275.4353 c -10.151347,27.5061 -2.346848,48.029 32.627779,57.417 l 66.430467,-0.2954 41.81571,-0.1858 a 92.405596,92.405596 0 0 1 83.92024,-53.7292 92.405596,92.405596 0 0 1 83.57334,52.9819 l 110.38084,-0.4924 c 11.00993,-2.0445 18.64728,-5.8629 23.84714,-10.7251 0.57732,-0.5399 1.12599,-1.0913 1.64465,-1.6559 0.51877,-0.5651 1.00994,-1.1419 1.47245,-1.7298 2.77535,-3.5274 4.55862,-7.4484 5.62997,-11.5465 0.17838,-0.6823 0.33661,-1.3698 0.47672,-2.0609 0.14001,-0.6912 0.26259,-1.3852 0.36697,-2.0832 0.10424,-0.6988 0.19271,-1.4 0.26397,-2.1036 0.071,-0.7037 0.12511,-1.4102 0.16567,-2.1168 0.0401,-0.7058 0.068,-1.4122 0.0805,-2.119 0.0127,-0.7067 0.0115,-1.4135 0,-2.1192 -0.0127,-0.7064 -0.0384,-1.4112 -0.0739,-2.1146 -0.0355,-0.7033 -0.0825,-1.4053 -0.13874,-2.1034 -0.0562,-0.6984 -0.1227,-1.392 -0.19683,-2.0832 -0.14814,-1.3824 -0.32871,-2.7506 -0.53264,-4.0929 -0.20405,-1.342 -0.43204,-2.6591 -0.67127,-3.945 -0.23933,-1.2861 -0.49127,-2.5387 -0.74515,-3.7526 l -57.46401,-98.5166 v 0.8949 h -64.07629 v -6.6168 c -0.0825,-5.5276 -0.0115,-11.1186 1.2912,-16.523 2.28808,-10.1527 8.27069,-19.2598 16.14943,-25.973 4.03859,-3.5314 8.6994,-6.3187 13.68789,-8.2727 l -2.5957,-4.4507 h -64.00697 c 4.75362,8.0306 7.13369,17.1005 7.13381,27.2102 v 5.3526 c 0,9.6323 -4.32032,17.8363 -12.96072,24.6146 -6.65537,5.2214 -14.33979,8.4228 -23.04607,9.6222 7.7896,13.1801 14.53456,24.5656 22.02342,37.2239 h -40.04125 c -1.18659,-3.3091 -3.1611,-6.3031 -5.9299,-8.9798 -4.68396,-4.8453 -10.33753,-7.2681 -16.95944,-7.2681 -6.62191,0 -12.3536,2.4228 -17.199,7.2681 -2.67646,2.6766 -4.58577,5.6708 -5.73296,8.9798 H 188.1339 c -7.38093,12.6215 -14.50752,24.7841 -21.36109,36.452 18.6058,-31.6793 39.71598,-67.8575 60.35953,-103.33 h -34.15381 v -9.9353 c 0,-14.8053 5.01255,-27.3816 15.035,-37.7274 7.14092,-7.3714 15.30321,-12.1492 24.47819,-14.3571 0.94074,-0.2265 1.89373,-0.4221 2.8552,-0.5952 0.10192,-0.018 0.20451,-0.035 0.3066,-0.052 0.82146,-0.1427 1.6514,-0.2634 2.48833,-0.367 0.22731,-0.027 0.45393,-0.054 0.6825,-0.078 0.75444,-0.083 1.51759,-0.1456 2.28463,-0.197 0.23762,-0.016 0.47271,-0.037 0.7116,-0.049 0.98988,-0.053 1.98767,-0.088 2.99852,-0.088 h 19.18151 6.73992 c 14.34254,0 26.52579,5.2603 36.54825,15.7846 0.83796,0.8503 1.62975,1.722 2.39886,2.6024 0,-2.0263 -3.5e-4,-4.0519 0.0537,-6.0775 0.28608,-12.4807 3.77725,-24.9233 10.37625,-35.548 4.90978,-7.8145 11.24583,-14.7249 18.56169,-20.354 l -24.79372,-42.5073 -33.48923,-57.4124 c -11.92226,-11.3629 -23.018,-16.1389 -33.39093,-16.4046 z m 135.97781,106.0599 c -19.00898,0 -35.26942,6.7544 -48.78167,20.2668 -13.28334,13.2833 -19.92438,29.4305 -19.92438,48.4393 v 6.8697 h 68.70605 v -13.7416 c 0,-4.8095 1.60261,-8.8168 4.80884,-12.0232 3.43538,-3.4353 7.55829,-5.1534 12.3677,-5.1534 4.80953,0 8.81684,1.7181 12.0232,5.1534 3.43525,3.2064 5.15335,7.2137 5.15335,12.0232 v 6.8719 c 0,4.8096 -1.7181,8.9324 -5.15335,12.3677 -3.20636,3.2063 -7.21367,4.8088 -12.0232,4.8088 -12.36701,0 -22.90217,4.3518 -31.60512,13.0547 -8.70284,8.7029 -13.05479,19.238 -13.05479,31.6053 v 6.8696 h 54.96673 c 0,-4.8094 1.60238,-8.8168 4.80885,-12.0231 3.43537,-3.4354 7.55817,-5.1534 12.3677,-5.1534 16.03152,0 29.77178,-4.3519 41.2228,-13.0548 11.45114,-8.7028 17.17655,-19.2378 17.17655,-31.6051 v -6.8697 c 0,-19.0088 -6.75447,-35.156 -20.26684,-48.4393 -13.28335,-13.5124 -29.43047,-20.2668 -48.43933,-20.2668 z m -137.31599,58.9139 c -13.40548,0 -24.87094,4.7629 -34.40006,14.2922 -9.36769,9.3675 -14.05268,20.7551 -14.05268,34.1606 v 4.8447 h 48.45274 v -9.6893 c 0,-3.3917 1.13114,-6.2197 3.3923,-8.4808 2.4227,-2.4227 5.33081,-3.634 8.72254,-3.634 3.39185,0 6.21748,1.2113 8.47863,3.634 2.42269,2.2611 3.63405,5.0891 3.63405,8.4808 v 4.8446 c 0,3.3917 -1.21136,6.2998 -3.63405,8.7225 -2.26115,2.2612 -5.08678,3.3902 -8.47863,3.3902 -8.72151,0 -16.15217,3.0683 -22.28967,9.2058 -6.1374,6.1375 -9.20581,13.568 -9.20581,22.2896 v 4.8448 h 38.76356 c 0,-3.3918 1.13115,-6.2176 3.39231,-8.4787 2.4227,-2.4227 5.32841,-3.6341 8.72025,-3.6341 11.30576,0 20.99653,-3.0684 29.07211,-9.2059 8.07557,-6.1375 12.11266,-13.5679 12.11266,-22.2895 v -4.8447 c 0,-13.4055 -4.76289,-24.7931 -14.29213,-34.1606 -9.36757,-9.5293 -20.75512,-14.2922 -34.1606,-14.2922 z m 13.21804,34.8252 c -1.08452,-0.02 -2.28281,0.1704 -3.47731,0.4453 3.30064,5.5961 6.6415,11.2493 9.97113,16.8902 0.50949,-0.9489 0.77873,-2.0448 0.77873,-3.7056 v -3.0589 c 0,-3.746 -1.29705,-6.8675 -3.88919,-9.3648 -0.75628,-0.8362 -1.97163,-1.1804 -3.38336,-1.2062 z m 124.82971,56.2735 c 3.86856,0.064 7.72773,0.667 11.39431,1.92 5.46292,1.7799 10.38198,4.99 14.45551,9.0157 5.04704,4.7486 9.10086,10.7061 10.91771,17.445 0.52805,1.8947 0.90442,3.8335 1.14341,5.7889 h -4.60732 c -0.98496,-7.3662 -4.3084,-13.7974 -9.98682,-19.2866 -6.64173,-6.8708 -14.65865,-10.3069 -24.04856,-10.3069 -9.38992,0 -17.52014,3.4361 -24.39078,10.3069 -5.48915,5.4892 -8.7033,11.9204 -9.65572,19.2866 h -4.6096 c 0.0917,-0.7745 0.19717,-1.5488 0.3334,-2.316 1.43074,-8.8752 6.50917,-16.9023 13.33215,-22.6476 6.6148,-5.7667 15.28832,-9.0902 24.06414,-9.2014 0.55245,-0.013 1.10548,-0.014 1.65817,0 z" />
    </g>
  </g>
</svg>
