<?xml version="1.0" encoding="UTF-8" standalone="no"?>
<svg
   xmlns:dc="http://purl.org/dc/elements/1.1/"
   xmlns:cc="http://creativecommons.org/ns#"
   xmlns:rdf="http://www.w3.org/1999/02/22-rdf-syntax-ns#"
   xmlns:svg="http://www.w3.org/2000/svg"
   xmlns="http://www.w3.org/2000/svg"
   xmlns:xlink="http://www.w3.org/1999/xlink"
   xmlns:sodipodi="http://sodipodi.sourceforge.net/DTD/sodipodi-0.dtd"
   xmlns:inkscape="http://www.inkscape.org/namespaces/inkscape"
   version="1.1"
   id="svg2"
   width="500"
   height="500"
   viewBox="0 0 500.00001 500.00001"
   sodipodi:docname="Desktop_Icons_BeAware_SafariKlon.svg"
   inkscape:version="1.0 (4035a4fb49, 2020-05-01)">
  <metadata
     id="metadata8">
    <rdf:RDF>
      <cc:Work
         rdf:about="">
        <dc:format>image/svg+xml</dc:format>
        <dc:type
           rdf:resource="http://purl.org/dc/dcmitype/StillImage" />
        <dc:title />
      </cc:Work>
    </rdf:RDF>
  </metadata>
  <defs
     id="defs6">
    <linearGradient
       inkscape:collect="always"
       id="linearGradient1505">
      <stop
         style="stop-color:#00c0e3;stop-opacity:1"
         offset="0"
         id="stop1501" />
      <stop
         style="stop-color:#0e6fd5;stop-opacity:1"
         offset="1"
         id="stop1503" />
    </linearGradient>
    <radialGradient
       inkscape:collect="always"
       xlink:href="#linearGradient1505"
       id="radialGradient1509"
       gradientUnits="userSpaceOnUse"
       gradientTransform="matrix(0.80172556,0.01057667,-0.01055585,0.80021688,51.78689,47.324074)"
       cx="250.52426"
       cy="249.96501"
       fx="250.52426"
       fy="249.96501"
       r="200.98595" />
    <linearGradient
       inkscape:collect="always"
       xlink:href="#linearGradient1536"
       id="linearGradient1538"
       x1="250"
       y1="476.82227"
       x2="253.022"
       y2="54.030308"
       gradientUnits="userSpaceOnUse" />
    <linearGradient
       inkscape:collect="always"
       id="linearGradient1536">
      <stop
         style="stop-color:#b3b3b3;stop-opacity:1"
         offset="0"
         id="stop1532" />
      <stop
         style="stop-color:#f2f2f2;stop-opacity:0;"
         offset="1"
         id="stop1534" />
    </linearGradient>
  </defs>
  <sodipodi:namedview
     pagecolor="#ffffff"
     bordercolor="#666666"
     borderopacity="1"
     objecttolerance="1"
     gridtolerance="1"
     guidetolerance="1"
     inkscape:pageopacity="0"
     inkscape:pageshadow="2"
     inkscape:window-width="1920"
     inkscape:window-height="1017"
     id="namedview4"
     showgrid="true"
     inkscape:zoom="0.35097847"
     inkscape:cx="-735.19107"
     inkscape:cy="-29.61925"
     inkscape:window-x="-8"
     inkscape:window-y="-8"
     inkscape:window-maximized="1"
     inkscape:current-layer="layer3"
     inkscape:document-rotation="0">
    <inkscape:grid
       type="xygrid"
       id="grid68"
       spacingx="5.0000001"
       spacingy="5.0000001"
       snapvisiblegridlinesonly="true"
       enabled="true" />
  </sodipodi:namedview>
  <g
     inkscape:groupmode="layer"
     id="layer3"
     inkscape:label="Safari_Klon"
     style="display:inline;opacity:1;mix-blend-mode:normal">
    <g
       id="g934">
      <circle
         r="224.73193"
         cy="250.31264"
         cx="250.31262"
         id="path1149"
         style="fill:#f2f2f2;fill-opacity:1;stroke:#366789;stroke-width:0;stroke-linejoin:round;stroke-opacity:1" />
      <circle
         style="fill:url(#radialGradient1509);fill-opacity:1;stroke:#366789;stroke-width:0;stroke-linejoin:round;stroke-opacity:1"
         id="path1149-0"
         cx="250.31262"
         cy="250.31264"
         r="200.98595" />
      <rect
         transform="scale(-1)"
         style="fill:#f9f9f9;fill-opacity:1;stroke:#366789;stroke-width:0;stroke-linejoin:round;stroke-opacity:1"
         id="rect1181-0"
         width="4.8061671"
         height="42.31818"
         x="-252.33449"
         y="-446.17892"
         ry="1.8655903" />
      <path
         id="rect1582-2"
         style="fill:#00518a;fill-opacity:1;stroke-width:0;stroke-linejoin:round"
         d="m 180.93132,364.78423 65.14938,-124.25484 26.56307,7.15709 -55.5797,132.31353 -26.55959,11.88938 z"
         sodipodi:nodetypes="cccccc" />
      <path
         sodipodi:nodetypes="cccccc"
         d="M 390.00001,165 225.85776,292.34714 233.51949,267.73591 370.96733,142.40345 401.4428,137.7073 Z"
         style="fill:#00497d;fill-opacity:1;stroke-width:0;stroke-linejoin:round"
         id="rect1582-1-9" />
      <path
         transform="rotate(-6)"
         d="m 222.74418,79.627594 h 0.55048 c 0.52926,0 0.95534,0.426079 0.95534,0.955335 v 19.759701 c 0,0.52926 -0.42608,0.95534 -0.95534,0.95534 h -0.55048 c -0.52925,0 -0.95533,-0.42608 -0.95533,-0.95534 V 80.582929 c 0,-0.529256 0.42608,-0.955335 0.95533,-0.955335 z m -20.3487,0.572391 0.54747,-0.05754 c 0.52636,-0.05532 0.99464,0.323886 1.04997,0.850246 l 2.06545,19.651449 c 0.0553,0.52637 -0.32389,0.99464 -0.85025,1.04996 l -0.54746,0.0575 c -0.52636,0.0553 -0.99464,-0.32387 -1.04996,-0.85024 l -2.06545,-19.651448 c -0.0553,-0.526361 0.32388,-0.994644 0.85023,-1.049966 z m -20.84173,2.773376 0.53845,-0.114452 c 0.51769,-0.110039 1.02305,0.218143 1.13309,0.735838 l 4.10827,19.327903 c 0.11004,0.51768 -0.21814,1.02304 -0.73584,1.13308 l -0.53845,0.11445 c -0.51768,0.11004 -1.02304,-0.21814 -1.13308,-0.73583 l -4.10827,-19.327902 c -0.11004,-0.517694 0.21814,-1.02305 0.73583,-1.133087 z m -19.6476,5.3122 0.52354,-0.170108 c 0.50335,-0.16355 1.04025,0.11001 1.20379,0.613357 l 6.10609,18.79259 c 0.16355,0.50336 -0.11001,1.04025 -0.61337,1.2038 l -0.52354,0.17011 c -0.50334,0.16354 -1.04024,-0.11002 -1.20379,-0.61337 l -6.10608,-18.792593 c -0.16355,-0.503346 0.11001,-1.040239 0.61336,-1.203786 z m -36.06415,17.663119 0.47673,-0.27524 c 0.45835,-0.26462 1.04038,-0.10867 1.30501,0.34968 l 9.87985,17.1124 c 0.26463,0.45835 0.10867,1.04039 -0.34968,1.30501 l -0.47673,0.27524 c -0.45835,0.26463 -1.04038,0.10868 -1.30501,-0.34968 l -9.87985,-17.1124 c -0.26463,-0.45834 -0.10867,-1.04038 0.34968,-1.30501 z m -17.3363,10.67017 0.44535,-0.32357 c 0.42817,-0.31108 1.02332,-0.21682 1.33441,0.21135 l 11.61446,15.98594 c 0.31109,0.42817 0.21683,1.02332 -0.21135,1.33441 l -0.44535,0.32357 c -0.42818,0.31109 -1.02332,0.21682 -1.33441,-0.21135 l -11.61447,-15.98594 c -0.31108,-0.42817 -0.21682,-1.02332 0.21136,-1.33441 z m -16.662771,12.82266 0.409086,-0.36835 c 0.393314,-0.35414 0.995056,-0.3226 1.349193,0.0707 l 13.221822,14.68432 c 0.35414,0.39331 0.32261,0.99505 -0.0707,1.3492 l -0.40908,0.36834 c -0.39332,0.35414 -0.99506,0.3226 -1.3492,-0.0707 L 91.772217,130.7907 c -0.354137,-0.39331 -0.322602,-0.99505 0.07071,-1.34919 z m -14.359203,14.42423 0.368344,-0.40909 c 0.354141,-0.39331 0.955883,-0.42485 1.349199,-0.0707 l 14.684319,13.22182 c 0.393317,0.35414 0.424854,0.95588 0.07071,1.3492 l -0.368343,0.40908 c -0.354141,0.39332 -0.955883,0.42485 -1.3492,0.0707 L 77.554438,145.21494 c -0.393317,-0.35414 -0.424853,-0.95589 -0.07071,-1.3492 z m 65.782974,-50.28249 0.98205,-0.437237 c 0.94418,-0.420377 2.04273,0.0013 2.46311,0.945498 l 15.69474,35.250979 c 0.42038,0.94419 -0.001,2.04273 -0.9455,2.4631 l -0.98204,0.43724 c -0.94419,0.42038 -2.04273,-0.001 -2.46311,-0.9455 L 142.3212,96.046355 c -0.42037,-0.944177 0.001,-2.042728 0.9455,-2.463105 z m -88.954152,84.05986 0.27524,-0.47673 c 0.26463,-0.45835 0.846666,-0.61431 1.305019,-0.34968 l 17.112402,9.87985 c 0.458352,0.26463 0.614308,0.84667 0.349678,1.30502 l -0.27524,0.47673 c -0.264625,0.45834 -0.846661,0.6143 -1.305013,0.34967 l -17.112402,-9.87985 c -0.458353,-0.26463 -0.614309,-0.84667 -0.349684,-1.30501 z m -9.678633,17.90876 0.223901,-0.50289 c 0.215265,-0.4835 0.777811,-0.69944 1.261305,-0.48417 l 18.051384,8.03699 c 0.483503,0.21527 0.699444,0.77782 0.484179,1.26131 l -0.223901,0.50289 c -0.215269,0.4835 -0.777815,0.69944 -1.261318,0.48417 l -18.051384,-8.03699 c -0.483494,-0.21527 -0.699435,-0.77781 -0.484166,-1.26131 z m -8.019048,19.43609 0.170108,-0.52354 c 0.16355,-0.50336 0.700442,-0.77692 1.203789,-0.61337 l 18.792591,6.10608 c 0.503357,0.16355 0.776917,0.70044 0.613367,1.2038 l -0.170108,0.52354 c -0.16355,0.50335 -0.70044,0.77691 -1.203796,0.61335 l -18.792591,-6.10608 c -0.503347,-0.16355 -0.77691,-0.70043 -0.61336,-1.20378 z m -5.223285,19.67141 0.114451,-0.53845 c 0.110037,-0.51769 0.615393,-0.84587 1.133083,-0.73583 l 19.327902,4.10827 c 0.517694,0.11004 0.845876,0.6154 0.735839,1.13308 l -0.114451,0.53845 c -0.110039,0.5177 -0.615396,0.84588 -1.13309,0.73584 l -19.327902,-4.10827 c -0.51769,-0.11004 -0.845872,-0.6154 -0.735832,-1.13309 z m 32.837922,-76.66447 0.631861,-0.86969 c 0.607498,-0.83615 1.769717,-1.02022 2.605861,-0.41272 l 31.217538,22.68087 c 0.836152,0.60749 1.020226,1.76971 0.412728,2.60586 l -0.631861,0.86968 c -0.607498,0.83615 -1.769709,1.02023 -2.605861,0.41273 L 64.642231,160.60076 c -0.836143,-0.6075 -1.020225,-1.76971 -0.412727,-2.60586 z M 28.563318,274.14928 v -0.55048 c 0,-0.52926 0.42608,-0.95534 0.955335,-0.95534 h 19.759702 c 0.529256,0 0.955335,0.42608 0.955335,0.95534 v 0.55048 c 0,0.52925 -0.426079,0.95533 -0.955335,0.95533 H 29.518653 c -0.529255,0 -0.955335,-0.42608 -0.955335,-0.95533 z m 0.572395,20.34875 -0.05754,-0.54746 c -0.05532,-0.52636 0.323886,-0.99464 0.850242,-1.04996 l 19.651457,-2.06545 c 0.526357,-0.0553 0.994639,0.32388 1.049961,0.85023 l 0.05754,0.54747 c 0.05532,0.52636 -0.323884,0.99464 -0.850241,1.04997 l -19.651456,2.06545 c -0.526357,0.0553 -0.994639,-0.32389 -1.049962,-0.85025 z m 2.773325,20.8417 -0.114451,-0.53845 c -0.11004,-0.5177 0.218143,-1.02305 0.735832,-1.13309 l 19.327905,-4.10827 c 0.517691,-0.11004 1.023046,0.21814 1.133085,0.73583 l 0.114451,0.53845 c 0.110038,0.51769 -0.218144,1.02304 -0.735834,1.13308 l -19.327905,4.10828 c -0.51769,0.11003 -1.023046,-0.21815 -1.133083,-0.73583 z m 5.312319,19.64761 -0.170107,-0.52354 c -0.163551,-0.50336 0.11001,-1.04025 0.613361,-1.2038 l 18.792593,-6.10608 c 0.503353,-0.16355 1.040244,0.11001 1.203794,0.61336 l 0.170108,0.52354 c 0.16355,0.50336 -0.110009,1.04025 -0.613361,1.2038 l -18.792594,6.10608 c -0.503351,0.16355 -1.040243,-0.11001 -1.203794,-0.61336 z m 17.663105,36.06426 -0.275245,-0.47674 c -0.264625,-0.45835 -0.108669,-1.04038 0.349675,-1.30501 L 72.071303,359.39 c 0.458344,-0.26463 1.04038,-0.10867 1.305005,0.34967 l 0.275245,0.47674 c 0.264625,0.45835 0.108669,1.04038 -0.349675,1.30501 l -17.112411,9.87985 c -0.458344,0.26463 -1.04038,0.10867 -1.305005,-0.34967 z m 10.670169,17.33627 -0.323564,-0.44535 c -0.311086,-0.42817 -0.216823,-1.02332 0.211357,-1.33441 l 15.985933,-11.61446 c 0.428181,-0.3111 1.02333,-0.21683 1.334415,0.21134 l 0.323564,0.44535 c 0.311092,0.42818 0.216829,1.02333 -0.211351,1.33442 l -15.985933,11.61446 c -0.42818,0.31109 -1.02333,0.21683 -1.334421,-0.21135 z m 12.822569,16.66276 -0.368343,-0.40909 c -0.354144,-0.39332 -0.322608,-0.99506 0.0707,-1.3492 l 14.684319,-13.22182 c 0.393317,-0.35414 0.995059,-0.32261 1.349204,0.0707 l 0.368343,0.40909 c 0.354137,0.39331 0.322601,0.99505 -0.07072,1.34919 l -14.684319,13.22182 c -0.393309,0.35414 -0.995051,0.32261 -1.349189,-0.0707 z m 14.424373,14.35921 -0.409086,-0.36834 c -0.393317,-0.35415 -0.424853,-0.95589 -0.07071,-1.34921 L 105.5436,403.00798 c 0.35414,-0.39332 0.95588,-0.42486 1.3492,-0.0707 l 0.40909,0.36834 c 0.39331,0.35414 0.42484,0.95588 0.0707,1.3492 l -13.221821,14.68432 c -0.354144,0.39331 -0.955886,0.42485 -1.349196,0.0707 z m -50.28246,-65.78303 -0.437238,-0.98205 c -0.420378,-0.94419 0.0013,-2.04273 0.945498,-2.4631 l 35.25098,-15.69475 c 0.944183,-0.42038 2.042727,10e-4 2.463105,0.9455 l 0.437238,0.98205 c 0.420375,0.94417 -0.0013,2.04273 -0.945497,2.4631 l -35.250981,15.69475 c -0.944176,0.42037 -2.04273,-0.001 -2.463105,-0.9455 z m 84.059757,88.95415 -0.47673,-0.27524 c -0.45835,-0.26463 -0.61431,-0.84666 -0.34968,-1.30502 l 9.87985,-17.1124 c 0.26463,-0.45834 0.84667,-0.6143 1.30502,-0.34967 l 0.47673,0.27524 c 0.45834,0.26463 0.6143,0.84666 0.34967,1.30501 l -9.87985,17.1124 c -0.26463,0.45835 -0.84666,0.61431 -1.30501,0.34968 z m 17.90879,9.67867 -0.50289,-0.2239 c -0.48349,-0.21527 -0.69943,-0.77782 -0.48416,-1.26132 l 8.03699,-18.05138 c 0.21527,-0.48351 0.77782,-0.69945 1.26131,-0.48418 l 0.50289,0.2239 c 0.4835,0.21527 0.69944,0.77781 0.48418,1.26132 l -8.037,18.05138 c -0.21527,0.4835 -0.77781,0.69945 -1.26132,0.48418 z m 19.4361,8.01903 -0.52354,-0.17011 c -0.50334,-0.16355 -0.77691,-0.70043 -0.61336,-1.20378 l 6.10609,-18.7926 c 0.16355,-0.50335 0.70044,-0.77691 1.20379,-0.61336 l 0.52353,0.1701 c 0.50336,0.16355 0.77692,0.70045 0.61337,1.2038 l -6.10608,18.79259 c -0.16355,0.50336 -0.70044,0.77691 -1.2038,0.61336 z m 19.67139,5.22324 -0.53845,-0.11445 c -0.51769,-0.11004 -0.84587,-0.61539 -0.73583,-1.13309 l 4.10827,-19.3279 c 0.11004,-0.51769 0.6154,-0.84587 1.13308,-0.73583 l 0.53845,0.11445 c 0.51769,0.11004 0.84588,0.6154 0.73584,1.13308 l -4.10827,19.3279 c -0.11004,0.5177 -0.6154,0.84588 -1.13309,0.73584 z m -76.66454,-32.83789 -0.86967,-0.63186 c -0.83615,-0.6075 -1.02022,-1.76971 -0.41273,-2.60586 l 22.68087,-31.21753 c 0.6075,-0.83616 1.76971,-1.02023 2.60586,-0.41273 l 0.86968,0.63186 c 0.83615,0.60749 1.02023,1.76971 0.41273,2.60586 l -22.68087,31.21754 c -0.60749,0.83614 -1.76971,1.02022 -2.60587,0.41272 z m -80.239313,-178.87333 0.112366,-1.06909 c 0.108034,-1.02788 1.022502,-1.7684 2.050377,-1.66036 l 38.375616,4.03344 c 1.027876,0.10803 1.768398,1.0225 1.660363,2.05038 l -0.112366,1.06909 c -0.108034,1.02787 -1.022502,1.76839 -2.050377,1.66036 L 28.35166,255.84106 c -1.027876,-0.10803 -1.768398,-1.0225 -1.660363,-2.05038 z m 195.862343,214.9931 h -0.55048 c -0.52926,0 -0.95534,-0.42608 -0.95534,-0.95533 v -19.7597 c 0,-0.52926 0.42608,-0.95534 0.95534,-0.95534 h 0.55048 c 0.52925,0 0.95533,0.42608 0.95533,0.95534 v 19.7597 c 0,0.52925 -0.42608,0.95533 -0.95533,0.95533 z m 20.3487,-0.57243 -0.54747,0.0575 c -0.52635,0.0553 -0.99463,-0.32388 -1.04995,-0.85023 l -2.06545,-19.65147 c -0.0553,-0.52635 0.32388,-0.99463 0.85023,-1.04995 l 0.54747,-0.0575 c 0.52636,-0.0553 0.99464,0.32388 1.04996,0.85023 l 2.06545,19.65147 c 0.0553,0.52635 -0.32388,0.99463 -0.85024,1.04995 z m 20.84173,-2.77332 -0.53845,0.11445 c -0.5177,0.11004 -1.02305,-0.21814 -1.13309,-0.73583 l -4.10827,-19.32791 c -0.11004,-0.51768 0.21814,-1.02304 0.73584,-1.13308 l 0.53845,-0.11445 c 0.51769,-0.11004 1.02304,0.21815 1.13307,0.73583 l 4.10828,19.3279 c 0.11004,0.5177 -0.21814,1.02305 -0.73583,1.13309 z m 19.64757,-5.31223 -0.52353,0.1701 c -0.50336,0.16355 -1.04025,-0.11001 -1.2038,-0.61336 l -6.10608,-18.79259 c -0.16356,-0.50336 0.11001,-1.04025 0.61336,-1.2038 l 0.52354,-0.17011 c 0.50336,-0.16355 1.04025,0.11001 1.2038,0.61337 l 6.10608,18.79259 c 0.16355,0.50335 -0.11001,1.04024 -0.61337,1.2038 z m 36.06417,-17.66315 -0.47673,0.27524 c -0.45835,0.26463 -1.04039,0.10867 -1.30501,-0.34967 l -9.87985,-17.1124 c -0.26463,-0.45835 -0.10868,-1.04039 0.34967,-1.30502 l 0.47673,-0.27524 c 0.45835,-0.26463 1.04039,-0.10867 1.30502,0.34968 l 9.87985,17.1124 c 0.26462,0.45835 0.10866,1.04038 -0.34968,1.30501 z m 17.33634,-10.67014 -0.44535,0.32357 c -0.42817,0.31109 -1.02332,0.21682 -1.33441,-0.21135 l -11.61446,-15.98594 c -0.31109,-0.42817 -0.21683,-1.02332 0.21135,-1.33441 l 0.44535,-0.32357 c 0.42817,-0.31108 1.02332,-0.21682 1.33441,0.21135 l 11.61446,15.98594 c 0.31109,0.42817 0.21683,1.02332 -0.21135,1.33441 z m 16.66275,-12.82263 -0.40908,0.36834 c -0.39332,0.35414 -0.99506,0.32261 -1.3492,-0.0707 L 338.4748,404.5832 c -0.35414,-0.39332 -0.3226,-0.99506 0.0707,-1.3492 l 0.40909,-0.36835 c 0.39331,-0.35414 0.99505,-0.3226 1.3492,0.0707 l 13.22182,14.68431 c 0.35413,0.39331 0.3226,0.99506 -0.0707,1.3492 z m 14.35918,-14.4243 -0.36834,0.40909 c -0.35414,0.39331 -0.95589,0.42485 -1.3492,0.0707 l -14.68432,-13.22182 c -0.39331,-0.35414 -0.42485,-0.95588 -0.0707,-1.34919 l 0.36835,-0.40909 c 0.35414,-0.39331 0.95588,-0.42485 1.34919,-0.0707 l 14.68432,13.22182 c 0.39332,0.35414 0.42485,0.95589 0.0707,1.3492 z m -65.78296,50.28246 -0.98205,0.43723 c -0.94418,0.42038 -2.04273,-10e-4 -2.4631,-0.9455 L 282.89122,419.0688 c -0.42038,-0.94419 0.001,-2.04273 0.9455,-2.46311 l 0.98205,-0.43724 c 0.94418,-0.42037 2.04272,10e-4 2.4631,0.9455 l 15.69475,35.25098 c 0.42038,0.94419 -0.001,2.04273 -0.9455,2.46311 z m 88.9541,-84.05982 -0.27524,0.47673 c -0.26463,0.45835 -0.84667,0.61431 -1.30501,0.34968 l -17.11241,-9.87985 c -0.45835,-0.26463 -0.6143,-0.84666 -0.34967,-1.30501 l 0.27524,-0.47673 c 0.26462,-0.45835 0.84666,-0.6143 1.30501,-0.34967 l 17.1124,9.87985 c 0.45834,0.26462 0.6143,0.84666 0.34968,1.305 z m 9.67867,-17.90873 -0.2239,0.50289 c -0.21527,0.4835 -0.77782,0.69944 -1.26131,0.48418 l -18.05139,-8.037 c -0.4835,-0.21527 -0.69944,-0.77781 -0.48417,-1.26131 l 0.2239,-0.50289 c 0.21527,-0.4835 0.77781,-0.69944 1.26131,-0.48417 l 18.05139,8.037 c 0.48349,0.21526 0.69943,0.77781 0.48417,1.2613 z m 8.01909,-19.43609 -0.17011,0.52354 c -0.16355,0.50335 -0.70044,0.77691 -1.20378,0.61337 l -18.79261,-6.10609 c -0.50334,-0.16355 -0.7769,-0.70044 -0.61335,-1.2038 l 0.17011,-0.52353 c 0.16354,-0.50335 0.70043,-0.77691 1.20378,-0.61336 l 18.7926,6.10608 c 0.50335,0.16355 0.77691,0.70044 0.61336,1.20379 z m 5.22325,-19.67144 -0.11445,0.53845 c -0.11004,0.51769 -0.61539,0.84588 -1.13309,0.73584 l -19.3279,-4.10828 c -0.51769,-0.11004 -0.84588,-0.61539 -0.73584,-1.13309 l 0.11445,-0.53845 c 0.11004,-0.51769 0.6154,-0.84586 1.13309,-0.73582 l 19.3279,4.10827 c 0.5177,0.11004 0.84588,0.61538 0.73584,1.13308 z m -32.8379,76.6645 -0.63186,0.86968 c -0.6075,0.83615 -1.76971,1.02023 -2.60586,0.41273 L 346.61307,369.018 c -0.83615,-0.6075 -1.02023,-1.76971 -0.41273,-2.60586 l 0.63186,-0.86968 c 0.6075,-0.83615 1.76971,-1.02023 2.60586,-0.41273 l 31.21754,22.68087 c 0.83615,0.6075 1.02022,1.76971 0.41273,2.60586 z M 416.7345,274.26204 v 0.55048 c 0,0.52925 -0.42608,0.95533 -0.95534,0.95533 h -19.7597 c -0.52926,0 -0.95533,-0.42608 -0.95533,-0.95533 v -0.55048 c 0,-0.52926 0.42607,-0.95534 0.95533,-0.95534 h 19.7597 c 0.52926,0 0.95534,0.42608 0.95534,0.95534 z m -0.57242,-20.34871 0.0575,0.54747 c 0.0553,0.52635 -0.32389,0.99463 -0.85025,1.04995 l -19.65145,2.06545 c -0.52636,0.0553 -0.99465,-0.32388 -1.04997,-0.85023 l -0.0575,-0.54747 c -0.0553,-0.52636 0.32389,-0.99464 0.85025,-1.04996 l 19.65145,-2.06546 c 0.52636,-0.0553 0.99465,0.32389 1.04997,0.85025 z m -2.77333,-20.84174 0.11446,0.53845 c 0.11003,0.51769 -0.21815,1.02305 -0.73583,1.13309 l -19.32791,4.10827 c -0.51769,0.11004 -1.02305,-0.21814 -1.13309,-0.73584 l -0.11445,-0.53845 c -0.11004,-0.51769 0.21815,-1.02304 0.73583,-1.13308 l 19.32792,-4.10827 c 0.51768,-0.11004 1.02303,0.21813 1.13307,0.73583 z m -5.31225,-19.64757 0.17011,0.52355 c 0.16354,0.50335 -0.11002,1.04024 -0.61336,1.20379 l -18.7926,6.10608 c -0.50335,0.16355 -1.04024,-0.11001 -1.20379,-0.61336 l -0.17011,-0.52354 c -0.16355,-0.50335 0.11001,-1.04024 0.61336,-1.20379 l 18.7926,-6.10609 c 0.50335,-0.16354 1.04024,0.11002 1.20379,0.61336 z m -17.66313,-36.06421 0.27524,0.47673 c 0.26463,0.45836 0.10867,1.04039 -0.34967,1.30502 l -17.1124,9.87985 c -0.45835,0.26463 -1.04039,0.10867 -1.30502,-0.34968 l -0.27524,-0.47673 c -0.26463,-0.45834 -0.10867,-1.04038 0.34968,-1.30501 l 17.11241,-9.87985 c 0.45834,-0.26463 1.04038,-0.10867 1.305,0.34967 z m -10.67014,-17.33631 0.32356,0.44535 c 0.31109,0.42818 0.21683,1.02333 -0.21134,1.33441 l -15.98594,11.61447 c -0.42818,0.31109 -1.02333,0.21682 -1.33442,-0.21136 l -0.32356,-0.44535 c -0.31109,-0.42817 -0.21682,-1.02332 0.21135,-1.3344 l 15.98594,-11.61447 c 0.42817,-0.31108 1.02332,-0.21682 1.33441,0.21135 z m -12.82259,-16.66276 0.36834,0.40908 c 0.35414,0.39331 0.32261,0.99505 -0.0707,1.34919 l -14.68432,13.22182 c -0.39332,0.35415 -0.99506,0.32261 -1.3492,-0.0707 l -0.36834,-0.40909 c -0.35415,-0.39331 -0.32261,-0.99506 0.0707,-1.3492 l 14.68432,-13.22182 c 0.3933,-0.35414 0.99505,-0.3226 1.34919,0.0707 z m -14.42434,-14.35921 0.40908,0.36834 c 0.39332,0.35415 0.42485,0.95589 0.0707,1.34921 l -13.22182,14.68432 c -0.35414,0.39331 -0.95588,0.42484 -1.3492,0.0707 l -0.40908,-0.36835 c -0.39331,-0.35413 -0.42485,-0.95587 -0.0707,-1.34919 l 13.22182,-14.68431 c 0.35414,-0.39332 0.95589,-0.42486 1.3492,-0.0707 z m 50.28244,65.78301 0.43724,0.98205 c 0.42037,0.94417 -10e-4,2.04272 -0.9455,2.4631 l -35.25098,15.69475 c -0.94418,0.42037 -2.04273,-0.001 -2.4631,-0.9455 l -0.43724,-0.98205 c -0.42038,-0.94419 10e-4,-2.04273 0.9455,-2.46311 l 35.25097,-15.69474 c 0.94419,-0.42038 2.04273,10e-4 2.46311,0.9455 z m -84.05978,-88.95416 0.47673,0.27524 c 0.45835,0.26463 0.61431,0.84667 0.34968,1.30502 l -9.87985,17.1124 c -0.26463,0.45835 -0.84666,0.61431 -1.30501,0.34968 l -0.47673,-0.27524 c -0.45835,-0.26463 -0.6143,-0.84666 -0.34968,-1.30501 l 9.87985,-17.11241 c 0.26463,-0.45834 0.84667,-0.6143 1.30501,-0.34968 z m -17.90875,-9.678626 0.50289,0.223904 c 0.4835,0.215266 0.69944,0.777811 0.48417,1.26131 l -8.03699,18.051382 c -0.21527,0.4835 -0.77782,0.69944 -1.26131,0.48418 l -0.5029,-0.22391 c -0.48349,-0.21526 -0.69943,-0.77781 -0.48416,-1.26131 l 8.03699,-18.051382 c 0.21527,-0.483498 0.77781,-0.69944 1.26131,-0.484174 z m -19.4361,-8.019084 0.52353,0.170108 c 0.50336,0.16355 0.77692,0.700442 0.61337,1.203794 l -6.10608,18.792598 c -0.16355,0.50335 -0.70044,0.77691 -1.2038,0.61336 l -0.52354,-0.17011 c -0.50334,-0.16355 -0.7769,-0.70044 -0.61336,-1.20379 l 6.10609,-18.792595 c 0.16355,-0.503352 0.70044,-0.776912 1.20379,-0.613365 z m -19.67143,-5.223244 0.53845,0.114451 c 0.5177,0.11004 0.84588,0.615396 0.73584,1.133085 l -4.10827,19.327908 c -0.11004,0.51769 -0.6154,0.84587 -1.13309,0.73583 l -0.53845,-0.11445 c -0.51769,-0.11004 -0.84587,-0.61539 -0.73583,-1.13308 l 4.10827,-19.32791 c 0.11004,-0.517689 0.6154,-0.845871 1.13308,-0.735834 z m 76.66453,32.837874 0.86968,0.63186 c 0.83615,0.6075 1.02022,1.76971 0.41272,2.60586 l -22.68087,31.21754 c -0.60749,0.83615 -1.7697,1.02023 -2.60586,0.41273 l -0.86967,-0.63186 c -0.83615,-0.6075 -1.02023,-1.76971 -0.41273,-2.60586 l 22.68087,-31.21754 c 0.6075,-0.83615 1.76971,-1.02023 2.60586,-0.41273 z m 80.23931,178.87335 -0.11237,1.06909 c -0.10803,1.02788 -1.0225,1.7684 -2.05038,1.66036 l -38.37561,-4.03344 c -1.02788,-0.10803 -1.7684,-1.0225 -1.66037,-2.05037 l 0.11237,-1.0691 c 0.10803,-1.02787 1.0225,-1.76839 2.05038,-1.66036 l 38.37561,4.03344 c 1.02788,0.10804 1.7684,1.0225 1.66037,2.05038 z M 242.83944,78.495464 l 1.06909,0.112366 c 1.02788,0.108034 1.7684,1.022502 1.66036,2.050377 l -4.03344,38.375613 c -0.10803,1.02788 -1.0225,1.7684 -2.05037,1.66037 l -1.06909,-0.11237 c -1.02788,-0.10803 -1.7684,-1.0225 -1.66037,-2.05038 l 4.03344,-38.375613 c 0.10804,-1.027876 1.0225,-1.768398 2.05038,-1.660363 z"
         style="fill:#eeeeee;fill-opacity:1;stroke:#366789;stroke-width:0;stroke-linejoin:round;stroke-opacity:1"
         id="rect1181-80-1-2-5-7" />
      <path
         sodipodi:nodetypes="cccccc"
         d="m 172.42752,348.44288 71.36527,-125.44098 35.21153,18.88826 -71.36528,125.44099 -28.43145,9.00861 z"
         style="fill:#eeeeee;fill-opacity:1;stroke-width:0;stroke-linejoin:round"
         id="rect1582" />
      <path
         id="rect1582-9"
         style="fill:#ababac;fill-opacity:1;stroke-width:0;stroke-linejoin:round"
         d="m 259.46327,231.19329 19.54105,10.69687 -71.36528,125.44099 -28.43145,9.00861 z"
         sodipodi:nodetypes="ccccc" />
      <path
         id="rect1582-1"
         style="fill:#ff4f4b;fill-opacity:1;stroke-width:0;stroke-linejoin:round"
         d="M 383.3514,153.01947 228.42017,291.4257 207.86865,270.20113 362.79988,131.79491 392.87707,125 Z"
         sodipodi:nodetypes="cccccc" />
      <path
         sodipodi:nodetypes="ccccc"
         d="M 383.3514,153.01947 228.42017,291.4257 216.77233,279.63903 392.87707,125 Z"
         style="fill:#d2070b;fill-opacity:1;stroke-width:0;stroke-linejoin:round"
         id="rect1582-1-8" />
      <circle
         style="display:inline;mix-blend-mode:multiply;fill:url(#linearGradient1538);fill-opacity:1;stroke:#366789;stroke-width:0;stroke-linejoin:round;stroke-opacity:1"
         id="path1149-1"
         cx="250.31262"
         cy="250.31264"
         r="224.73193" />
    </g>
  </g>
</svg>
